<mxfile host="app.diagrams.net" modified="2024-06-13T09:44:26.461Z" agent="Mozilla/5.0 (Windows NT 10.0; Win64; x64) AppleWebKit/537.36 (KHTML, like Gecko) Chrome/126.0.0.0 Safari/537.36" etag="-YHwQnGnI7sUQGXfER1U" version="24.5.3" type="github">
  <diagram name="Page-1" id="BZ0HOsFz2ASkdWFum6OI">
    <mxGraphModel dx="1235" dy="655" grid="1" gridSize="10" guides="1" tooltips="1" connect="1" arrows="1" fold="1" page="1" pageScale="1" pageWidth="827" pageHeight="1169" math="0" shadow="0">
      <root>
        <mxCell id="0" />
        <mxCell id="1" parent="0" />
        <mxCell id="kyHv9WxEyEAn_q-l7HWX-12" value="" style="rounded=1;whiteSpace=wrap;html=1;gradientColor=none;strokeColor=default;dashed=1;dashPattern=1 4;" vertex="1" parent="1">
          <mxGeometry x="24.07" y="270" width="210" height="90" as="geometry" />
        </mxCell>
        <mxCell id="6ND3VzIesLsBvpKnC6EB-60" value="" style="group;movable=1;resizable=1;rotatable=1;deletable=1;editable=1;locked=0;connectable=1;rounded=1;glass=0;" parent="1" vertex="1" connectable="0">
          <mxGeometry x="414" y="55" width="120" height="60" as="geometry" />
        </mxCell>
        <mxCell id="6ND3VzIesLsBvpKnC6EB-59" value="" style="rounded=1;whiteSpace=wrap;html=1;movable=1;resizable=1;rotatable=1;deletable=1;editable=1;locked=0;connectable=1;" parent="6ND3VzIesLsBvpKnC6EB-60" vertex="1">
          <mxGeometry width="120" height="60" as="geometry" />
        </mxCell>
        <mxCell id="6ND3VzIesLsBvpKnC6EB-57" value="" style="shape=image;verticalLabelPosition=bottom;labelBackgroundColor=default;verticalAlign=top;aspect=fixed;imageAspect=0;image=https://brojonat.com/img/K8S-logo.png;movable=1;resizable=1;rotatable=1;deletable=1;editable=1;locked=0;connectable=1;" parent="6ND3VzIesLsBvpKnC6EB-60" vertex="1">
          <mxGeometry x="16.659999999999968" y="9.5" width="45" height="45" as="geometry" />
        </mxCell>
        <mxCell id="6ND3VzIesLsBvpKnC6EB-58" value="" style="shape=image;verticalLabelPosition=bottom;labelBackgroundColor=default;verticalAlign=top;aspect=fixed;imageAspect=0;image=https://brojonat.com/img/K8S-logo.png;movable=1;resizable=1;rotatable=1;deletable=1;editable=1;locked=0;connectable=1;" parent="6ND3VzIesLsBvpKnC6EB-60" vertex="1">
          <mxGeometry x="61.65999999999997" y="9.5" width="45" height="45" as="geometry" />
        </mxCell>
        <mxCell id="6ND3VzIesLsBvpKnC6EB-91" value="" style="edgeStyle=orthogonalEdgeStyle;rounded=0;orthogonalLoop=1;jettySize=auto;html=1;" parent="1" edge="1">
          <mxGeometry relative="1" as="geometry">
            <mxPoint x="245" y="304" as="sourcePoint" />
            <mxPoint x="306" y="304" as="targetPoint" />
          </mxGeometry>
        </mxCell>
        <mxCell id="6ND3VzIesLsBvpKnC6EB-3" value="GitHub" style="shape=image;html=1;verticalAlign=top;verticalLabelPosition=bottom;labelBackgroundColor=#ffffff;imageAspect=0;aspect=fixed;image=https://cdn1.iconfinder.com/data/icons/picons-social/57/github_rounded-128.png" parent="1" vertex="1">
          <mxGeometry x="161" y="280" width="50" height="50" as="geometry" />
        </mxCell>
        <mxCell id="6ND3VzIesLsBvpKnC6EB-99" value="" style="edgeStyle=orthogonalEdgeStyle;rounded=0;orthogonalLoop=1;jettySize=auto;html=1;entryX=0.5;entryY=1;entryDx=0;entryDy=0;" parent="1" edge="1">
          <mxGeometry relative="1" as="geometry">
            <mxPoint x="645" y="263" as="sourcePoint" />
            <mxPoint x="645.27" y="228" as="targetPoint" />
          </mxGeometry>
        </mxCell>
        <mxCell id="6ND3VzIesLsBvpKnC6EB-11" value="" style="image;sketch=0;aspect=fixed;html=1;points=[];align=center;fontSize=12;image=img/lib/mscae/Docker.svg;" parent="1" vertex="1">
          <mxGeometry x="606" y="269" width="79.27" height="65" as="geometry" />
        </mxCell>
        <mxCell id="6ND3VzIesLsBvpKnC6EB-102" value="" style="edgeStyle=orthogonalEdgeStyle;rounded=0;orthogonalLoop=1;jettySize=auto;html=1;" parent="1" edge="1">
          <mxGeometry relative="1" as="geometry">
            <mxPoint x="474.2758620689656" y="265.5" as="sourcePoint" />
            <mxPoint x="474" y="228" as="targetPoint" />
          </mxGeometry>
        </mxCell>
        <mxCell id="6ND3VzIesLsBvpKnC6EB-17" value="" style="shape=image;verticalLabelPosition=bottom;labelBackgroundColor=default;verticalAlign=top;aspect=fixed;imageAspect=0;image=https://upload.wikimedia.org/wikipedia/commons/0/05/Ansible_Logo.png;" parent="1" vertex="1">
          <mxGeometry x="436.83" y="267.5" width="75" height="75" as="geometry" />
        </mxCell>
        <mxCell id="6ND3VzIesLsBvpKnC6EB-100" value="" style="edgeStyle=orthogonalEdgeStyle;rounded=0;orthogonalLoop=1;jettySize=auto;html=1;entryX=0.633;entryY=1.083;entryDx=0;entryDy=0;entryPerimeter=0;" parent="1" source="6ND3VzIesLsBvpKnC6EB-19" edge="1" target="6ND3VzIesLsBvpKnC6EB-60">
          <mxGeometry relative="1" as="geometry">
            <mxPoint x="498" y="115" as="targetPoint" />
            <Array as="points">
              <mxPoint x="474" y="135" />
              <mxPoint x="490" y="135" />
            </Array>
          </mxGeometry>
        </mxCell>
        <mxCell id="6ND3VzIesLsBvpKnC6EB-101" style="edgeStyle=orthogonalEdgeStyle;rounded=0;orthogonalLoop=1;jettySize=auto;html=1;" parent="1" source="6ND3VzIesLsBvpKnC6EB-19" edge="1">
          <mxGeometry relative="1" as="geometry">
            <mxPoint x="460" y="120" as="targetPoint" />
            <Array as="points">
              <mxPoint x="474" y="135" />
              <mxPoint x="460" y="135" />
            </Array>
          </mxGeometry>
        </mxCell>
        <mxCell id="6ND3VzIesLsBvpKnC6EB-105" style="edgeStyle=orthogonalEdgeStyle;rounded=1;orthogonalLoop=1;jettySize=auto;html=1;entryX=1;entryY=0.75;entryDx=0;entryDy=0;dashed=1;dashPattern=1 2;curved=0;" parent="1" source="6ND3VzIesLsBvpKnC6EB-19" target="6ND3VzIesLsBvpKnC6EB-26" edge="1">
          <mxGeometry relative="1" as="geometry">
            <Array as="points">
              <mxPoint x="370" y="189" />
              <mxPoint x="370" y="110" />
            </Array>
          </mxGeometry>
        </mxCell>
        <mxCell id="6ND3VzIesLsBvpKnC6EB-19" value="" style="shape=image;verticalLabelPosition=bottom;labelBackgroundColor=default;verticalAlign=top;aspect=fixed;imageAspect=0;image=https://logos-marques.com/wp-content/uploads/2022/07/Kubernetes-Logo.png;" parent="1" vertex="1">
          <mxGeometry x="421" y="159" width="106.66" height="60" as="geometry" />
        </mxCell>
        <mxCell id="6ND3VzIesLsBvpKnC6EB-20" value="" style="group;rounded=1;" parent="1" vertex="1" connectable="0">
          <mxGeometry x="600.27" y="47" width="99.73" height="80" as="geometry" />
        </mxCell>
        <mxCell id="6ND3VzIesLsBvpKnC6EB-21" value="&lt;font face=&quot;Lucida Console&quot;&gt;&lt;b&gt;SRV-DB&lt;br style=&quot;font-size: 10px;&quot;&gt;CLUSTER GALERA&lt;/b&gt;&lt;/font&gt;" style="rounded=1;whiteSpace=wrap;html=1;shadow=0;textShadow=0;gradientColor=none;perimeterSpacing=0;horizontal=1;fontSize=10;labelPosition=center;verticalLabelPosition=middle;align=center;verticalAlign=top;fillColor=none;" parent="6ND3VzIesLsBvpKnC6EB-20" vertex="1">
          <mxGeometry width="99.72999999999998" height="80" as="geometry" />
        </mxCell>
        <mxCell id="6ND3VzIesLsBvpKnC6EB-22" value="" style="sketch=0;outlineConnect=0;fontColor=#232F3E;gradientColor=none;fillColor=#C925D1;strokeColor=none;dashed=0;verticalLabelPosition=bottom;verticalAlign=top;align=center;html=1;fontSize=12;fontStyle=0;aspect=fixed;pointerEvents=1;shape=mxgraph.aws4.rds_mariadb_instance;" parent="6ND3VzIesLsBvpKnC6EB-20" vertex="1">
          <mxGeometry x="54.66298798633308" y="37.839999999999996" width="31.755755538410668" height="31.755755538410668" as="geometry" />
        </mxCell>
        <mxCell id="6ND3VzIesLsBvpKnC6EB-23" value="" style="sketch=0;outlineConnect=0;fontColor=#232F3E;gradientColor=none;fillColor=#C925D1;strokeColor=none;dashed=0;verticalLabelPosition=bottom;verticalAlign=top;align=center;html=1;fontSize=12;fontStyle=0;aspect=fixed;pointerEvents=1;shape=mxgraph.aws4.rds_mariadb_instance;" parent="6ND3VzIesLsBvpKnC6EB-20" vertex="1">
          <mxGeometry x="10.695171387633637" y="37.839999999999996" width="31.755755538410668" height="31.755755538410668" as="geometry" />
        </mxCell>
        <mxCell id="6ND3VzIesLsBvpKnC6EB-24" value="" style="group" parent="1" vertex="1" connectable="0">
          <mxGeometry x="140.00000000000003" y="69" width="115.11000000000001" height="51" as="geometry" />
        </mxCell>
        <mxCell id="6ND3VzIesLsBvpKnC6EB-25" value="" style="shape=image;verticalLabelPosition=bottom;labelBackgroundColor=default;verticalAlign=top;aspect=fixed;imageAspect=0;image=https://cdn.freelogovectors.net/wp-content/uploads/2018/07/grafana-logo.png;" parent="6ND3VzIesLsBvpKnC6EB-24" vertex="1">
          <mxGeometry x="16.32000000000005" width="82.47" height="20" as="geometry" />
        </mxCell>
        <mxCell id="6ND3VzIesLsBvpKnC6EB-26" value="" style="shape=image;verticalLabelPosition=bottom;labelBackgroundColor=default;verticalAlign=top;aspect=fixed;imageAspect=0;image=https://miro.medium.com/v2/resize:fit:800/1*XE0ObomSZ6cwRHKNZ751Vg.png;" parent="6ND3VzIesLsBvpKnC6EB-24" vertex="1">
          <mxGeometry y="11" width="115.11" height="40" as="geometry" />
        </mxCell>
        <mxCell id="6ND3VzIesLsBvpKnC6EB-74" value="" style="shape=image;verticalLabelPosition=bottom;labelBackgroundColor=default;verticalAlign=top;aspect=fixed;imageAspect=0;image=data:image/png,iVBORw0KGgoAAAANSUhEUgAAAQoAAAEzCAYAAADJvk2sAAAACXBIWXMAAAsTAAALEwEAmpwYAAAgAElEQVR4nOyddXhUZ9qH72MzE3chJBAguLsWK1IXSmWrX9utd3e7u+1Wt+7u3bptuzWoUKEthVKsFHcJAUIgxN3Gzvn+OGFCWkJszkhy7uviupKR8z4ZZn7zyvP8HkHTNA0TExOT4yD6OwATE5PAxxQKExOTZjGFwsTEpFlMoTAxMWkWUyhM2oX7wFLce79H01R/h2JiILK/AzAJTtTCbbi2foh756egupF6zEAafhVSl1H+Ds3EAATzeNSkNWhuJ651L+Fa8/wx75cG/gll4h0ISpiPIzMxElMoTFqE5nbi3vkZro1voJXtO+5jhYiuSIMuQR5yCYIc4qMITYzEFAqT46KpbrTinTiX3o2av6FVzxViMlCmPoCYPApBlAyK0MQXmEJh0iRaTRHO5Q/izl4Cjsq2XUQOQUwZjTLlQcTIVO8GaOIzTKEw+QNabTGuHfNwbX4HqvO8c1ElFHnEtcj95iKEJ3vnmiY+wxQKk0a4D67A+eM/0GqKAAPeGnIIlpnPIPaYiSAI3r++iSGYQmECgDtvPa51L6MeWAaq09jBBBExZSzyiGuQuk02diwTr2AKRSdHqy3BueY53Fve98v4Uq9TUE64C0ITEQQz/y9QMYWiE+Nc+xLubf9Dq8r1axxCaAJS7zORJ/wLQTRzAAMRUyg6GZrqQs1djXPZA2glu/0dTiOEmAzk0X9F6nWSKRgBhikUnQitpgjHt1ejFmwBze3vcI6NICLE9MJy8n8Qo3v4OxqTekyh6ARotSW4Nr2Fa+sHYC/3dzgtQw5BGnA+yohrEMKS/B1Np8cUig6M5qzBvX8xziW3g7Pa3+G0GWXqw0i9T0OwhPs7lE6LKRQdFPfBVbhWP41asAlUl7/DaR+CiBDXD2XMTUg9Zvg7mk6JKRQdDLVkN66Nb+Le8am/QzEEsccMlDE3IcT2NetHfIgpFB0I569P4tryftvrMoIFJRwp4xQs0x/1dySdBlMoghzN7cSd+RWu9a+ile7xdzg+RQhLRh5+NdKAc03/C4MxhSJI0TQVqgtwfHeNftzZiRFiemGZ+SxCXD9zOWIQplAEIVptMc7lD+HO+g7cdn+HExhIVsRuU1Am3YkYmebvaDocplAEEVpdGe49X+Nc9oDxhVtBjDzuZuR+55j5F17EFIogwb3vJ5wrHkIrz8aQ8u+ORmgCyoQ7kPue6e9IOgSmUAQwmupGK9iMa/PbuDO/9nc4QYmYNgl5xDWIKePM/Yt2YApFAKJpGrjqcK5+GvemN/0dTodA6jkbZcaTIIeahjltwBSKAENzO3BteQ/3lvfRKnL8HU7HIjQBeeCfkIddiWCJ8Hc0QYUpFAGC5rajFW7HseQ2tJJMf4fToRHCU3Sz366jzfyLFmIKRQCg1RbjWPRP1IOrzNMMXyHKiF1GoUy6GzG+n7+jCXhMofAjWk0Rrh2f4Fr3SmBVd9piEELjEUITISQWMSQOwpIQw7uAbNOPHZup5NSqC8BRiWYvR6stRqvIQasthroytJpC/f5A+JslC/LQy5EGXmjmXxwHUyj8hDt7KY4fbwoYfwix52zkHjMQu09FCInzyZhqWTbuvQtR9/+EenitT8ZsEtmGMvk+5P7n+jeOAMUUCh+iaSpq7m+623XOcr/FISQNQ+wyGilxMEJsH4SYni2yntMc1fU2/qBV7G/6gaKCEN5VHysiBUFSWnDtKrTSPahFO1APr0PNXY1WeahFf483EZJH6jOMnrPN49SjMIXCB2iahladh2vtS7i3fwSa6sPRBbBGIUR2RepzFlKfMxFD448dp6ManFVo9kq08v1oZftQi7ajlu5FK2xHPYkShhDdEylpKEJ0L4SkoQi2aN2IxhKBIFuP+TR33gbc2/6ni0Z1gU/T1aVeJyOPvxUhMtV0B8cUCsPRnNW4Ntbb0NUU+HRsIWUMcv+5iEkjECK6HvMDqVbk4N63CC1vPWrZXrS6MqgrBVedkZGBJRzBFgO2aMS4/kjpUxHTZxzzW1yrK0Mrz8a1+wvcu77w3XLNGoWUcSrKhNs6vbuWKRQGoblqUQ8sw/nbM2jFu3w2rhDdA6nbFKT+c/VqyqO+DTXVjVaRg1q4FTVvHer+JWgVB3wWW0sQu4xC7D4NMXEIYnx/hJDYRvdrjmrcu7/EnfUdau5qn7h3CZHdkEdeh5RxaqcVDFMoDEAtP4Djx5vQCjb7bpmhhGE58XHEblP1k4mjsg81TUXdv0QXrbK94LIT8PUiggyWMKQeM5BHXv8HR25NdYK9EsdPt6BmL/FNSDEZWGY+i5gwwCfjBRKmUHgRtTwb18Y3cO/6HJw1PhhRQEwdjzz4UsTu0xptGmrOGtx7v8e9fzHqwZX6ciJYESSEmF5IPWbqPT/iBzQSQrVoB+7MBbh2fAq1xcbGIipIvU9DHnplpxIMUyi8gOasQc1eiuOnW8DlA4EQJIToHigT70DqPrUhDtUNdWW4d3+Bc90rUFdifCy+RpAQu01GGf8vhKj0RvsueuLaLfqSxFVrbBxyiG72O+ACBGvHTwc3haIdaJqKmv0zzpWPoJVm+WRMIbY3yuT7ERMHIyihntvVkkycq5/W8xGM/lYNBEQLQlwf5AEXIA+6sNFdakkmrl+fxL3/J8OXfkJkGvLI65H6ze3Qx6mmULQRtXgnrvWv4s5c4Jt9iLBk5P5zkUfe4PkW1VQ3WskuXFs/xL3jk+C35W8jQmwflNF/Q+w2GcGi125oqgv3ri9wbXjVByIuIKZNQBl7C0LioA55nGoKRSvRnDU4l9yBO2shqA6fjKmXSD/daJNSLT+A8+c7UXN/M+tDABAQorphmf4EYsooz62ay45r/Su41jxvfAiijJg6AcvsFzvc6YgpFC1Ec9Xh3vEprq3/9Vl1pxDdA2XMTYi9TvZkTqqVubi3vItrx7yOuQfhBaQ+ZyEPv7pRsZc7Z7neECl/o+HjCxFdkQZdhDzoog5Tzm4KRTNomopasAXnktt8lw8hykg9ZqHMeBJBtulxuOyoB37Gsfi2gKkPCWgkC8rom5AGXwKKblajue04F9+Be8/XvpmF2WKxzHoOMWVMi9LYAxlTKI6DWrYX1+qnce9fYvwu+hFssVim3o+YPtPz5lKLd+Nc8RDqoV/NZUYrEZJHYDnhHsTEwUD93kXWQpyL/umb11Ky6OXsE25HTBho/HgGYQrFMdDLvz/Fte4lH+VDAAgISUOwzHjak1ykOapwZ32Hc+UjUFfmozg6JsoJd+tHmfUzNLXyII7vrkMr3OabAEQZedifkQZcgBjVzTdjehFTKI5C0zT92+aXu6G2BF9mL0oDL0SZeCeCEqLH4qzB8d21qDkrfBpHh0UQEZOGYTnlVU8ZveaoxPH9X1EPLPVdHNYolHH/1EWrBRW7gYIpFPW4s5fi2vgG6qFVvq3uVML1N86gizxvHPf+xTiX3oNW5fsy646OEJOBMvF2xG5TPfsWrtXP4Nrwmg+DEBGThiIPvwap5yzfjdsOOrVQaJoGdaU4lz+Ae/eXvg9AsmA59U2ktIl6PKob17pXcP32tO9j6UyIMpZTX0dMneRJknJt+x/OpXeD5vZtKKkTUaY/hhDeJaDdwTutUGiuOly/PYt795do1fm+D8AWg/W0txGThujx1BTiWHIb6oFlnTZxyqeIMvLgy1Am3QnoRWbuXV/i/PkO37/+1mik3qehjPsngjXKt2O3kE4nFJrLjnpwBc6Vj/qt+7cQPwDLSS97NrXUihycS27Xi7dMfIrY+3QsUx/2ZHS6Nr+Dc+Wj4PZNMl0jrDFYpj6ImD69STMff9GphEIt3oVz0T9RSzL9dswoRKVjmfMxYmiCHlN5No4vL/aL7ZsJgIDYbTKWk15GUEL0De19P+BceKPPlyF6OBJCaALKSS8hJQ/3/fhN0CmEQnM7cK19CdemN3143PlHhPgBWE5/GzE0AU3TUA/9iuP7G4O7BLyDoKdev4Bgi0HTVFwb38T16xP+WwaKMlK/uSiT7gyI3iMdr3rlGAiSRTdLtcU2/2CjYohIxXp2w0xCq87DsfB6UyQCBPXgSuzzz0dz2REEEWX4VSjTHgb8tMFoiUAe+KeAEAnoJDOKI2jOGtx7vsW19kXfWsBZo7Ce8xliTC8A3AdX4Vh4HdgrfBeDFxFCE8ESASExiLaY392roVYcAme1vpzyx/S9HUi9z8Ay61mgfsN79VO4Nvqw/2toIsrYvyP1OhnBGum7cZuhwwvFvEPlDI6y0TPUgizq3w6aowrn0rt1vwJHpaHjC6EJWM7+GDE6XXfjLt6F/atLAt8zQrLq5rfWSMT4gYhdRyNGZ+hl1PXZjS1BrcxFK9que3Tm/oZWU6wb+DoCVyTFjFOxnPikZ0PR/s1VqPt/MnZQJQyx+zQsJ9yNUO+SrmoaB8urWJ2Tz7mDM4wdvxk6vFDcsjWPN/eXMjspnJeGphBr0c/NNU1FqzyE65d7cWf/jFHZj5Yz3kNKmwSAWpqFff55Ab3cEFPG6F2zEgYh2KLBGum1DEJN0/SZRl0ZWlUe7m0f4t77ve/qaFqMgDzmbyij/wqAVluCff55ut+oAYhpk1CmPIAQkerJ66hzuvj3ojV8vCWTUV0TmX/RSYaM3VKCJ4e0HdSqGl8crmRF8R7u6pvA2SmRJFhlhMg0lFNeQ9zzDa6Nb6AVbvXeoJINZfK9DSJRtg/HwhsCTySUMMTkEUg9TkTKOO0PrtdH0BxVaNV5+mzAWY1WXQhoaOXZjTNZlVCEsGSQLAi2KISwJARbHITG6YYulnDdqyEyFSllFJrbgXvvD7gzF6AeXhcgpfMart+eRQhNQBpwPkJILJYz3sUx/1y0qjyvjSLE90ceeoX+utfPXmocTn7Yc5AHlqwlszhwqoQ7xYzixb2N33xRisiX47ozNiak0e2uzAU4F9/uFd9LafAlKCfcW58m7MD+2TloRT4qQGoh8qgbUMb+s8n71bL9qHsW4Nr9VftdomwxSN0mIw04H6nruCYf5tr0Ns7lD7RvLG+hhGI990vP3pJr95c4f/x7+68ryijjb0UedmWjmw9X1nD2f79je2HjL5MZvVL9PqPolEIBIAswOzGc2/smMDzKhigI+h5C+X7cWz/Ate3DNjfBEbtNwTLreQRrhL4fsuR23Hu+ae+f4gUE3Wdy0MVIfc74g6mKWrwL94FfUPM3ouVvRKs6bEwY1ijEhIGIiUMR009ETBrSaHmj1Rbj3rcI16a3fGYS1BRCeAqWsz5AjOoOgHPVE7jW/4c2LVVFGanfOcjDrtQ7ptWnbO8vreD5VVv4YFMmtc4/HseaQuEDmhKKI0gC3Ngzlr/1iqOLrcFcRC3JxLn8AT1bsjVFYqEJWOd+jhiRAoBz9TO41r7Q5vi9hRCRqpvA9j+3kQmsVlOMmr8B18bXUXPX+Ce2+AHIw69C6joeQuM9npOaqw7XlvdwbXwD6nue+gMxbRKW095GECU0RzX2Ly5oXXm6ICImDkWZ+lAj162yWjvf7c7m9h9WU1LbdLtEUyh8QHNCcYTUEIW/9IzlqvQYQqT6N6qzBjV3Dc5l9+pr8eYQFSwnvYzU40QA3Ht/xLHo735N8sISgTL2ZqTepzbaf9Ac1bh+fRx39lK0ihz8XsouiAhhyUg9ZyKPurFRR3W14iCudS/j3vGpn45bBeThV6NMuFWPpyQT+7y5LTsxC0vEMuVBxK5jG83gfsjM4b7Fa9iS3/x70xQKH9BSoTjCyGgbt/eJZ2ZiBBbPcWo1rk1v4972IVp105tZ0rArsUzUi4zU0izsH5/m08a6jYOx6I12R93oWWNrmopWtk//W3bNN7i/aDuQrMgjrkXqexZCZDd9n0fTUPctwrn2Be9uOrcCy+nvIHWbDIBry39135KmsMUgDzgfeeR1HoFQNY0tecU8t3Iz87fvQ23hR88UCh/QWqEAff9ifGwo747s6lmOaJoGrlrdgTvzqz8+yRKO7bJVnuIi+/zzUQ/7ZyqPHILl5FcQ0yY1so53LrsX147P/DvDaQ22GJRJ/0bue5bnJs1egeO763TfEB8jRHXHdrHevlBz1VH3wQyoyv3D46TuU1FmPa93ca/fh6hzuXl06Xpe+nUrdnfrZkWmUPiAtgjFEWIUiYvToripVxwpIfWCobpRD6/FteG1hp6XShjWOZ8gxvdH0zRca57FtcY/+xJS+onIk+5EjErX43XZce+ch2vT22hlvmlS5G3EtBOQR/8FqUuDDb9r83u6RaCPZ2xS79NQTnwKQVLQqg5T9/GpHptCset45GF/1vuLHJUP8eHmTF5ZvY1dRW2zMwwEoegUeRRtpdTp5oW9JbyfU8abI7oyPT4MmyQhdR2L1HUs7qzvcSy7F7nHTIS4vgBoFQdwbXzb98GKMvKwq1DG36LHoWlQV4Jj8a2o+xf7Ph4vouYsw3FwJcqMp5F6zUaQLMhDLkVIHoZjweU+zU1x7/0BedhOhMTBCOFdkAdfimvrhygjrkUedkVDzJrGvpIKrvlyKb8dLPBZfEZhzihaiAgMirTxQP8EZiU1bEppNYUg2fSjULcD+6dn+s7W/wghcShTH0ZKn+Y5ZnTt/hLn8oeg1n+nBV5HEBG7T8cy61kEJVQ/zi7NwvHVJT41HxKie2Cd+zmCNRLNVafPKMKSPMuM3Ipqbl64iiVZB6k+xnFnawmEGUWnqB71BiqwuaKOOb/lcO3GXHZV6VNeITTB06RW3bcIrWy/T+MSItOwzHwGuedMBFFGc9XhXP6QnhjUkUQCQFNR9y/C/tUlqMW7EAQBMTYDy9zPERIG+S6M8gO493wLgCDbEMKTEQSBkto63t+wiwmvzufrnfu9IhKBgikUrcStwbsHyhj7817u3JaPS22YkIk9Z2M97yuE+lMGw7FG6zvx9WniWk0R9k/OxLXpLd+M7ye0vA04FlyuGxABYngy1jmfICQNM37wkDis536O1H9uo5t/3nuIUS99xg0Llh03JyJYMYWijdhVjW2Vdk9FKoAgSoixvbGe+wXKlPv1mgeDEJNHYJ3zsacHiFqSiX3BZWilmfg9J8IHaNV52OedgztnOaB/s1tmPI1Q7/fhdSyRKBPuwHbxEr1g7neFct9l5lBUE6DHzV7AFIp2MCdF9wuodaucvDKbDeV1uFQNQQlDHnQxtv9biTz4Et27wZtYo1FOfBIxtjcAav5G7PPmohXt8O44gY6jCsc3V+HO24CmaYjR6VgvXIQQnuK9MZRQpL5nE3LVRuThf/Y0Hy6vs3Pr96soqdFnD6f0Cb6mPq3BFIp2cEYXXQD2VDlYVVLDKSv3c9XGXArsDWtTedLdWOd8gtTrFK+MKcT0wjp3HmJ0OqD3ALF/faXhvhoBi9uO49ur62dSIFgjUKY+6JVLi6kTsZ75Acr0xz23udwqr6zeyoy3FvDK6m1sytP3gcamJRFuCe7+osfDFIo2MjjSSrSin5XvqXbgUDXKnCofHSxnyOI9vLi3mBKHW1+OxPXFctKLWE57ByFhMAhtfNlD4vR6gSPLjfyNOH66JfBK131NbTGOry5DLdFd1aXuU1Em3w9iGz64gogQ2wdl9gtYz3wfMWmoJyfil/25nPvR99z6/a+enIjtBfqJmk2WGJ2a6J2/JwAxhaKNDI1qcHnaXFHXaFeg3Kly69Z8Ri7J4tu8hm96qftkrGd92OgbqsVIFv0INGUMAGrRDuxfXWaKRD1adT6Oxbd4fpcGnIeYdkKrr3NkBihnnOq5Lb+qhsvnLWbuh9/zU1Zjt/TNeQ1H76O7GrQ/EgCYQtFGhh8lFCuL/5gSrQJ5dhfnrclhzuoD/FqiP0awhCH3m4PtijVIw64EObRF48kjr0dKnwbopxuOH/7WeZcbTaDlb8Lx0y1objuCZMEy7RGE6J7NP1EOQRp4EdYLf0QZcqnHq7Kszs7Tyzcx+fUvmLdtL3WuP6ZerztU6Pl5UFIcAdzsq12YQtFGPCndmsbWiqZ3u90afJdfxbTl+7lmYy6VLjeapiGExGGZeCe2C79HTBh43OWIlH4iyui/6nkSzlrsX1zkt+ZFgY575zzcuxcAIIQloEy8EwTp2A8WRITYDKxzPsUy9YEG82NVY83BAka+9Bn3Ll7D4cqma2N2F5fhUnUbgrSocBSxY36kOuZf5QP6hOvWZftqnJQ4W+ZX8d6BMib/so/nj8oUFSK6YjlnPsqMpxGij5F/IduQJ9zm+dW5+klTJJrBtfop1IqDAIip4xHTp//hMUJYMsqUB7HO/QIxYYDn9m35JVz86SJOefdrCqtb5uW5bL9u8JMYbkM2hcLkaFJs+jn6ksLqVj1vZ5WD27blM2JJFosKqnCoGoKkIPc5A9tFPyKPuA4hLEl/sGTBcsZ7iDG99GKz3V/i3vQ2nSFPoj1o1fk4f75L79Eh27DMfAaO9HSxxSIPuhjrpb8gD7wAQdGXfrkV1Tz2ywYmv/EF3+zKxu5uuVnR6hw9fTwtKgKb3MTsJcgxi8LaQBeb3OjEoy3sqLRz3m85nJgYztODkkgLtQAgj/sn0sAL9OpTV21DxWR1Pq5VbdgE7aSoB1eg5ixD6jEDQQlF7ncOatF2lMn3IUSne8rvXarKR5v28ODPazlcWdMmCd6Y19B6YUhyHD/v+2PpebBjCkUbGB/bsAF5vP2J5qhVNb7Oq+SXompu6BnLdT1iPe7glhMfR6v3jdBcdhyLbzPOw7IjorlxLP03ti6jEGzRyONuRpAaH5cu3ZfLY79sYOWBvBabyByLvSXl2F1urLLEuLSkDikU5tKjDQyI0PcnqlwqBfb2W7NVuFQe2V1Et+93s6igynP7kWmxVr4fNeeXdo/T6ajORy3YAtBIJGqcLuZ+uJDT3/+W5dmH2yUSAA6XSp1LT7Ib0UGPSM0ZRRsYG6vb/NtVlZpWrGVbwlmrDzA2JoQHByR5Zi5iXF9sl6/GtWMernUvBo9Dlb+QQ5CHXYHU/3zEyFTPzXUuN08s28CHmzI5VNG6vaXjUeVwUlbnIMpmZUDC71ssdgxMoWgDA+pPPByqRp3qXaFwa7CypJYvcisaLXGE0ASUkdciZZyCc8ltqHkb/OfHKYighINsQZBsUJ+5qDmrdR9OZ03rnMu9haggJgxAmfYIYly/P9y9Na+YJ5Zt9Pqw1U4n5XX6XlW3aC/X9QQIplC0gSM5FDVujSqXMR+IfhENCV0fHSzngtQoAMSobljOeB81bz3OX+72qUmOENsHqffpSN2ngDVa724l2RpyQFw1aM5acNXi3vs97l1fopXv801sMRkoE+9ATJ2AIFk8tx8sryIpPBRFEukaFU64RaHK4fTq2Kqq4T7KbiAhzEZhdceqJDWFopVEKQ3bOm5No4UpFK1mRHSDUDy6u5CHdxVyX/9ETk4K1+34UkYjnvslrq0f4N78rnHd2UPidB/OgX9CSBjUqCfIH7CEcSQxUYzrizL6r7hz1+De/Dbug6vA7v0WeUJ4ClLfs3W3a6VhBlZQVcub63bw/KotrLt+LimRYVgkkTCL7HWhqHW5G11TkTre1p8pFK3EdlRCTa1bo9rLexSg7zBLR6UCV7lUDtW5uHDtQYZEWlkwrhuJNgVBsqAMvRx50MU4Vz2G28uGNdLAC1Em39tkk2JX3XpUdwmacz+idSCCGINsbTzll1JGI6WMRqstwbHwRtTcX70XX8ZpKNMfQVDCGt3+2dYsrpi/xPP75vxiUiLDsMoSkVYL+VXGNkWODw0ht6Jj7SOZQtFKJB/k8odIoqcJEdCobH1zhZ3ei/ZwTXoMN/SMo3uogiApWCbdhZpxKq6Nb+Le9wOobbdhE5KGYZlwB2JKg+u1pjlw1SzDWbMMt2M3qvMAcKxvZgFR6YlkHYgSMgE5dBKCoNQ3+n0Hd+bXunt2bfExntui6BC7nYA84jqkrmMb3bN0Xy7PrNj0h+PJdYcKOal3NxRRJFQx5i2/Jb+YE9K7AGAxZxQm8ZaGqXexwzeeiM7fnd45VI0X9pbwxv5SHhuYzNyukUQrImLycJTZLyBlL8H56xNoxbtpVRanICL1OwfL9Mc8N2lqFc7a36grfhxNbUmlqobqzEJ1ZuGs+gpR7k5I/F1I1r4IkhW53xzEuL7Yv74Cagqbv9zR4UWkIo/7B1LvMzwJU6qmsb+0kieXb+S/G3cf83m7CvWScKssEWG1HPMxJsfHFIp2kF1jjFCESAIhYvNTl1pV46Yth3kju4T7+idyUlIEgiAgpU9HTB6Je883OFc/1bJSdEFCmf5II4Mdt30nNcUPoTqygLbli6iubKrzrkUOnUxo/L0Iog0xYSDWsz/C/tWlUHmo+YvIocijb0Tuf16jtoguVeXRXzbw7vqdx11O5Fc3LANsSsdMsTaajjdH6gBIAoj19cprS4+/ntbdwe2cvTqHi9YcZHVJDaqmIdiikAddiO2Cb5H6nQPWqONeRx7/L+R+c+tt8O3Ulb9L1eE/ozp201aRaMCNq2YJlbl/wlWnJ0CJ0T2wzHq+oQbjmEGFIPU5E+t5X6KMuNYjEk63yufb9jL65c94/JcNze457CxsaLzTJ+74r4PJsTGFIsCpUVu+dJh/uILZK7P56+aGVG8hLAll+mNYz1uAENv3mM+TR16HPOxKz++1hfdjL32FY+9BtB3NlUt13vW46vTeoVLycCynvXnMMnAhJgPr3HkoM57ylH8DHK6s5oTXP+eK+UvIKqlo0bilHdAV29eYQhHg9AxtnZ2bXdV4M7uMvj9m8uyeYmpcKoIgIkamYj3vC5TZLyLEN5RVi13HIY+83rPmrym6H2fNIoyrUHVQW/wgqls/KhUTBiJlNCx3hJheKNMexTp3PmJcP09cBVW1/PPbFYx+eR7bC0pxd+y+VQGHuUfRDow6Aal1a9TWH7umhrTNsPVArZPbt+fzXk4pH4xKJSPMiiJZkTNOQeoxA+evT6JmLcQy63kEJQLytlwAACAASURBVAxNc2MvewNn1Tfe/FOOiercR03+3wjr8jqCqKCccDdq3jrE9Jko4/7h6f4NUOt08eWOffzj2xVUeWHzOMpmbfc1OiOmULSSWnfDN1n/CGPedG5N33vwBjsqHYz9eR8zE8N4fFAyvcIsuk3cxDvQRt6AYNPX7K6aZdjLfdc4yO3YgaNyAdbIOQghcVjP/RJssZ62fACLsw5y3+K1bM4vbpT52B4SwkK8cp3Ohrn0aCUVR6VsW1pwMtEWNDSOnlnb2jmOU9P4Nr+K8Uv38kRmEXl1+t7DEZEAqCt9vl1jtAVHxYeen4WQOI9I7Cws5R/fruCsDxay4XCR10QCYE9x2zqKN0dkBz92NYUiAKlxa42qUuMs3jnSq3Sp3L2jgHFL9/LRwcbp1KqrBceUXkZ15fzhtkeWrueE177gjbXB1cyo+1HFYHnH8dgMVsylRyspdzYcFYbLIlGKSLkBBR9HJ3PFW2QO1XkvZyPf7uby9YcYFGllUKQNl91/H0rVXYooxZBXWcPcDxeyOb/9ned9jSgIjVpLqh3QqtCcUbSSOlVDq18XCPX/jCCrpuFo8uhCNG9yZLtFEMMNuX5LECXdv6G8zsGuIu8XjQGM75bk+dmI05IQRSLsqC5hRR2schRMoWgTmyr0c/lQSSTKIDPVbeUNb7YeYcasf4/MWiQlzZDrt4bSOjtuH3hYbMv3fsMkiyg1MtV1GFAo6G9MoWgDB2r1b/tQSSBcNuYlXHVURmaCl/Yofo/9qE1CQfS94YogNrhBuVUVo1IjxqXpMwqXqmJ3t9+68PdYZclTbLbqQJ7Xrx8ImELRBrbUf9uHSiIRBgnFtqNMe4dHG3OkV+xo+NBIlmNnbRqJeNRMpqzOYVgS1YgU3cfS4Vap9rIXBehLj3CrvvRYn1vk9esHAqZQtIEf6w1wZVEg3mrMfrBLg7Vl+qyif4QxS4+NRy1vRCXdkDGOx9FCsaPAuB6q6fUnEg6Xm4q6trVXOB6hikKERf8/2l/WsrTyYMMUijawurTWs6E5ONK4TL9NZfoHuX+EjUgDZi5HF5xJ1qFev35zSNbBnp9/rW+i423CLAo9YvVeona3mwq794VidGoCUv2pxwZzRmFyNAX10/axMS1rMtwWNpQ3fJBPTPD+ycTG8jrK6v8OydLb69dvjiNj1rncrD5ojFB0iQj19AMtr3NQaff+0qNPXDQA1Q6noTMjf2IKRRvJqtK/mYycUWyvbKh6nNM10uvXt6saH9QnXkmWHohyajPP8B6inOLZF1m4+4DHxdrbdI+O8HhYrjiQZ0iGw4wM/XUrqK7F1UGL1UyhaCOH6tOgU0IUureywrOl7Klq+PAMj7IRbUA+xX9zynDWn36EJNzn9es3hS3udgRBQdW0Jp2pvEHvuCik+tTwhbu9b0BskUR6188osksrcRpwqhIImELRRnb97kNsBIUONyuK9XTgJKtM9zZWkh6PvdUODtYf98rWQUiW/l4f4/eISm/k+j2Rslo7m/Pa6p/ZPJO6d0EQBKocThZnHfT69Ycmx3v2Jw5X1ni1LiWQMIWijWw56sTAyH2K57L0D1G4LBpyTFrhUvnfUXUfSvipXh/j91gjz0UQ9SXbfzdlkldlXG3ExO7JgO5y1ZoO5S1leEq85+f1h4s6YPK2jikUbWRdWcNGY98Ii2HeFAvyKj3f+H/PiDNkjCf3FJFZpe+HWCLORLIOMmQcADl0hkeM9pdW8NDP6wwba3J6F+JC9dne0n3GFL0NTGyw8lt3qMCQMQIBUyjayKE6l2dDMyPMgkUwzsd/dYn+jdsn3Mr4GO/PKmrdGg/t0h2xBcFCSNxtYED9hyAlERJzPYKg5548sWwjtU7jnMwvHtbH87NRx5YDEvXs0lqni7WHWucqHkyYQtEOPj+sJ9f0CLUQY1CaNcAPhQ0dzi9KizZkjC8PV7K7/pRFVHphi77OuwMIFkITH0WQUwBYeSCPj7fs8e4YRxFptTAkuWFZsMKg1OojM4pvDdgoDSRMoWgHCwuqcGsasihwRXfjulh/l19FTb1hzuT40BZZ+beWOlXj1F8PkF/nQhBErJFzsUSc66Wry4TG349sHYAgCOwqKuPCj380tHiqV2wkPesTrb7ZmU1xjfcrOk/u082Tuv1DpikUJk2wr9pBXr1PxCUGfdMDFNrdvLpf92noHW5lakJYM89oGwdrndyzs2GdbYv9mxcyNhXCU95GCZvmueUvC5ZRYrAz9qXD+3oqOh80aB/krqkjAT2Ra+Nh405uAgFTKNpBscPN4Xqh6Baq0DfcODu09w6Ue0xzXhzaBatBNnz/zSnjicxC3JqGICiEJb+IEja7TdcSpERCk55Csuh7BWW1ds75YKFh6dpHSA4P4YIhGYBuq5dV4n2fi4SwEAYn65vLxTV15FZWe32MQMIUinZgVzW+PNxQBGTkMemeajvr62s/UmwKsxONMZtxa/DQriI+PliuNxISLITE34USNouWG6IJSNYhhKe8ixKi9wctqanjwk8W8aMBuQy/5/whGR4jmSV7D1Hn8n4S1LAuDSdQGw8XGZZZGiiYQtFO5h8lFFPijRMKlwbPZDVMb69MN25PxK5q3LDpMC/uLUHziMU92GL/DkJzsyYRW8z1hCU9gyjpG31VDidnf7CQ5dmHm3mudzi9Xw/Pz0Z5b07v2ZDu/spvWw0ZI5AwhaKd7K12sq6+CvPkpAhCDWx3/mNBFYvqS9xnJYZzokF7FaBvbt6zo4BnskqodasIgow1ci5hya8h2UZwrLeOHDKB8JT3sEZd6rHX+2ZXNr2e+i8bDvumqvLUvt0Zk5oIwBc79pFZ7P1lhywKnN6vOwD7SipYndNx8yeOYAqFFzhyTBpjkQzd1AR4eV8Jrvo04VeGpRBrYNPdOlXjzu35XL6+IVlJtvYnLOl5QuLv8dwmiDGEJb9KaOITjSpCb/pmOZd8uohap2/qH0IVmXfnTgf0Ss5nlm8yZJzpPVPpVu9x8c3ubEPGCDRMofACiwqqqas/6ruuR2y7+3Acj6VF1ayrLz/vYpU5z4Cq0t/z5eFKRi3J4rv8SgAEQcESfhIRaT8Smvg44V3/h2wbhiDIqJrGD5k5zHjrK95et9Mjar7g7AE9sUi6cK46kMe2Au87ekuCwI3jGzJXl+/3zXLK35hC4QW2VdZRUv+tmRqi0NMgM1zQe378ac1B7G4VWRS4q28C8QYmex1hW6WdOatz+MeWwxTaXWiahihFooRO8ThpH6qo5uovljL3f9+zOa/Yp3UPVkniX5OHAXq3838v+s2QPI2EsBBPkpXD7Wbp/lyvjxGImELhBVwa3LZNP/ILlQRmGXQicYTDdS4+OaQvd+KsMo8OTDKs1uT3vLKvlCnL9vHgrkJPEhjAG2u2M/WNL/jEwGzLphAFgQdnjqFHjD67+mhLJtsMMpA5un7k2RWbqfZCP9RgwBQKL/HpoQpyapwIgsCtveMNM909wgO7Cimtd6c6u0sk42ONO3H5PftqnDy8u4iBP+3xGLVsyi8mv6q2mWcaw7AucZw/WM+bcLpVXvrVmFMIRRL5+6ShiIJAeZ2Dp1cYswcSiJhC4UUW1ddkRFsk5hq8d5BT6+TKDYdwqhqhssi8MWk+WYIcTaVL9XRJ6xtv7Cbu8Xj2lIlEh+hl6/csWsN2g2YTU9JTPMuO3w7mU2NgQVugYQqFF3kvp6EB7pXdY1AMXg78VFjNgjx9gzFSkXh4QFIzz/A+Wv1OhGhYz7SmEQS4a9pIhtXb8f+ak8+Lq7cYNt4VI/t5fv5os++XWP7EFAov8mtJLcvqHamGRNroFmpsh2uHqvHXzYcprV8nX9ItmssMPp4NJHrHRXHThCGA3tznwSVrDRtLEUWm9ewKwIGyKj7dmmXYWIGIKRRe5tateThUDUUU+HBUVxQDfSpArze5ckOu53j2qcHJjDHAsyLQyIiN4of/Ox2LJOFWVf72zXJ+MfCo8q050wizKKiqxh0//mrYOIGKKRReZkelnS31Xb6GRIUwLtb4D+0PBVW8c6AMVdMIk0VeHZZCiq3jNqoPUWSePHkCsfWnDz/uOcinW4z7hu8bH82ZA/S08NzKapZ1ktyJozGFwsvUqRqv7G1I9LnKwJqMI7g1+NfWPL7N1zdT+0VY+Xh0mqHp5P5CEgQ+vWAWU3vqBjjbC0q5fN5iQwq/jnDJ8AanrPnb91FqcIl8IGIKhQF8mlvh6R16WnIEE3xwdOnU9GXPrnrvy1ExIbwwpAthHUgsZFHgjikjmNA9GVEQqKhzcMNXv1Bt4OlDz5hILhqqC8Xhymoe+2W9YWMFMqZQGIBD1bhlaz5uTSNEEnl3ZAoWA9O6j7C3xsnJK7MpsusfnAvTonluSJcO8Z8sCvDUyRO4ZfJwZFGk2uHkxLe/Yl2ucT6VAvDqWVM8CVZPLNtoSKexYKAjvIcCktWlNeTU6G+qLjaFWYnGVXoezeE6F5etP+TZ3LwgNYpXhnUJ6mWILAo8OGMsFwxpaHt4xw+r2VVYdpxntZ8RKQkMqTenqXG6+GL7PkPHC2RMoTCIGrfGZev0D6wkCNzZN4EwyTcv9+LCav609iDVLn3sS9KieXRgkqHFakYhCQL3nziGG8cPJkSRqXG6uHL+Et5ev9PQcRVR5I6pIwhRZFyqyr8WrqLIAN/NYMEUCgP5rayW7+o3GIdFhXBbn/hmnuE9fsiv4qK1evGYIAhc2T2Glwy00DOCMIvMa2dN5ZoxAz233fLdKuZtMz6H4aJhfZiZkQbAmoMFhrY9DAZMoTCYJzOLPB2qLu0W7bNjSxX4vqCK/1t/CLtbRRQEzk+N4qPRqUFxdNo1Moy35kzjnEE9USQRp1vl2i+W8v7GXRhduW6VJf46frDn92dWbELtoM2HW4opFAazvryOF+qPSxOtMq8OT/Hp+F8cruSkVdlU1S9DTkqK4Ovx3X0aQ2uJDbHyw+Wnc3Kf7oiCQJ3LzWnvf8OHmzN9Mv7tk0eQERcFwBfb97EwM8cn4wYyplD4gAd3FbKzvrnOjIRww12wfs+vJbWctiqbA/WtCftHWDl0Ul9OSTK2HL4t/HlUfzb95TzSovTYDldUc8q7X7PqgLHO3UeYnN6Ff0wa6hn75u9W+mTcQMcUCh9gVzUerbfAB/hnRpzPTyFWl9Yya/l+NtU3V461SMwb241/ZMQFxCZncngI78ydztOnTCTKZkVVNVYdyGPMf+b5rFWfLIrcWd+rA+C1tdspqPZP6XygYQqFj/jkYAWv7tOXIH0jrHw4Kg3Zx5/P7Fons1bs58Ojqlzv75/IkknphvYkOR4CcO6gXvz857M4u7+eJu10qzy8dD1zPlzoUxv8+2eMZmyaXoG7aM9Bnlu52WdjBzqmUPgIDXh6TzEF9clQ0xPCOLuL8X6Xv6fCpXLNxlzu2l5AicONJAgMiw7h2wnduTA1inAfHeGCXkPxwukn8J8zp5ASGYYgCOwtKefqL37myeUbfeoeNal7Fy4f0Q9RELC73Px70W8+9fsMdEyh8CGH6lxcUe9orYgC/xmW4rPciqNxafDUniKmLd9Hbv2+RYpN4c0RXVlyQjpdDD4VUSSRf0wcyvKrz+bS4X1R6l+DhZkHGPuf+czbttenpwyhiswrZ5zgaRr08NJ1hhjzBjOmUPiYnwqr+U/9EiRUFvl0TJrhtnlNsbvKwZile3kuqxiHqh/hDoq0sX5aL54YmESS1buCESLLXD16AIuvOJN7po/CWt8bdEteMVfMW8wFH/2A3cDirmOhiCKPzR5H93q/zQU79/PMCnPJ8XtMofAD9+0s8CxBpiWE8ZeecX7wh9Ipdri5bVs+M1dkk1XtwKVqRCsSN/aKY+P0XlydHkNskxZ7mien4ciH/ljE2KycPaAHS686kydPnsDQLnEIgkBxTR3vrNvJ7He+5rNtew3Pj/g9AnB6/3RP0Vd5nZ17flrj2yCChMDPvOmAlDlVTlqZzaKJ6cRaJG7vE8/2yjq+OFzpt5h+K61l4i97Ob9rFI8MSCJUFolWJJ4b0oUbe8byyr4S3j1QRo274dPs1qDc6SbRKjMw6Y/l9CGyxBUj+3P5yH70io1EEvXvJadb5fPte3ly+UZ2GlyvcTzGd0vm5dNPQJb0IrPL5y9hjwGdxToCplD4iR2Vdp7ILOKRgUnIosDDA5JYV1ZHTq3/qhPLnSqv7S/l2/wqHuqfyPSEMOKtMr3DrTw9uAs3ZcTzVGYRPxZUsa/GiQaeWYAk6CIgAP0SYji5TzeuGzuQpPCGEnuH2826Q4Xc/dMaVhvc0bw5IqwKD84YQ2j9vsS7G3axZO+hZp7VeTGFwo88l1VM73ALV3SPoUeYhV9OSGf4kizKnN5vXNMaDtY6+b/1h0gNUfjPsBSm1/c47Rai8OzgZOpUjSWF1dyyLa/R887sn87Ds8aRGBbyh6XIgp37ufm7lRRU1XrySfyFTZZYfOWZHufwFdl53PnjatzmKUeTmELhRzTg3h0FDIuyMSI6hGSbwlODkrlu02Ecfn7TaugtAU5dlc2E2FAuSI3kvK5RRCkSIZLAKckRnJwUzhFJG52ayPvnzmh0jcOV1SzYkc3HW/awLrcwYOol7pg6kt71Kdp5lTVc/9VSUySawRQKP1PocDNzRTbbT+xFkk3hwrRo6urdtd0B8t5dWVLDypIa7t1ZyG294zmvaxRxFglZFPj9Fma1w0leVS3PrtzEBxszcan+nR0djQDcOW2kx7m7rNbOSe9+zb5S/+0NBQumUAQANW6VKzfkeoq1Lk6LZmNZLa9n+2+j71iUONz8a1s+z+wpZnRMCFd0j2FqfChWSaTG6eKlX7fyza797CwsC8jmOGf0S+f6MQ0Nhv+1cBV7Syr8GFHwYB6PBgg/FVZzzuoDVLtULKLA80NTuLJ7YPboOGx38VVeJeevyWF/vYvXtvwSHliylvW5RQEpEjMzUnn/vBmEWxUc9ZmXH/mhT2qwYgpFAPFtfhX37yrw/P7koGROTPCNhV5HJiMuitfPmur5/ZOte3hhlZlU1RpMoQgwXt5bwuO7i3CqGjZJ5LMxaZwcgOXgwcK0nl35+coziQ21oWkab67dwd++XuHz5K5gxxSKAMOl6ZmbnxwqR9V0sfhwVCpDo2z+Di3oGJAYy0fnzyTSZkHTNDYeLubOH1fjDKAN1mDBFIoARAWu2ZjLY7uLALBJIt+O72YuQ1rB+G5JfHXxyYQo+n79vG17OfW9bwJy/yQYMIUiQHFr8PDuQt4/UIZD1Yi1yHw9Xi8F97/NTGAzNi2Jzy86mcTwEFRNN8C56ZsVVDk6Z08Ob2AKRQDj0vSZxYtZxZ7bXhrahT+lRvkxqsDmzP49+Pj8mYTWzyQW7j7AWR8spMLuOwOcjoiZRxHgaMA9OwuwiAJX94jFJom8OaIraSEKj2UW+Tu8gOL/RvTl+dNOAMCtaizMPMC1Xy6l1lxutJsOP6OQheCfqLs0uHVbPi/uLfG4Lt3bP5FvxncL6g5g3kISBO47cYxHJFRN45Mte7j4k0U+tdIzCtkP5ka/x/8RGMxfesZyf/9EIv1kDuMtVODO7fncvDUPZ71YTIkPY96YbkHRp8MoYkKsvDFnGn8Z35Bx+fgvG7hhwS9+Lz5rL1ZJ5Iaxg3hwxhh/h9LxhSIlROGW3vGsnNKT87pGogT5DOPV/aWc+esB8utcSILA1IQwFk1MZ2S0rdNtcvaKjeTTC2ZxzsCeyKJIeZ2Dm79bycNL1we93+Xo1EQWXHoqj8weR594/2fodnihOEKvMAuvD+/KokndGRHkOQlLiqqZ85suFgA9wix8Pb47l3bz/xvKV0zr2ZXv/+90xtS7Ztc4XFz62U+8tma7nyNrHwlhNj7702y+uvhkxtX/bYFApxEKAIsoMCYmlEWT0nl6ULLfLOq9wfqyOkb9nMVX9a5Y0YrEC0O68NzgZOKatK4LfsIsMrdNGcH/zptJYngIAKsO5DH9rS+D2ngmNsTKX8YPZvnVc5jVO81j9BsoCJoW5Au5dvKXTYd5M7uUYH4RHh2QxF96xSLWL6v2VzuYunwf+XZjjWqtosDqKT3pG2FlzcECTnzrK0PHC1VkPr/oJMZ3S/bc9vXO/Vz4ySJDxzWaoclxfHbhSSTVC18g0umFQtU0tlTU8fSeEj45FJx+iYoAs5MieH5IMl1s+jdRscPFs3uKeS6rBKdB/8WyAIsn9WB0TAg1DhfJj75jyDgAFw7tzd3TRpESqWenltbauf37X5m/fS91Pnbu9hZDk+O4a9pIJqeneDJIA5VOLxRHs6Kkhr9symVXpYNgrAYYGGHljeEpDI6yIdXPLhYVVHHDpsPk1Dq9PmuSBPhhQjoT4nRfzMj73/DyCBAXauOuqSO5clR/ADRN40B5FX+ev4TVBwuaeXZgEhdq5c+jBnDzpGHHdS8PJEyh+B1FdhcL8iq5dVs+la7gk4sIWeTm3vH8q3e857Z8u4uHdxXy2v5Sr45ltFDMzEjl4VnjPN6WAB9v2cMdP/xKYXWdV8fyBaIgMGdgT+6cMoIesZGepWIwYApFE+TVOXl4dxEf5pRRHSiedK1ganwYTwxKYlBkwwnPt3mVPLS7kPVl3vmQGSUUGbGR3DRxKJcO7+u57VBFFff8tJZPgtRsZmRKAndOHcm0nimetgXBhCkUx8GtaRyuc/KnNYdYWxZ8Xa1tosCjA5O4pkcsoE/b7arGi3tL+PeO9k/bjRCKK0f156GZYwmRJYT6b9zvdx/gsnmLg7Ly0yZLvHrWFE7p0z1olhnHwhSKFlDrVvkuv4rHM4vYVB5cU14RPYPz7n4JjItt6LGxo9LOs3uKeS+n7b6c3hSKU/p0428ThjQ60cgqLuexZRuYv20vDndwLQMtkshVowZwxah+9I4L/vwWUyhayb07CvjPvhLKg3D/4qH+iVyRHkO00vDNtrGsjivWHyKz2o6rle+E9gqFJAh0jQzj6VMmMqt3muf2GqeLeduyuPnbldQG2YmGAAxJjuOlM05gSHJ8s48PFkyhaCWqppFT6+SZPcW86uXNQaMRgJ5hFu7sm9CoVL3GpbK8pIZ/7yhgcytmTO0RioSwEB6dPY7ZvdOItDYkvi3dl8u/Fq5id1FZ0NVqpEWF88RJ45naI8XTgayjYApFO1haVM19OwtYXVIbdMepU+LCuLd/AqOiQ5DFht33D3LKeXlfMZvL65qdYbRWKAR0o9sLh/bhb+MHN6qK3JpfwvMrNzNv296gs6qLCbEyd2BPbp8ygviwwE2aag+mULQTh6rxU0EVF6w5iCPIXkpFgElxoXwwKo2Yo9K+HarGmrJabtmSx4bjzDBaIxS9YiO5Y+pITu/XHZvckFxU53Lz58+X8P3uA9iDbB8CYEqPFF4/ayqJ4SFBddzZWkyh8BLlTjdPZBbx2v7SoMu/CJdFLugayZ/TYxuZ+DpVjR8Lqvgst4Kv8yr/8Hc1JxQWSWRaz65cMDiD2X26EX7UdDynvIp31u/kg027ya2oMfCvM4aBibHcPGkop/VLD+rTjJZiCoWXqXC6+dPag6worsEehKXO53eN5JGBScRbZJSjliTVLpX7dxXw0cFyih1u3FrTQhEbYmVqz648PHOsJ+UadNep4po6Xl+7nSeXbQy6PQiAGJuVq0b3565po/wdik8xhcIAXKrGz0XV/HtHARuD7DgVIFoRmRAbyt96xXFCXKgnnwGg0O5iY3kdb2aX8nVeZSOhOO39b/m/4X0Zk5pIt+iIRtfcll/Csys3s2TvIQqqgy8nBeBPQ3vz9wlD6Bsf3eg16QyYQmEwL2QV89r+UrKqHUFZoToxNpRre8QwIS6UFFvjnfy8OhdWUWi0v3E0ZXV2fj2Qz1vrdvJjVk7Qdgwfk5rIv6eNYkqPFH+H4jdMoTAYTdModbp5ek8xT+0pbv4JAYgkQJxF4vTkCO7rl0ic9fiVjqW1dt5cu4O31+8kr7Im6E4xjhBhVXj9rGlM6dEl4PwhfI0pFD5kQ3kdz+wp4vPcilYnNwUKVlFgSnwoJydFcGJCGL3DrZ773t+wmx+zclicdZAKe/D20AhVZC4f0Y/rxw0iLcps5wimUPiFFcXVnLU6h2qXGpTLkSP4oszclwjA0C7x/O+8mXSNMruyHU1gu2V0UCbGhbF3Vm/m51Zy67Y8yp3BOTXvSGTERXLfiWM4sVeqp3mQSQPmK+InImSJy7pFc0pSOLdszWdhfmVQ1o8EO3EhVs4Z1IsHZ4zBZgpEk5ivjJ9JsMq8NSKFXZV2rt10mN9Kg/PoMBg5qU83Xjr9BGJDbEhi5zrubC3B56DRAREFgf6RNpae0IPXhqcwONIaFD06NA1qjzrRiAsNjjYIQ5Pj+Oj8mXxw7gwSwkJMkWgB5owiwLgkLZoLU6N4YncRj2UWURfAuQcqesbmEaJsFoprAjfBLNyicPf0UVw7ZqC/Qwk6TKEIQCRB4La+CZyZEsnzWcV8dLA8oAUjGLhiZD+uHTOQfgkx/g4lKDGFIoDpH2HllWEpXJoWzR3b81lbVhu0+Rf+QBQExqQm8vCssYzqmujvcIIaUyiCgPFxoXw9vjs/FFTx9y155NuDzzvS10RYFZ47dRKze6cRYQ3ejnCBgikUQUKYLHJ2SiQT40J5aFch83MrKHIEl02cL1AkkYuH9uGOKSNIight/gkmLcIUiiAj0Srz3JAu3NMvkbNXHzCPU49icFIs3152GlE2cwbhbUyhCFJiLRI/TUznh4IqnsgsYnVpbVCng7eHPvHR/H3CEOYM7BnwrfmCFfNVDWJkUeCU5AhmJYbz9oFSHt5VRF4n2r+IC7Fx4dDePDRrrL9D6fCYQtEBkEWBq9JjOSkxgrcOlPLMnuKgdNdqDWf0T+fe6aPpERPR/INN2o0pFB2ItFCFe/olckpSOM/sKWZBXmWHO04d3TWRmyYO4fR+6f4OJNlWcAAAEb5JREFUpVNhCkUHZHRMKO+NCuGXohpu2JTL/prg9YY4giQIPHXKBC4a2geLZFYe+BpTKDoosiAwPSGMFZN78GFOOc9kFZNbF5z7F9eOGcifR/WnT3zwt+YLVkyh6ODEWmRu7BXHRWnRXLcxlx8KqqgNgv0LURAYmBjD62dPY0CimXbtb0yh6CTEWCT+OyqVnVV27tiez48F1f4OqUkSwmw8Nns8J/fp1um9KgMFUyg6EbIoMCjSxrwx3fggp4yn9xSTWe3wd1geIqwKcwf24pHZ40yXqQDD/N/ohCiiwP91j+GC1Cjezynnn1sO4/TzamR0aiKfXjCL6BBrh27NF6yYQtGJsUkiV6XHMD42hBeySngvp8znMfSNj+bmScM4e2APLFLHb80XrJhCYcKgSBuvDk/hpl5xXLnhEJsr6nAbPMOItCrcOH4It00ebuxAJl7BFAoTD/0jrSyc0J2FBVXctb2AnFpj8i/OH5zB3ycOoW+8eZoRLJhCYdKISEXivK5RzEoI58k9RbyXU0ahvely9pqjph7H24AUBYERKfHcMXUkM3qlejVmE+MxU9xMjkm0ReK+/omsmdqLs7o0XU+RfVTWZ3J40/4Pr545hQWXnGKKRJBizihMmkQSBJKsMu+PTGVRYRVPZRazvKSm0WOOt5VhkUSuHj2Qa8cM+EN3c5PgwhQKk2aRRYGTkiI4KSmCN7NLuWNbPhXHaVYkCpARF81H588kIy7Kh5GaGIUpFCat4sruMcxMCOet7FIeyyz6w/0pkWE8OGMMp/VLxyabx50dBbNJsUmbya5xsqWijtOS9WXFp1uzOMVMu+6QmEJhYmLSLOaph4mJSbOYQmFiYtIsplCYmJg0iykUJiYmzWIKhYmJSbOYQmFiYtIsplCYmJg0iykUJiYmzWIKhYmJSbOYQmFiYtIsplCYmJg0iykUJiYmzWKWmbeQHZlZnHb5Nce8r3/vDOb953msVouPo2odb38ynweff/mY900eO5q3n3rExxGZBAumULQQp8vFofyCY94XFxuDdlyvp8Cgqqamyb+hqNT3Vv0mwYO59DAxMWkWUyhMTEyaxRQKExOTZjGFwsTEpFnMzcxOhNViISri2Lb54WFN9+QwMTGFohNx7qmzmTx21DHvCw81hcKkaUyh6ETEREURE2X22TBpPeYehYmJSbOYQmFiYtIsplCYmJg0iykUJiYmzWIKhYmJSbOYQmFiYtIs5vGoF6iprWPNpi1YlJY35x3QO4OI8LA/3L56w6ZjPt5iURiQkdFsKXtFZRUVVVUUFpcwoHfjx+cVFpF98NAxnxcVGUG/Xj09vxcWl7D3QE6T48RER9GnR/pxY2krmfuzKTlONWtGenfiYqIByMrOoaik5JiPi4+NpVf3NENiPMK2zD1UVVUf877+Gb2IjAg3dHxfYTYpbiGbd+xizBnneu16i/73DpNGjfjD7bbeQ475+KT4OJZ++l/SU7v+4b7DBYW8+O4HfPbNQrIP5Xpu3/XzQrp3TfH8/sI7/+WWhx4/5vVnnjCRBW+94vl94/adjDvzvCbj7941hV0/L2zy/rZSZ7eTNnYqldXH/vBJksRvX33KwD4ZAFx16795f/6Xx3zsJXPO4PXHHvR6jEcz+dyL+G3jlmPe98MHbzF5zLET3IINc+kRpOzLOcg/HniUUaedQ+8ps3nqtbcaiUR7GTagH5fNPbvJ+7MP5fLvJ5/z2nhHeH/+l02KBMCowQPJSO/m9XFNjo8pFEFGaXk5j//nDUaddg4vv/chW3dl4nK5DBnr6gvPQ1GaXp2+9N6HHMrL99p4qqry7mdfNHm/KIr84+rLsVoC20msI2IKRRCxav1GJp97MXc/9TzVNbWGjzdsQD/GDx/W5P01tbXMX/ij18Z757PPWbdlW5P3zzxhAqefOM1r45m0HFMogoSC4hKuvOVOMvdl+2xMSZJ46aF7CAsNafIxz77xDiVl5e0eq6SsjHueeoGmtswkSeKvl1+CKJpvWX9gvupBgqZpqKrq83F7p3dnzkmzmrz/UH4BD7/4n3aPs3jlagqbOL0A6JKY0GE2BoMRUyhMmuXy8+Yc9/4vf/iJsoqKNl/f4XDwyEuvNnm/LMv8f3t3GlZVtcYB/H88nMOgTKIgAsoBZR6EI6KIGAoPgiQSGSKEZJoE3KtZeJVS7ILXWUPTSAotQVKvkkN59WKZRlqWQwkYDgwKgkOAzJBxP3QztbP34cwD7++TnHex1noe5GXvtdd+10cbV4MnweNnIl+0j0IOPJwdcWpfHvR0dVUyPofDgaX5YHi7ueCFqaGY4CuEpbm53Pr3E3ohLDAAn395SmT85u067D54BEkvzpKq/+z8PSgpv8YYD57gh/EiHiUT5aFEoeH0dHWRmboQkSFBsDQfrLB7+FVLXsfX587jQUuLyHj6hi2ICJ4MqyEWEvXb0tqG3D37WduIu6Ihike3HhrsmbFjcObTT5AyOxZWQywUutBnZ2ONyePHMsabW1uRU7BX4n6Lir9BeUUlY9zL1RmhEydI3C+RL0oUGioyJAiHPnwPziPslTIej8fD4lfnsbYpOPiZRH12dHYi+a0MxkVaHR0dbM1Mp7UJNUCJQgONE3pha2Y6+Hzl/gJ5uTojdvqzjPGqmlqs3PIeY/xpOQX7cL+hgTE+frQ3XEYqJxESdpQoNIyl+WAcyc3GQBPV1L5MjJsJfT09xviGnJ24ebtObD89PT3ILzzMGOdwOEhJiFXZAjF5EiUKDZMyO5Z1A5SijXJxgr8P8xOItvZ2fHJI/C3I7oOHcansCmM80M8XUwMnSjVHIn+UKDTIQBNjvDIrWqVz4PF42LBsCetVRfauAjQ1NzPG7zc0YumaTYy7MPl8HhbOmU27MNUI/SQ0SHxUhMgaFsrmILDF9JDJjPGa+jtYsy2HMf7ZFydx9z7zLkz7YcMw0ddHlikSOaNEoSF0dHQQpkaX4i/NiGKN7z96HPX37v/l866uLmTlfsz6TkfWijSxBXqIclGi0BD99fVhZmqq6mk8EuA7GoHjfBnjVTW1KBTxZumuwkOsuzADfEcjgK4m1A4lCg2hp8tX6SKmKNmr3oZhf+ZboRWbtqDu7r1HXzc0NWHbx7tZ+5wXw1xVi6gOJQoiNeshFvAfI2SMNz5oxs59Bx59/dW351B27QZjeyd7O4RPUp/bK/InShS9pK+vBwN99fqLrmpcLhdpyfNZ2zxesSptzSbWXZj5m9eBL8fqVWVXr8utLyZdXYqpLqZuKFH0ErdfP3AZHtdV19Siu7tv/Id5mo+nO6LDQxnjFTdvYd37HyKv8BBrVe8xnu5wtBNIPL6jnS1jrLb+jsT9SapajnVK1Rklil7qb2DAuEbQ+KAZ5y8zl3DTdqmJL7PuoFy2PguZW9iL26QkxEFHR/KXmW0eqzL+tNo7d1FylXnhVFZXKyrxS5Ps1b00ASWKXjIa0B+GA5jPaFiX/aESZ6NeHAQCjPF0Z21TefMWYyzA1wfTgqSrhekq5qW4z098JVW/vbF8w2aF9a1uKFH0kr6eHoRuLozxouIzrAt12ozP5+GdFW9K9V4Gj8fD8gVJUl1NAICbkwPMB5kxxg+f+BJdXd1S9c3metVNFB4rknu/6ooShQRSEuJY4+IKsGgzl5H2eD4sROLvs7UaCqG7q0xjR4Uy1/Q8f7kUhcflVyn8D3s/Oyr3PtUZJQoJjPZwg5vjSMZ4dv4nOHpSdLm4vmBONPtuzadxuVxsSl/K+t5Ib0SHhzL28euvv2L+knRcuS6/q71T357D+vf71q0mJQoJJcfHMsa6u7sRtyAV5TcqlTchNeIn9IKfN/M5IE+b5DcWQf5+Mo87ytUZw62ZFzU7Ojsxd/FbMo8D/H4ma8LrS5Vyroo6oUQhofCgZ1j/Ara2tWNK/FycKD6rxFmpj5x1K2HEsuj7uPmx8nkTVk9XF6sWL2Jt8/2PlzFuevQTO0UldaGkFOEvJSrlsau6oUQhocEDB2Jb5nJwuVzGNrX1dxCdvBCFx4rQzHDStbaytRqKyf7jxLYT2FgjJGC83MYNDQwQu0ZyoaQM/lGzcPbCJYmOYWzv6MDZ8xcRnpDIWkNDm1GikEJMRDgigiextmlpbUNMyiL4R83Cjr0H0NHZqaTZqRaXy8WiuQli2+VvXi/3WpjLFyaLbXPrdh1C4+chcOZsnDzzLWvbhw8f4uCxIgTHzsGkmATcb2yU11Q1DpXrl9LKxa/hQmkZKqqZ9wcAwM83KvDqmyuwbH0WJvuPhbuTIywGmSFkoj/MzZgf62kyH093RIYEMT4+HO3hBjcH5kVhaTkIbLFz42okvfk22tqZ1xDaOzpw7tJPmBI/D64OI+DvI4S7k8Ojw49b2tpwqeQKvv7+B1yrrJb7PDURJQopCWyscTwvF/7PxYisu/C0ew0N2HP4KPYc/v2xWlHBTq1NFACwNHk+jp8uFrno93L08worDDzz2TBU3LyFtze926v2JeXXWF97J7+jWw8Z2FgOwYHt78LWxlrVU1E7jnYC+Am9/vq5vQAxEVMVOvbi+S8j/bUUpVcp12aUKGQkdHfFwQ+2wmXkCHA4HFVPR23o6vKxZmkq+I+tQ3C5XGS+sVDhlbW5XC6WJr2Cd/+5HKbGRgobx2KQGUyMFNe/OqFEIQeOdgJ8uecj/E3Mzs2+xmWkPSKnBD36erjVUAT4Ku9E8vioCBzOzYaPh5vc+54WPAlf7cuDg91wufetjihRyImxoSHWpqWi+EABQib603kU/zd35oxH/16+IAnGhoZKHX+0hxtO79+NjcuWwNPZSabK3lwuF2O9PPHB2kzs3fYObK2t5DhT9UaJQs6E7q7Yn70ZF44W4sXnIh6tpPdV/j5C+HmPgu8oT0Q/G6ayeSTFz8Kpf+chf/M6eLO83MfEz3sUivfvxvG8XMRFTlPADNUbPfVQAB0dHQhsrJGzJgNr01LxY9nPuHL9Bm5U30R1TS1a2tphynBvGzxB9CYkU2Mj6OvJdpUyzMqSsX+hu+S/PL3B4XDw8TtrUV5RqfI1HF0+H5EhwYgInoyrlVW4cr0CN6qqUVVTi+tVfxbV6dePA4GNNRzsBLAbZg0PJ0cMtTBX4cxVj9PDVDedECJWwIxYfHfxJ5Gx4/m5CBijvDUZRaJbD0KIWJQoCCFiUaIghIhFiYIQIhYlCkKIWJQoCCFiUaIgRAYtrcyvs3OgPe/+UKIgRAY1dfUiP9fl82HY30DJs1EcShSESOmL4rNoam4WGePxdGCgZqfPy4ISBSFS6OnpQeq/1jLGBxgYwILlYCJNQ4mCECmUXmWvjOU8wq7X1cg1ASUKQqSQtWMXazwxLkblL8HJEyUKQiS0q/AQCg4eYYzbDx+GsMAAJc5I8ShRECKBk2e+Q2rmGnR3M58LkjAjUu5HEagaJQrSZ7S0tsl0Uth/TxdjSvxcND4Q/aTjDzHTFFs8WBUoUZA+4buLP0I49Tl4hU5HRtY2iU4Kq62/g8S0FZiZwn5sIZfLxfbVGbC2HCLrdNUOFa4hWq+mrh5BsS89cVjTkMGDsDJ1ISb4+sDMxBj9DZ7cHNXU3IxfGpvw6bEirNq6HQ9aWsSOM3XSM9izdSN0dLSvcBwlCqLVLpVeQcTcJMZbDhMjQww0McGA/gZwd3TAvYYG3L5zFw+aW/BLY1OvEgQAWFsOwal9eVpbMo8SBdFaJeVXEZ28CNcqqxQ6jsUgMxzZkQ13J0eFjqNKlCiIVqq7ew8TZ8ShqqZWoeNYWgzGfz76AI72AoWOo2q0mEm0ksUgM2xfnQEHO1uFjeE/RogjO97X+iQB0BUF0XL3GxqRmJaOE8VnWU84l4SZqQnmvBCFjDcWyKU/TUCJgmi9hw8fovj788jI2obT536Qqa/o8DD8I2kenOwFMp06pmkoUZA+o6enB9/8cAE5u/fiYtkVVN2qRXtHB+v3mBobwdbaCt5uLvj7nHg42mn/bYYolChIn9TZ1YWurm6cv1yKsxcvoeZ2HUrLr+G3336Dn483zExMMGaUBzydnaDL52ndlmxJUaIghIjVd26yCCFS+x+LmxtUE+8swQAAAABJRU5ErkJggg==;" parent="1" vertex="1">
          <mxGeometry x="327" y="387.66" width="36.68" height="42.34" as="geometry" />
        </mxCell>
        <mxCell id="6ND3VzIesLsBvpKnC6EB-76" value="" style="shape=image;verticalLabelPosition=bottom;labelBackgroundColor=default;verticalAlign=top;aspect=fixed;imageAspect=0;image=data:image/png,iVBORw0KGgoAAAANSUhEUgAAA+gAAAFcCAMAAABsuWScAAAB11BMVEUAAAAAAAAAAAAAAAAAAAAAAAAAAAAAAAAAAAAAAAAAAAAAAAAAAAAAAAAAAAAAAAAAAAAAAAAAAAAAAAAAAAAAAAAAAAAAAAAAAAAAAAAAAAAAAAAAAAAAAAAAAAAAAAAAAAAAAAAAAAAAAAAAAAAAAAAAAAAAAAAAAAAAAAAAAAAAAAAAAAAAAAAAAAAAAAAAAAAAAAAAAAAAAAAAAAAAAAAAAAAAAAAAAAAAAAAAAAAAAAAAAAAAAAAAAAAAAAAAAAAAAAAAAAAAAAAAAAAAAAAAAAAAAAAAAAAAAAAAAAAAAAAAAAAAAAAAAAAAAAAAAAAAAAAAAAAAAAAAAAAAAAAAAAAAAAAAAAAAAAAAAAAAAAAAAAAAAAAAAAAAAAAAAAAAAAAAAAAAAAAAAAAAAAAAAAAAAAAAAAAAAAAAAAAAAAAAAAAAAAAAAAAAAAAAAAAAAAAAAAAAAAAAAAAAAAAAAAAAAAAAAAAAAAAAAAAAAAAAAAAAAAAAAAAAAAAAAAAAAAAAAAAAAAAAAAAAAAAAAAAAAAAAAAAAAAAAAAAAAAAAAAAAAAAAAAAAAAAAAAAAAAAAAAAAAAAAAAAAAAAAAAAAAAAAAAAAAAAAAAAAAAAAAACOhdawAAAAnHRSTlMAAQIDBAUGBwgJCgsMDQ4PEBETFhobHR4fICEiIyQlJicoKi0uLzI2OTo7PD0+QENESktMTU5QUVJTVFVXXV5gYWRlZ2hpamtsbW5vcHFyc3h5fH2AhoeIiYqSlZaXmJmam5yhq66ytba3u7y9vsHCw8TGx8jJy8zOz9XX2Nrb3d7f4OHi4+Tm5+jp6uzt7vDx8vT19vf4+fv8/f42Ism3AAAcfElEQVR42u2d+aMsV1HHOwlEidlUMEGMC1oqsqiAorhjRRM0gisYRPSVCyqCGhM0pZIgakSTYHiSxNQf6w8zd+7cmV7OUmfpnu8n28u8d6dPnz7f862qPn16GAAAAAAAAAAAAAAAAAAAAAAAAAAAAAAAAAAAAAAAAAAAAAAAAAAAAAAAAAAAAAAAAAAAAAAAAAAAAAAAAAAAAAAAAAAAAAAAAAAAAAAAAAAAAAAAAAAAAAAAAAAAYBwiImYWERHd/yUizMxEROggANaucBZVVZtGVVUYegdglRpnllmBnwtemKF2AFZDrMZvqh1iB2AVIrc8IHYA+g7Xs0UOsQPQucq9RH4QO7QOwMZVDq0DcBkqh9YB6AYWK40wuhmAlmYuajWArQOwZTM/snVIHYAWMlerCyJ4ADYv810Ej44HYOMyh9QBuAiZQ+oAXITMIXUAqshcrD2owANQEupB5pA6AGXt3LoB8TsAhexcrScUpg5AX1G7qu42g2TawczMIqo5k4fgqgDgHLWn7w01u/MjEWXsPIX4HYDGdh612SMRS8oDMijKAdDOzhN3gkrYiwqmDoATUkPkyWJHpg6AR9iu9VSepHWU3wHID9ubbN0ap3WE7wDUCtu9N2iO2YoO4TsANcL2Mns9he9UhfAdgOJhe8G9X0JtHUoHoKzOC9/LDr2Hj0QdgHLpeYUlK4FSR6IOQCF1VVqZFtgYXDUAIqWlfS1ADZI6EnUA3HVeeZ15iNShdAB8dd5gkXlABR5KByBc573WuAPuA0DpAHjJqdnToQHxO5QOgIvOmz4auhy/Q+kAOOi88V2sZVOH0gHI1XkHOz0smjqUDsCCX65h76ZFU4fSAcjReS8LyhlKByBd57qWu9TraSkAK9N5V2vJF8J3KB2AKXRVz4EKnnABwFs5He6rzFA6AM467zEUnk81oHQAIv2x05R3XunYcwaAKJ33a46Cm2wARHjjWoNgQekdgGC0Y50TJSsdFxaAQLU0T3VVk9uOghwAYQl6+5KWLLSBUZADIDNBly6aR8lKR5oOwHKC3oUj8tJ0I0jTAchI0DvJcXXJmAVpOgDJCbp008SllgiCdwBmM2BdgRkuWvqM0nE3HYBZhfQUdSwVC1YxXwHQX+DekxPS8qwzo3TcYwMI3NcR8S7H7jM3CVF5Bwjc12GDHNAeRvAOQKQ2Ogt3JaRBgso7AOMR8Uo8UIO0KgjeAYgw9N6EQWEtmq44oB4HLhfqItTlABFyoFIJN9MBCI50q/qfTKUJJKrCEZH7XIyCehyAoTcVhcqsZpWCI/fZyQuWDi4U7SLMpYl5hY6aI+ExxmSaDksHlwn3UbiaEvq1NTPFFAcZ9TgAAgy9ivVdv5V1os52pFeVKJFKjTsJRETMzHKAmZmJLjVDGO8QKtghRFfH5Ku+v9zuT3C+OoH7dQVuVMUnr0CP0uhk8O5i6cQsojq9sF5VRZgpadgeyPrpmj8c0iEiwn4SJGYR0fFDqu4OxzTkXYAIVmrodSJcORTHxoQuWZMPF7J0YhG1UFQkZrRxTlRFWeepqUXL2A5JkF/6ASP7nyyR9KmlraFLrcPzYZhxQPDNcbOI/xxGrCmjIPjyNxS6JAk9qUNUkvVALFrweMlCdzm5BoZeqamH+hqd3yIfnYPEYXbWuiqP0vq6HD2nQ5LkwJIuP6ok9IijtTd0rjfR0FUHU9AcpNTq7Egyr37IxV+To+d2iEZKPWdaCX0TsJPQu3vvsLZe4y77wXwudHKoEjqeXrbMw6S+Hkf36JAoMWTKPOx4fkLvSuqNDJ2Oha77lmhg22KU7nd+DqMs6MircXSnDgm+mORzvKWp1lPoHT1aoW0qcaxHt893Q+pc6EGb2BHz7MMw4nSC4nbtZRuO7tchnDVle9usr9B7WYjJrSpx15U32l9pOZv9dLH36Ko0Mz1NO52hVJvlV+Lonh3ClS8A1xS6dVGVk1az0FFGvo/d+Wxg6sK1ItnflBWdmaddTlHrxXPrcHRx7RCuqvP547kLvYfwndrdWpPDUfZWTnp6AebfeE56dA+DdXLmJIfel4CFEsfo3AKxBQWuwtG9OySucDF6xMMxd/+TrHR/oXeg9GaGfhyq8yF2Pxlc86PpxMRJbfGhmNRyHE+v6Zxc1E5EzJrwGMEaHJ3n1ryNdwgREctUhyxIgeZWvY0dcbf4ffJwc8ejsTkkhMSJvWUprsoERLrvbtoPZzod1xxXU2Edv36U2/nj5d6wVds0scCD1uzoox0SthyMJm6FS/w4DTrg1DI6Ce3CmLXuPLlmr3FFjpu2iq4mVj3896bPLsVrZ7G6lLF0yVvpMTq0dc2OntshY3KgyHEaUeIanWupTBdOzextb6hL08Wvh/Kb7C8bn8RU5JT7UN58RvnrIEakzut19PwOGVlqI1GGHlnJHjmeBp5dioNJZ8F7kACunvTdFzpEd3+LHj18vX8EOGWikat2CA3D1dGJdnnXYqlVcya00BKJeNwvkeCB3b+js0OHnEf/oclMWnGLg49HDgIl7crSecHQZ8sZo6XPnfLDNS+7mI/2w0XMzA7PHyovr5HIWmvBKcM/NbPh0IHWv6O7dAiFf4vk6zziePmOPjqxt7R0nXfJjFuXuz0XAgSve0Xv/ht/t1pczjRKoeJ06Xmtjk4+HXKqPA3+g1T0eOSjT+7H0mne5zyWFl8JfqlQlXwoSez1iGKEeN0TDRxo3Ts6O3UIJ4U46SWkwO/xcfTzw7WzdFmwObfFxYfbncE1aW+hT0xanKBP9ppYpwTSvaOLV4cEfpF43RMKOx55yVMa1bgD41kZSij9an3J2EY7OVJnp0kteI5Qv5m1P6GHObpbh1CYgsVLL2HH83L0s4i5VexOy+Gst9Kv7f3E3VOlLo4nG/aTOVeLg76qd0c/mfnEzWok60/FH08LO/rp9W61aIYDpFNG6UerJfOkHnFbJzl2Z7/460Qi/Qk9yNEdZz4JEp5WPp6Xo5+5S1eROwclt55yv1J79KQStzlJauzOjhUVCdFw747Ofs9rcILwyE95VKALyyQd/pH7+XUTK85uP95ooVP+6QZ8hziGX0GO0rujO858QcKrfTw/Rw/M1TqI3LPy5+hKXan8fG7C4qpC586FHuTonh2idYU+hGQBjo7umHX4Ff+n20JiHRIbM3LibCGO14q24OjlhM7+/ZEtdHM8XpNq3HjyPaGeSqZeLnCfPmGXsZEoQ+pN6AmOzsWFVy53Ku7orm13TdElzv/X4+eTp0Aug38jQpfaQpdoR+fKQs9zdM+0o3jkXqf8HlBjv44rkrbL5rQk3VXo8Tnpth1doh29ttB1k0Kf37SwsdT56vWZie+1ioxhygsdjr4Coec5OrUXekrG2jZ+lxanDEe/8NBdVy70tDi2af09u5vSknQ4Ohx9c0IP2GvPWeqHV0rTYhEgu5soaXKDo8PRVyx0SZaS22Pqp/v0Lq2My94cmzQlI4Cjw9FXLHTNyIITq3JHO01FGK6j0NNmNzj6hhz9ZHvm7Tt6WhSbIfWQPbi1cOiecKcBjr4tR0/QxrqFznlCj5V62KbfXFrolFKYgKN35ehSWei6QaHHtSO8LLe4vIWImBYtXQoJneHoK3L02kJfuaOLh5ICt4Ba2B2C9jtKqyzs7sxtThuODkdfr9DVyTJJZCmzpvAUYP67pJDQFY7etaM7bvFzcY4+fqMp8ZrxjNgXovbITD/7GnNXQoejp9zu4rpCX7ejJ1Wl5qP4sVe66HzUHr/4RkoIfeG84eithV75oe5NObq30Pc1NWY5vC168a3CKbfjlaqfNxy9sdD9Nta/PEd3KLrPnt5Asde4kqknpCxw9NZCF+8M7nIcXQoVu3KrBLt2THy8jwCUafe06i5w4NInDkdvLXS2qkrfkqN71uIck+Wr23FTxXE+qfqpxj6b3pXQ4eiB36VVlb4lR28t9Pkb5jTQsaKvqnwyXN2614l3OxXJWeDozYXOsWsz4Oh9CF0Wt5IZiOUw0vnGPE5M5DvDtBI6HD3wu8byvNR9hi7K0ccT5FrvkVi8q6Y3xrsctCbuFzEkEoSjNxf61Gt2JGfOvwRHL3N3Lb8Md2MS5WsZsltqlnDmcPT2Qp95CkI1LYm7DEcve3ctV+c7AchRyq67TD0/M0uIZeDoHQh9ca8CFbdYfkOOzu2EHrI/zYnQeRjYTDn0sfb46gQcvXdHD3sxn468kPuiHZ2b3UYPu143x4DsBMIUvoWFZxkSjt6D0GNewXnyQm44en2hh10tuTnoZDcgZKDDffR0rUtHQoejx3xX7Mt2k90djl5J5/vrrcfdQ7qXxeHpGeHVCx2OHvVd0a/VPqypombibPymlvjRXlPnuwF2pAnaNfnQQNpZe9J7meDoa3X0nK3GVSRc7Z6O3vgli9xE6KE619Pu5t3/3uwmYuYqpw5H70XoeW8FC67tbOhtqk2EHhx58ZjQB/GJfOKzFjh6P0IP3b1sWuuVHb3x+9FbhO7BOtezPy9XjXZYMdOT0OHoKd/FkqP1AKk7OnrtzXE6cPTwSgqf/YAOfkqHo6/a0YergmyG1ClOnY6jrbrQpfoK2HCd6/lPXAmCHZQOR3d3dEonfdIglrHNy2KspIKja5unSdo5esSdERoZTnRUi6HtCH0Tjm6aQ94Q3O9d5rxLkZ+jU5NF5g1zdE64BjrWNMpWOhzd2dE9SRuCuw2H4vYTruPo0mDt6fJoLxdXUMoV0PEeksyGwtG9Hb250A/BfITctYajc7udXZo4esx7lmlJ6APniQ2OvjlHP7X3oORdyjv66bjX6il65RxdU670jV7Sm/0nGxE6HL3YEFxO3oMfiXWz0/qRe11HjxgXMtHbJ4qAo8PRg+19Su7T/urk6Fr1tlZ7R495vHCyt6nhqcPRVyv0vdol7k2DLo5+nq82eMNiTUePKcTR5GjnTQodjl6tTCQR1WcPR+fK61Tc4te6hbih3Lty8fTapTn65ECUUo4+uiC/QYZeU+iSqPOLEDocveb9JwnN0vO6cGJ9rtKmhc7JF1kK5TcKR79IRx8bjBzUhUxMxLT7Z+5fPHcjn4ctC53Sr7EUSnCwC+ylOvp5wzl71PZyZlECLFAVDE/QZeFHNyn0bTy9RjlIVTlo0IgvIHQZOhK6f1mQMzqi0Duxu3qBA55HH+oKnYLyZtqMzisJnXI6oqbQFY6e4egrEnpYnEgbiduHWu9e0wydn7bQa07E21RX6Oh04y/Hy881hN6m3p5cey4YuEtAZ+sWhQ5HD/ouPn7kPfMJt+pCVxmGbQudshIYKhRuJNxvgKM3Frrj8U76v7zQhZrqfPwOiZQ/RPBRuZDQpSehw9EDHd3veFWFrtxY5jVupHOWzs8F6RRuJIQycPTtOHrQd5FTzN5c5UOF16mGrnGXUEFywWa1EjocfZtCd3yFc5kE2rFxkqdzLhRupJw3HH1DoXuC0IM3uhQREeb89zYXN1wuPJGEq1cKCZ0T7n/A0S/a0bUj2fZXdpc8nXOpvEISUhY4+kU7uq5a54XL7pyn87FpyGdiTTltOPpl5+gbFLrb5BVUieO4eYKKNayZ0OHocPTScMlqXIihz7zcvFwBgVKWIsPR4ejrJWnIO1bi5iJxKda2pOnNVejWt9BX4OhSWegrd/SkINavEifx8YCUaplG9RTXFrpmzWW0AaFLU6HbFoXuMntRTno+neBLq9lNygl9gNArO7penKNLsSfqJCdsn07wtdQUFCf0vHEWpGFyFDrndBCEvgFH51KJMOWE7TNrZ7XUOVPfQo80ZfETug49Cj1rHATd9diWo1Op+FjyHsOfrthTmaYtRjGO4yxs0vAUuvjPQ62r4OQ36oN2mFm50Esl6Zxj57PzRHa0QWmnzI7jLKiwRxnlP9KcCyprEDq7jU69BEefUBQVmT8iagBaUOhpU0+xcTb5VZpuynnP8YcduPpWUuoWdUpC6rR2oXOR2J2z7Lys0BPvz5Nf0BO4WX3GnvZZz/EHTmmNhZ5xAcjiU6fVOzoVKXlplp3PlvKy6wfqE2SwV5dPHjq9cp73Dk/pVOjidQHCOnZjjj6hSdddNsOWvFYSenL5UbzmwtD8mZMPKDmBEFlKwFFB6Ox0AcgShL56Ry9yg23S0EP31ZkRem6PJ6+sZacZR0IPnbzXNWWtjQid0Opv91zmAoS9ZNE2KnT1/8qYvTALCj05gjmLh8Wncyh/SlgK3GNay6EHrf8CB3G5AKHfsjVHJ//YXXOi9kWhU6t5TdInrpkv0Yi2csYFDZRF+DxUX+jskcYF1ym35ugTsaw4a0nj7gPPFO2p1dlS5kkNw8AakzRQyt6YrBlTJEXMQ/WFPlJjpOwLoGGXe/2OPuVx6XrSrKi9rNAp5ztlbP4Kbw6NaVDjDrg0tdDsisSlqxA1DzV495pkDiyOqVJWc/Q777qzZezOjhNHdIxLqc+8FZ3VJgr2QVonlviNNEaratOHo7OBLKeFJyHymocaCH10qGrYfqtEoxdAAzu/nKPfUUvo3rG7eqSyWkjomnWuk4/UiTBNDDciYhFNu1k4MS+dH42IRUfC0pF0Q4XPf3hiGprr7BZvU+W5/p/R+FjnLMVy1Rz9jjvuaBm7p4bI7JIDFBI6ZZ7qbGB8tae3sAjvfqWq84uB0/vhsIW46ORRaHKquP5hmWuiDH0Jfe4C7E+Jj9l3T9KqjIo5eiWhk3pauuSVq5YvqN8i54SLGPwO6CCWJ8Gs14XwXBSS3b4270f3vQAS3vXDBhDHchx5yLyU0Cn7G0mr6jxLpxwQhWS0r43QXZUu4YNFtyB0coyRxUPms+NbvGe0uCRF/IYZZfbEvEo5e66goUOhe16AGFVsQehTK1yy5gwtUB3PnFvJ5Ty5yjDLDSKO3Zi1RLzRSuhuF4Bj7G8Tjj41SXL6N+VuO1dkDSz7nCZJNTtPPp44f0NPQq90Abbo6OQlKUq/oRZebvYOXOIbmz3SJE4XsZZ8fkr539CR0FNjlLh5douO7mbpbF6vfhd/oXvuFE8ZQy2lg2ION5o0RTU4aB5qKfS8uTbsAmzR0ScXIsR+T9ya0EShJx5gKtdNHaIsmjTIEjso9HCTIiUW13mordCn1xp6XYCT92ZtQ+iDjwhYufDUkyF09s4EdmMtfLBpsshDj7Z0gEVtqIQnFa2Fvpv9osSuwskbcNA2hM4uonLsDPJ+qsXb0I/Uw/PLr1RVhH0iHWIeP1boLEIsMvHzErZo/KgpR1DuaSV/12SXnJ5dbBtvtIm3ofNyMihQjUsbU+IbH5z3IBEdll3ul8IyMxH5e8H+WNeHiTzIyI+v3bB2XSJX63r3f4tIV2d39/t/7y+/9NJrL33prz7xgbu7Kse1i1jEV+hkvc1k4NJ4+FMvHo28Fz/1cJMZscDK8kJJOnnOG4TxB6pw/5Ovnoy9V5+8H5Y+k6Sz47QhGICgCu953szs2U+8/5H77vrWR37q958zM3v+3f0Iq9V9hemVnylC18IZOgCz/OLrZvbZH77+4I73fcHMXvuFfiy9VRYrjkKHoYOmPGFmL3zw5MMPv2hmT/Rj6Y1cj/2E3tupgQvjZ94we/qtZx+/9RmzNz7cjYU2sr3J2J3XfmbgwviB22ZfuHfkN+79a7Pb39+LpbcK3t1yCYahg4bc9UWzZx8YhmE/7m7/+1987Nt2v3X/s2bP3NWLshoJwuuOHykMHbRN0L/+PcO10M3MXnl093uPfL1Bmt6bIsSnNQJDBw15y1fNPjqcCN3st3e/+zGzr76ldpO4r+Dd57nSzk4KXBofNfunN50L/f92PnPXl66mgR4svdGyGY/tack6WyAALox/NPul4SD0YRjufugj/21mnzkY0T/04qGtVMEOQlcYOmjJO8xeueeG0Idh+Gkz++fdL+/9X7N39JIWt0rTNbspnZ0QuDh+1exPhlOhP2Bmr+w//TOzX6neKt8V5mUsXXK/AE+zgHr8sdnjZ0K/x8xe3n/662Z/VL9Z0pcyNPN9C4bAHbTlabN3nwn9I2b2N/tPf9Ts6V6i5WZ3ozhL6NPFRVTiQCX+zextN4V+7w8++ZqZ/ez+04fMvtJLtNwuq9WcdigCd9Ca/zF7y5HQD/zB1R94wOxrLRomXSmdM5rR15mAy+R1sztHhP5bhz/wJrPXWzRs5hVA3MW8k/s2cwTuoCJfM7tnROgvvPfI0V9u0jK2npROqULv6zTApfIVs+8YC93/69v3nz5s9q9tmibWU24raTIt8z5WACJ5yuy9R0IfhuHO7/z4N64Xuw8/ZvZUo7ZpT0qnJKEXeUsjANF8xuzXbgp9GIbfMbO/23/6hNkfNmobZb19r3QqwXlngIo7qDx8//RM6N9tZi/sP/1zs19u2Lh+lH5aHeQ8nSNBBzV52Oz2t5wK/W4ze233y/u+YfZQs9ZJT0rnWKXO3DhAgg4q88WDYx+9lfX6l4+bPdOucXNSqa/0yHfwzTYeAw/U5VGzf3nzmNDfPAzD8KYvmz3asHVzwW91pVNUjj3XdCTooDbf/ILZb4wJ/cFhGIaPm/3HNzWuIfQjF4k4+GzDkaCD6jxudvv7ToT+spn90DAM33vb7LG2zZOeBKPBQp/VORJ0UJ87/95MHxyG4datW7f2n/3mrVu33jMMD6jZU3c2bp92pHQKTRygc9Ad73zF7G/vG/mN+z5v9so7WzePtCPRSJjQZ8MQFOJAGz70htkzbzv7+G1fNHvjJ9s3b7aqVVvpGiLXeZ2jEAca8dgbZv/5EycffvhFszce66F580qvKxxaFvp8CIJCHGjHz79mZp9919En7/u8mb32c300j+eVXlU6shRJMHQOuuVHdu9H/90ff8e9dz34XR/65HNmZs+9q5fmzSu9rnh0Xug9NRWAU+5/8tWTIfnqk/f30zyZl49UDN/3kfm4Ykmgc9A3b//0S0cj8qVPv72r1i0IqGb4TtO30RfCdtxYAz1w9wc++bnnX3795S9/7pMfvLu3xi0ovaaGeKoE2FEbAVgpSyqqWH3nUc0uVNuhcwA8lF5RSDRSFOioeQBsWukN16IsZefQOQBuSq9afr/h8AadA1BP6driBhYbdA5AXUlVl/py1I775wC4K71uqk4BMofOASig9HqpekByDp0DUMpC60g9TOZ4LhWAYkovL3UOkjl0DkAiYQorW5bjsOkG5XYASivdlMvYKYXKHOk5ABX81Ez8pcah8wz2bwegSqJuZqau2TpJ+JEFOgegUvjuqfUYlSM9B6Bu+L7Tema+TixxB0R6DoCPv1ocwpQmdiKOPhbCdgC8TN1iUeVIZydm1ejjwM4BaGjq+zA+yNuJWERTDgA7B6C1qR+8XUWY6VTxRETMIqqa+s2wcwD6MPUTyauKiopqurxh5wCUNfVsbToCOwegu/jdHcgcgJ7jdxcQtQNQWOoKmQOAVL14cg6ZA7B1qaMGB8DmpQ6ZA1BZ6vXLcgKZA1CdyhV4lOAAaCX1WhG8QuYANJR6lWQdMTsAW9d6qY0nAQBxcLEQXmHmAGxc61A5AFvXOspvAPSbr7uIPXuDSQBAYa1nih0iB2A9zp6idhWGyAFYodrD5L7fVQ5dBsCKQ3lmETnbJU5VVUSYUzeBBwD0qfkboEMAAAAAAAAAAAAAAAAAAAAAAAAAAAAAAAAAAAAAAAAAAAAAAAAAAAAAAAAAAAAAAAAAAAAAAAAAAAAAAAAAAAAAAAAAAAAAAAAAAAAAAAAAAAAAAAAAAAAAAADA6vh/HI3ym8c42+cAAAAASUVORK5CYII=;" parent="1" vertex="1">
          <mxGeometry x="376" y="389.47999999999996" width="75.23" height="26.18" as="geometry" />
        </mxCell>
        <mxCell id="6ND3VzIesLsBvpKnC6EB-82" style="edgeStyle=orthogonalEdgeStyle;rounded=0;orthogonalLoop=1;jettySize=auto;html=1;entryX=-0.061;entryY=0.548;entryDx=0;entryDy=0;entryPerimeter=0;" parent="1" source="6ND3VzIesLsBvpKnC6EB-17" target="6ND3VzIesLsBvpKnC6EB-11" edge="1">
          <mxGeometry relative="1" as="geometry" />
        </mxCell>
        <mxCell id="6ND3VzIesLsBvpKnC6EB-28" value="" style="shape=image;verticalLabelPosition=bottom;labelBackgroundColor=default;verticalAlign=top;aspect=fixed;imageAspect=0;image=https://miro.medium.com/v2/resize:fit:1400/0*eg18crcjW9UCJW-C.png;container=0;" parent="1" vertex="1">
          <mxGeometry x="234.07" y="382.57" width="76.93" height="40" as="geometry" />
        </mxCell>
        <mxCell id="6ND3VzIesLsBvpKnC6EB-92" value="" style="edgeStyle=orthogonalEdgeStyle;rounded=0;orthogonalLoop=1;jettySize=auto;html=1;" parent="1" edge="1">
          <mxGeometry relative="1" as="geometry">
            <mxPoint x="381" y="305" as="sourcePoint" />
            <mxPoint x="436.8299999999999" y="305" as="targetPoint" />
          </mxGeometry>
        </mxCell>
        <mxCell id="6ND3VzIesLsBvpKnC6EB-94" value="" style="edgeStyle=orthogonalEdgeStyle;rounded=1;orthogonalLoop=1;jettySize=auto;html=1;dashed=1;curved=0;" parent="1" source="6ND3VzIesLsBvpKnC6EB-29" edge="1">
          <mxGeometry relative="1" as="geometry">
            <mxPoint x="273" y="380" as="targetPoint" />
            <Array as="points">
              <mxPoint x="346" y="355" />
              <mxPoint x="273" y="355" />
            </Array>
          </mxGeometry>
        </mxCell>
        <mxCell id="6ND3VzIesLsBvpKnC6EB-95" style="edgeStyle=orthogonalEdgeStyle;rounded=1;orthogonalLoop=1;jettySize=auto;html=1;dashed=1;curved=0;" parent="1" source="6ND3VzIesLsBvpKnC6EB-29" edge="1">
          <mxGeometry relative="1" as="geometry">
            <Array as="points">
              <mxPoint x="346" y="355" />
              <mxPoint x="414" y="355" />
            </Array>
            <mxPoint x="414" y="380" as="targetPoint" />
          </mxGeometry>
        </mxCell>
        <mxCell id="6ND3VzIesLsBvpKnC6EB-97" style="edgeStyle=orthogonalEdgeStyle;rounded=0;orthogonalLoop=1;jettySize=auto;html=1;dashed=1;" parent="1" source="6ND3VzIesLsBvpKnC6EB-29" edge="1">
          <mxGeometry relative="1" as="geometry">
            <mxPoint x="345" y="380" as="targetPoint" />
          </mxGeometry>
        </mxCell>
        <mxCell id="6ND3VzIesLsBvpKnC6EB-103" style="edgeStyle=orthogonalEdgeStyle;rounded=1;orthogonalLoop=1;jettySize=auto;html=1;dashed=1;dashPattern=1 2;curved=0;" parent="1" source="6ND3VzIesLsBvpKnC6EB-29" target="6ND3VzIesLsBvpKnC6EB-26" edge="1">
          <mxGeometry relative="1" as="geometry">
            <Array as="points">
              <mxPoint x="346" y="190" />
              <mxPoint x="220" y="190" />
            </Array>
          </mxGeometry>
        </mxCell>
        <mxCell id="kyHv9WxEyEAn_q-l7HWX-8" style="edgeStyle=orthogonalEdgeStyle;rounded=1;orthogonalLoop=1;jettySize=auto;html=1;curved=0;dashed=1;dashPattern=1 4;endArrow=blockThin;endFill=0;" edge="1" parent="1" source="6ND3VzIesLsBvpKnC6EB-29" target="kyHv9WxEyEAn_q-l7HWX-7">
          <mxGeometry relative="1" as="geometry">
            <mxPoint x="300" y="210" as="targetPoint" />
            <Array as="points">
              <mxPoint x="60" y="260" />
            </Array>
          </mxGeometry>
        </mxCell>
        <mxCell id="6ND3VzIesLsBvpKnC6EB-29" value="" style="shape=image;verticalLabelPosition=bottom;labelBackgroundColor=default;verticalAlign=top;aspect=fixed;imageAspect=0;image=https://sue.eu/wp-content/uploads/sites/6/2022/07/jenkins-logo-920x920-sue-v02.png;container=0;" parent="1" vertex="1">
          <mxGeometry x="301" y="260" width="90" height="90" as="geometry" />
        </mxCell>
        <mxCell id="6ND3VzIesLsBvpKnC6EB-4" value="DockerHub" style="shape=image;html=1;verticalAlign=bottom;verticalLabelPosition=top;labelBackgroundColor=#ffffff;imageAspect=0;aspect=fixed;image=https://cdn1.iconfinder.com/data/icons/unicons-line-vol-3/24/docker-128.png;horizontal=1;labelPosition=center;align=center;" parent="1" vertex="1">
          <mxGeometry x="610.64" y="160" width="70" height="70" as="geometry" />
        </mxCell>
        <mxCell id="6ND3VzIesLsBvpKnC6EB-107" style="edgeStyle=orthogonalEdgeStyle;rounded=0;orthogonalLoop=1;jettySize=auto;html=1;entryX=1;entryY=0;entryDx=0;entryDy=0;dashed=1;dashPattern=1 2;" parent="1" target="6ND3VzIesLsBvpKnC6EB-26" edge="1">
          <mxGeometry relative="1" as="geometry">
            <Array as="points">
              <mxPoint x="414" y="80" />
            </Array>
            <mxPoint x="414" y="77" as="sourcePoint" />
          </mxGeometry>
        </mxCell>
        <mxCell id="kyHv9WxEyEAn_q-l7HWX-3" style="edgeStyle=orthogonalEdgeStyle;rounded=0;orthogonalLoop=1;jettySize=auto;html=1;startArrow=classic;startFill=1;" edge="1" parent="1">
          <mxGeometry relative="1" as="geometry">
            <mxPoint x="534" y="87" as="sourcePoint" />
            <mxPoint x="600" y="87" as="targetPoint" />
          </mxGeometry>
        </mxCell>
        <mxCell id="kyHv9WxEyEAn_q-l7HWX-6" style="edgeStyle=orthogonalEdgeStyle;rounded=0;orthogonalLoop=1;jettySize=auto;html=1;" edge="1" parent="1">
          <mxGeometry relative="1" as="geometry">
            <mxPoint x="157" y="301.5" as="targetPoint" />
            <mxPoint x="97" y="301.5" as="sourcePoint" />
          </mxGeometry>
        </mxCell>
        <mxCell id="6ND3VzIesLsBvpKnC6EB-32" value="Ecommerce&#xa;app" style="shape=image;verticalLabelPosition=bottom;labelBackgroundColor=none;verticalAlign=top;aspect=fixed;imageAspect=0;image=data:image/png,iVBORw0KGgoAAAANSUhEUgAAAgAAAAIACAYAAAD0eNT6AACAAElEQVR4XuydB7QVRda294+On8OMMp/KoI7hAiKmUUYdBRwVGEUxMIIBQSQYQIIwBlQwgaJIEAUDSRAEREABlSB5JAmCgiA5CgKSrxcuOOFb89d7+9Q91burOpzuw71A7bXetWaN3O5zqqrrfXrv3X2IbNiwYcOGDRs2bNiwYcOGDRs2bNiwYcOGDRs2bNiwYcOGDRs2bNiwYcOGDRs2bNiwYcOGDRs2bNiwYcOGDRs2bNiwYcOGDRs2bNiwYcOGDRs2bNiwYcOGDRs2bNiwYcOGDRs2bNiwYcOGDRs2bNiwYcOGDRs2bNiwYcOGDRs2bNiwYcOGDRs2bNiwYcOGDRs2bNiwYcOGDRs2bNiwYcOGDRs2bNiwYcOGDRs2bNiwYcOGDRs2bNiwYcOGDRs2bNiwYcOGDRs2bNiwYcOGDRvFOP7fYZANGzZs2LBhowiCG3Jxkg0bNmzYsGEjoeAme6TJhg0bNmzYsBEiuIFGUYnDIH7OKLJhw4YNGzZsKMGNMkjclIuD+GcMkg0bNmzYsHFMBjdEP3Gz9dNxWRI/T5D4d/CTDRs2bNiwcdQHNz+duJnqxA26qMQ/l0n8O5pkw4YNGzZsHFXBjY6LGyYXN16djs+y+Pl04p9bJ/7ddbJhw4YNGzaO2OCmphM3x7Cmz83ZpF/FED+WTvxzcfHvZEHAhg0bNmwc1cGNjIubYZDpc+ONa/InpMT//7DinyEMFPDvGgUGbNiwYcOGjWId3LiyYfrcjKWkqWdL/HxhgIB/pyAY4GPGZcOGDRs2bBSr4EbFxY3OZPzcQE2Gz81Z1f9kQfwcQVDAv4MJBviYhAEBGzZs2LBho1gEN6gkjJ8bqs70uUmrOjFB8WP7QQH/zDoY4N/dgoANGzZs2DjigptS0sbPDZabMDdrqV8nKH5sExjwz8q/C/+uOhjgY2YhwIYNGzZsFKvgRhTV/LkRhjV9bsImsy+ZoPixdVAQFwb4+PDxsyBgw4YNGzaKPLj5ZMP4/Uw/yOh/E6DfMvH/rhM/RxQgOFwgYMOGDRs2bGQtuOmENX9udFGN32T63Ki5uUudFEH8b02gYAKCTGDAQoANGzZs2Ci2wc3GZP7cwKIYf1TTDzL5k2OIH4vDgQkITDBgQcCGDRs2bBxxwQ0mjPnHNX6d6ZsMn5t3KYN+5yP+b6X4scMAgR8MxAEBPt4WAmzYsGHDRtaCG4vO+KOavy7Vz41fd6evM3w/g//fGOLHMkGBDgg4CKgw4AcCYSBABwJ8fiwE2LBhw4aNWMENRWf+3Jx05u93128y/jCmbzL7U5hOjSD+t5AODHRAwEFABwNJgQCfBz5PFgJs2LBhw0ZGwY0kyPx1xq+768/U+Lnp68xeNfLTNCrtI/5vIRMc+AGBCQbCgoCuLGCCgLAgYMOGDRs2bIQKbiDZNH8/4w8yfZ3Zq6b+e4PKMPH/LqUDBD8g0MFAXBBIKhtgw4YNGzZsBAY3Dw4AQeYfxvi5+QcZv8n0udmrxn66QWco4v9NygQIJiBQYSAqCARBQJhsgIUAGzZs2LARK7hpZMP8oxq/zvS54esM/kyN/qAR/zeQCRI4FJhgQM0KBIFA1GyAhQAbNmzYsJFocLNI0vzVu3413a/W+P2MX73TV02fm71q7GcxnR0g/u91gKBCQRAM8KyACQR0ZYEgCFBBwEKADRs2bNiIFdwouJlENX9dyt/vrt9k/Ordvsn0dSZ/jqJzQ0r9Gx0cqFBgggG1TJApCETNBqgQwEGAz6uFABs2bNiwURjcIEzmrwJAWPPnKX9+189r/Krx87t9bvrc7KWR5ygqq1G5lPj/L4W/gzgYqEDgBwMmEOClAfWpAVNZICwEqCDA5+//aWTDhg0bNo7x4MYAZdP8TXf9njv+iy666OwuXbpcPnbs2FpfffVVk++///7pVatWPf/111+3GD9+/F1du3a9TsQF5DZ6ae7lFZ0XUurfcEjISYkDgQ4GVBBQywMqCKjNgrpsgK43IAoEcBDgcwzZsGHDho1jOLgpZNv8pfFrzf+jjz66dtOmTa/k5eV9+8svv/zfP//5z/8Gaf/+/VvE3wwSoNDw9NNPryiOU0HR+Yrw33RS/w0k/5aDAQcCCQM8M6ADAVNGwJQNMJUEokCAOpcWAmzYsGHDRmFwM+CGEcf8ebOf8a6/W7duf9y6detbBw4c2MDNPary8/NzxbE+HTJkSH1xbGQHoAsjSP4NhwMVCoJgIAgE/PoDTCUBFQIkCISBAA4CfM4tBNiwYcPGMRjcCPzMnwNAbPNv2rRpWWHWPQ4dOnSAG3kS2rlz5zwBF3eIc10SUhcruiglDgUqEHAYyKHMQYBDAM8GmPoCkoAAGzZs2LBxDAU3AZ35B939SyOKZP6VKlU6Y+PGjR2E8e/ipp0N7d27d1WfPn0ai3NfFqBLFf0xJRUMVCCQMBAXBHQQoMsG+EGABAELATZs2LBhIzC4AegAIKr5+9X8C8z/8ccfr5CXlzeHm/Th0J49e1ZMmDCh/bnnnltZfJbLNfqTokopSTDgQBAEA34gwCEgKBtg6guICgHqHFsIsGHDho1jMPjGrzN/DgCq+aup/7Dmf9qYMWOuSaLOH1f5+fl7ly1bNrRFixZ1xOf6M9OVKV2RkgQDHRCoMBAWBEzZgLAQoGYD1L4ACwE2bNiwYSMw+KavAwDd3T83f576N5r/4sWLGxw6dOhnbsZFKTxlsGHDhqnly5e/XnxGZAWgq1O6KiUJBTogAAxwEEBWgINAOXKDQJhsgAkCeEkgLgTwtWAhwIYNGzaO0uCbfVjz90v9+5n/qQsWLLhLmO2/uQEXF+3YsWPpNddcc7P4rNekVDWlKuSFAhUIVBCQWQETCCAbIEFALQuo2QAOAWo2QEIALwlEgQA1u2MhwIYNGzaOseAbPTd/EwBkZP4jRoyoIu7893HTLW7avXv3ulq1atUVn/m6lK4V+ktKEgpUIAAMSBCQWQEdCKilAV4WUHsD1JKACQJ4NsBCgA0bNmzYCB068w+6++epfxiODgBc5v/MM89UOHDgwHputsVV+/bt23qfCPHZqwtVSwnlARUIOAyoWYEgEPDLBphKAnEgQGZuMoUAGzZs2LBxlATf4IMAIJPUf4H5i/j9zz//PJubbHFXXl7e7tatWzcT3+EGob8K1UhJQgGHATUrYAIB9AjwsoApGyBLAnEgQM6VhQAbNmzYsFEQUczf7+7fZP4wp4KX/KxataoFN9cjRQcOHPhZQEAL8T1uEqopdCO5gQAwoGYGZFZABwJqs6BfNiCHvBDA+wKyBQHqWrAQYMOGDRtHYUQBAH73L9PLOgBwpf4rV658Zn5+/iZurEeS9u7d+9Of//xnvE74FqFaQjeTAwQqDAAEqpEDAyYQUJsFddkAQACyARIC1KcEsgUBHAA4BFgAsGHDho2jKPim7mf+mdz9F5i/0GkbNmx4jhvqkagffvhh6W9+85s7xHe6TehWcsOAzAzIrEA10oOAbBbUZQMAATIbICGgLCUPAXIe/bIAFgJs2LBh4ygNnfmbACDM3b829d+yZcvyhw4d2sPN9EjVggULxovvBQj4m1BtodspDQM8KyBBQC0NoEeAZwN4b4AKAeXJ2xwYFgIAABDmKBMI8AMACwE2bNiwcYRGGABQ7/45AJju/gtT/0Klj5a7f1Xvv//+2+K73SlUl9IwABBAZkBmBSQIqBkBgACaBU3ZAA4BsiSggwD1CQETBOiyAElCgA0bNmzYOMKCb+Q68+cAIM1fBwDau3+h3+fm5hbJe/6zqYMHD/7z0Ucf7SC+391Cd5EDAnUonRUwgUB1cpcFTNkAtSTAISCHwkOAXylAhQC1H8BCgA0bNmwcxaEzfxMAZHL3D/Mv3bp164rF+Y1/cbR37949VapUaSG+571C95ADA8gKAASQFVBBQPYI8LKAmg0ICwHlSA8BpnKAHwRIoOMQwAHAQoANGzZsHCURBgD43b8JAIx3/99//31rbpxHkzZt2rT65JNPbiy+awNyQKAeuUFAzQj4ZQN0JYE4EMDfExAFAmwWwIYNGzaO0uCbt878dQCgM3/j3b9QGXGXPJGbZhISYPHfgQMH/veFF174b4cOHf775ptv/nfmzJlIzXv+bbY1f/78meK7NhJqSA4I4FFBHQjIZkFdNkAtCej6AsJAAG8MVCEgqScDLATYsGHDxhEcfOP2A4Cgu3+YifbuX+j0AwcO/MANM44OHTpUYPzNmjXTqlOnTv/dvn275++yrSFDhnwgvm8TSoMAXh8sQUD2CKhlATUbICEAJQG1L4BDgGwOzAQCZFOghQAbNmzYOIZDZ/4cAHR3/yoA8Lt/mEth5z85BnS6MOxD3CzjaPjw4R7T50JWQICH52+zqYMHD/67TZs2XcV3foDcICBLA+gRAAio2QC1N+Cv5JQEZF+A2hwYBAFlyQwBmAs/CDA9GRC2H8ACgA0bNmwcQeEHAJmk/7V3/y1atLiAG2Ucbdiw4b/Nmzf3GL5On332mefvs63c3Nyfq1Sp8rT47g+RGwTUbADKAjIbIEsCyAbIkgAgAH0BsjlQfUIgCAL4ewLkbwdICFAfDwQEmLIAYSDAZgFs2LBh4wgMHQCod/9q+j8IAHR3/wUAMHjw4GrcJONo5MiRHqM3CVkA/veHQz/88MOmU045pbX4/g8LPSjUVAhNgveTOxsgewN4SSAKBPCeAAkB6hsD/SDArxRgmwJt2LBh4yiMKABgqv/7Nv8JnTFz5sx63CDjqHfv3h6jNwmZAvQL8GMcDs0XIb5/C6HmlAaBJuTOBvCSACAAJQEJATXI/YRAJhCg/opgJo8Hyrm3EGDDhg0bR0HwTVoHALHT/0JnHqsAAA0ZMuQTMQathB4RakZOWaApOdkA2RugNgiqfQFRIED3dACHAPVFQZk8GaCWAiQEyPXiBwE2bNiwYaMYhc78MwUAY/pf6MxBgwZV58YYR0dCCUBKwMd/2rZt+7YYB5QDWlI6G/AAOdkAtSTA+wIkBNxIZgiQjYF/JDcEnEfeXxH0e0cAhwDbFGjDhg0bR2noAEA1fzX97wcAvul/oT80adLkEm6McVTcmwC5cnNzD1SpUqWjGItHyZ0NeJDcJQEJAegLiAsB55MbAnRPBpgeDzRlAcJAgCkLYCHAhg0bNopJRAEAWQPmAGCq/8u7/wIAEDr7WHkM0KS1a9du+NWvfvW4GIs25GQD0BuglgRUCJDNgX4QoDYGXkneNwZeQP4QYJsCbdiwYeMYjagAwM0/VP2fHMM5Z//+/cfEi4D8NHLkyMliLB4TakvukoCEANkXIJsDdRBwA7khgL8sSELAReSGgLLkDwG2KdCGDRs2jpEIAoA49X+YigQA1J7P3blz5yRuiEmoOL0KOEjoB2jcuDH6AZAJ+Ds5JQEVAh6g8BBQndwQcBU5EPAnciAATwZICKhA+qZA05MBvB/AQoANGzZsHEWRbQAoTP8LnTt//vy/c0M8FvXTTz/tPvPMM58TY/IEpSFA9gU8TNEhQH1jICAATwYAAuTjgYCAimSGAN2TAWo/gAoBmHsOAWo/gIUAGzZs2CjmwTfiTAFAV//XAUDOPffc8ydxB3xU/hxwVM2ePfsbMSZPkQMBKAmgLyAuBOC3AypTGgLQFKh7PLCcUA4F/3oghwCeBUgKAiwI2LBhw8ZhDJ35RwUAWf/nAOCp/5NjOOX27Nkzn5vhsaqOHTt+SA4EPEnhIEA+Ivg3Sr8xsCY5vx1QjdwQYHpHgF9ToISAOE2BEgIkAFgIsGHDho1iFn4AIDduaf5hAcDYAEiO2ZRfsmRJZ26Ex6pyc3MPXnHFFV3FuDxNwRCgPiLoBwFBjweiH8APAkxNgdmAAAsCNmzYsFEEoQMA9e4/CAAiPQFATt25fK1ata44ePDgXm6Gx6qWL1++4bjjjnuW/CGgKXnfE6BCwM1kfkeA35MB5cnbD2BqCgzzZECSEGBBwIYNGzayFFEAQHZ7SwBQGwA5AMA0OADAYAoAQOj8b7/9tgs3wmNZ77///hQxLh3IDAEPkRcC7qL0DwjdSl4I4I8H/oncTwZEbQoM+2SADgJ0PQFRQMDCgA0bNmwkGNkEAM8jgOSYDNLO55977rmX5uXlbeFGWJy1efPmPP7/JaWDBw/+58477+xDeghoSe73BAACGlD6twMkBOiaAv2eDFCbAiUEIFPj97pgWQrIJgQEgYCFARs2bNiIGZkCgPoEgB8AuB4BJAUAhC6cPn36M9wIi6umTZu26fLLLx+3d+/eX/h/S0pbt27ddeqpp75EbgiQjwiqENCE0r8dAAgI+2SAqSkQEIB5KSeUQ/5NgUlCQBIgYIHAhg0bNjKIqAAg7/4TAYATTzzx0h07dizgRljctGvXrkMXX3zxWPGZhzdu3HjmL7/84vk3SWnq1KkLxXnwfoD2lH5EUIWAZpT+7QBAgO7xQFNToISAOE2B/MmApCHABAJRYEAnGzZs2LChhLpBJgEAvi8BIgYAQpfcfPPN1/3888+Jvh44aa1evXrPHXfcMVV83g+hESNGrOb/Jkm1a9cO59FBQGtK/3YAIIC/IyDskwFhmwKThoCkQCAuDISVDRs2bBy1oW52SQBApAwAOXXoy5566qk6+fn5P3MjLG6aO3fu1urVq08uWbLk6DVr1uzj/z0p7du378DFF1/cndwQ8DilfzsAEPAwmR8PzLQpEBCg9gP4PRkQBQIkCJggIAgEgmDgcIOBSTZs2LBxxIS6eYUBgER7ACgFAEKXDxo0qBXekc/NsLgJ6f8pU6ZsbtOmzbwDBw5k7fMuWbJknRiXF4XweOAzQu0oDQGtSP94IG8KBASo/QAqBOiaAgEB6AcICwHyyYAoEMBLAn4gEBcGTOLGXZSyYcOGjSIJdSOSm2MYAMBmHgYAYBZBAADzQTr6z0OGDHk8Pz9/PzfD4qiDBw/+3969eJWB978lpT59+nwhxuUFSkMAfzywOaWfDEi6KVBCQA6ZHw+MAgFBJYFMQICLG32S4sZdVLJhw4aNRELdWORGlxQAqO8BCAIA3IUiJX31Y489dl9ubu6P3AyPRR04cODft956ax8xLs+T9/FA2RQICHhQqAnpmwL9+gFMTYGYG8wR5qqcUA55Hw+MCgF+2YAoIBAFCHTixp4tceMuStmwYcOGJ9RNQm5ccqPkACAhQO0DMAEA6sO+LwIip94Ms3EBgFDVa6655rYtW7Z8ww3xWNSmTZt2lCpVqjOlIYA/GdCC9E2Bsh8gk6ZAzAvmRwcBmMtMIMAvGxAGBIKAIC4YmMSNPZvixl1UsmHDxjEQ6kWvbkTY+MIAADb0sABQ+CpgctLLRgAQuvakk066YeLEiW/l5+cf5KZ4rGn8+PELyOkHMDUFPkLmpkC1H+Bm8m8KND0ZEBYC/BoDw2QDVBDgMGACgjBQYBI3+6TEjT1b4sZdlLJhw8YRFuoFrG4sciOLAgDY7LHxwwBMAJBDbgCAycBskH5GLRqNaTAk3J1WE/rr9ddfX2/Dhg1fHzp06P+4MR5LatOmzXBy9wPIpkDZDwAIeIjivSnQ9GRAVAjIJBvgBwI6GPADAi5u/JmKG31S4saeTXHjLkrZsGGjCEO9GNVNQm5M2PTkJmoCAGzmJgBQnwSQAFCOHACoSGYAgCnhDvWv5KStb6lRo0bjlStXzs3Pzz/EzfFY0J49e/afd9553SkNAWo/ACBA9gM8JNSE0k2Baj/A7aSHANkUiPHHPAACkJlRIQBzdh75Q4D6ngA/CAgCgSAYMAFBJnCgEzf+OOJmn5S4sWdL3LSLUjZs2Egw+AUmL3q5yWADk5tiGADARo9NXzYC6h4FLEeOkQAALiTlUUByGtJgRDAkAEANclLWqF+jjg0Tu7Nr166vbdmyZe2xlhVYuHDhavH9O5K7KdDUD9CE3C8JAgT49QOYngyQEID5qkBOBgdzmENmCAD8mSDADwTCwIAJCMKCgU4cAKKKm34ccaNPStzYsym+rxSVbNiwERDqBSMvYLlpYEOSm5wfAGAjDwsAZcn9JICpDwB3ptXJuVO9mZwaNgwMjW0wtAbnn3/+I6NHjx4l7o6PmZ8W7ty58zjy7wcABDxM+n4AjJ0fBKhPBnAIwFyZIEA+HSDfEyAhwC8bEBYEOAzogCAMGHBxCIgiDgCZiBt/HHGzT0rc2LMlbtxFKRs2jqlQF7+8IOUGIDcYbFjY+PwAAJu52giIzV/XB1CW9E8CqGWAgkZAoWrkGNRN5KSuUcdGPRtmBlPDHW6TE0444eEuXbr0W79+/VpumEebcnNz8y+88MIeFNwP8DBF//lg9ckAQACyMhICME8qBJxHZggA9PlBQBgQUGEgCAiCwICLw0BYcRCIIg4AUcVNP4640SclbuzZFDfuopING0d0qItZXlzygpYbBjYgbGJyI1QhQAUAXR8AB4AcSvcBAACQXvbrA6hBzp0q7lhx51pQBiCnwQ3GBoN7gBzDa9GwYcOu8+bN+zo/P//f3DyPFonvt0J8107kQIAsBZj6AZqS+yVBQRCAcTdBgJoJOJ/cECBfFoR5lhAQlA3QgUAYGOBAEAYOMgGFIxkYIG78ccTNPilxY8+WuHEXpWzYKDahLkx5sciLU1782EzkxoSNTQUAmQXQAYCuDJBD4fsAgsoAqG/D3JqQY3bNybkDbnPZZZe9OGrUqCl79+7N4wZ6NOipp54aLb5nRzK/HwAQ0Iz8XxJ0O7mbAmuQ+fFADgGAt/MpDQFlyf0DQn7ZABMI+MEABwIdFATBQVRQyBQYjlRo4KYfR9zokxI39myKG3dRyoaNrIS6yNTFj4tNXsxyg8Amg01KBwBR+wDKk7cMgD4AUxmgJjlmBdPCHSzuZJHWRhYAte4HyDG8FuQYIIzwid/+9rcdXnvttdEbNmzYyk30SNbu3bv3n3322d0ouB8AY4KxwRjxpkAdBFQn9+OBJgi4iNwQgPnEvEoI4CUBXTZABYEwMMCBQAcFQXAQFRQyAYbDCQ0cAqKIA0Am4sYfR9zskxI39myJm3ZRyoaNUKEuGnUxy4sHF6a82LFp+AEANmhs3NjEsbH7lQHKk/5xQJ4FUJ8GuJmcMkCoLAA5KXHUx1Enf7Zx48YD58+fvxzv8eeGeiRq+vTpSyhdCuD9AIAAjMMjFK0p8AbKDAIwl5jTsuTMr1oS8AMBtTQQBgZ0UKADgyBAiAoL2YYGDgNhxGEgrDgIRBEHgKjiph9H3OiTEjf2bIobd1HJxjEafCHIhSkvBnmx4eLFBiA3EWxAEgJUAOBlAGz0PAuQQ/oygMwCwGxgOjwLcBOZswCuXgBy7oBhgkiL484Yd8i4U37xyiuv7DV69Oh5+/btO+LfMvjII48MF9+pI+l/LwAQBAhoTu6XBAVBAMa6OnkhQNcTICEA81iB9CWBIBDQZQV0MKACgQ4KdGAQBhKiAkMUaOBQ4CcOBUHiQBBGHAbCiENAFHEAyETc+OOIm31S4saeLfH9uihl4ygJdVLlQpMLW144uBDlRY1NQQUAbHTYFCUAZFoG+CP5NwPeSOYsANLbTcipeTcjpwb+KDmlABgijBEGCaPsKPTyaaed1uP999+flZube8S+XGj79u37fv/7379G3lIA7wdQIQAZE11TYBQIAKgBAjBnmLsLyd0ciLnFHOdQOBDQZQVUGFCBgEMBBwM/QAgLC2GB4WiHBg4DYcVBIIo4AEQVN/044kaflLixZ1PcuItSNophqBMkF41cqPJCkBcXLlBc4DoAwGaIjRObLzbloDJAOfJmAS6j8FmAO8gxMBgZDA13t03JMbpHyF0KkBCAVDlS5h2FXhZ69dxzz+01YsSI+Xl5ef/iBnsk6LPPPvtafI+XSA8BbcndD/CgUBMyQ8CtFA4CAGmYJ8yXhICLyFsSwByXJWe+/UBABwM6IPCDAhMc+EFCksAQFho4GJjEwcAkDgV+4kAQJA4EYcRhIIw4BEQRB4BMxI0/jrjZJyVu7NkSN+2ilI3DEOqAqwtBLjwsanmh4IKTAABJCFABAJslNlxZBshGFgBGBcNCFgCpbN4Q+DA5EADzgwk+Tko/ADkQ0Emos9CrQl0vuOCCd8eNG7f4SHuEEG9EbNCgweDU9zH1A6gQgPHhTYEcAjDGNckLAQAyHQRcSumSwIXkzQaUI38Q0MGAHxBwKOBg4AcIQaCQFDBYaAgnDgNhxUEgijgARBU3/TjiRp+UuLFnU9y4i0o2Mgh1ANVJlQtJLlQsfFw88gLExSsBAJsKNiAJANggscliE5YAYMoCVKB0MyBMBIYCYzFlAWpS+r0AfyOno91UCoDphYYAoe6VKlV674svvjiimgU3b96866STTsJ36Ej+/QCAoodJDwEYRz8IAIRJCKhM6R8QupzSfQEAOIAc5vICcvcGlCczCOhgwA8IVCjgYGACBD9QCAMMhwMaOBzoxOHAJA4HOnEwMIlDgZ84EASJA0EYcRgIIw4BUcQBIBNx448jbvZJiRt7tsSN+3DLhhJ8cOQkyUUhFx0WsbwgTACAjQebFDY7bIjYNLHpYpM2ZQHOI3MWAHeaMJtryP1egJvIXApAersJ6fsBniAnPc4h4GVSIEDo9WuvvXbIl19+ueaXX37xGG5x1EcffTSXvKWATCAA4+kHAYAxDgGYK0Ab4A3zB5ADBFxIwSAA6WDADwhUKOBgwOEgCBSCgCEONHBA4OKAoBOHBC4OCDpxONCJw4FJHA5M4mDgJw4FQeJAECQOA2HFQSCKOABEFTf9OOJGn5S4sWdL3KOyrWMq+JeXg65ONBaRXJhY3PICwcWlQoAEAGxM2LywCWKTDJsFgGHAPC6ldBYAJhNUCqhD5n6A5hQNAl6jFAQIvVGrVq0PFyxYsJEbbnHTwYMH/1O7du0Bqe+iQgC+K74zvjvGAGOBMcHYYIwwVn4QUIvSjwhi7CUEAMowL8jSANQAAZeTOxugA4HzyQEBqDyZYcAPCFQo4GDA4cAECcURGJKABg4IXBwOdOJwYBKHA504GJjEocBPHAiCxIEgjDgMhBGHgCjiAJCJuPHHETf7pMTNPWlxP0tSR22oX1IdTDlpclFgkckFiwWPC0UFAFzwEgKwGWHDwqaHTREbKjZbXRagPKWzADAMmMdllH4vAEwmqBRQl9z9AEEQ0I7cENCRHAh4hRwI6CbUQ6in0JutWrX6fOfOnfu58RYnrVu3bvsJJ5yAz98p9Z3w3fAd8V2DIABjpkIAoEqFgJsoDQHVyN0XoMsGqCBwMelBoAKlQQAqR856gHLIWR8qEOiggIMBhwMTJPjBQhA0cFAoztDAAUEnDglcHBB04nCgE4cDkzgcmMTBwE8cCoLEgSBIHAbCioNAFHEAiCpu+nHEjT4pcYNPQtzY4+ioCP6l5EDJSZCTLBcOFh8Wrx8AYOPA5oINCpsYNkBsnthYdVmA88j7K4EwERgKIAAmg7tOGE91ig8Bj5MbAlA770hOGv0VoS6ULgkUQECZMmX6jh8//ntuvMVJAwcOnEEOyOC74DupEIDv3JbSTYEYE4wNxsgPAjC+GOebyMm+YOyrURoCMC9qNgAgAHgDCADkJAhcQunHBiEdDEDlyVkTUNmUclKSUGACAx0gmEDBDxgygQYOCmGggUNCEsAQBA0cErg4IHBxQODicKAThwOdOBiYxMHAJA4FfuJAECQOBGHEYSCMOAREEQeATMSNP4642ccVN/pMxf0wqo644F9AHQw5uJgwuQiwmOSC9IMAbBbYULAhYdPChofN0JQFqEDuhkAYB0wEhoI7TJgMDEdCwA3k7QcICwEwQgkBT1P6PQFIn3eidHPga6SUBIR6NW7ceOz27duL5e8MHDhw4N/VqlXrS+l+AHwnfDd8Rx0ENCMzBNxFDgQArgABGOebKQ0BmANZEuDZgDAggHmWIABh7s8nZx1A56WEtQGVSwnrRSpHkQoHHBBMoOAHDCZo4KAQBAyZQAMHhWxDA4cELg4JSQKDhYZw4jAQVhwEoogDQFRx089U3OwzFTf7sOIeGVZHTKgfWv3icuDkRGBS5eLA4sLCNAEALmxsANhAsMlgg8IGho1PZgFUCDiPzKUAmMnV5O0HuIG8EHAnOQZmggAYHwxQQsCT5Bhke3Jq5y9Qui/gFdKUBCpUqPDeypUrt3MDLg5asWLF5hIlSuBzv0TpfgAJAfiuj5E/BDQkPQRgfDHON5O7L6AaOVAGEJDZABMIVCJ/GIAw/xVTwnqAKqSENQKVV1SOCWtJVY5GHBZMwGCCBg4KfsCQCTRwUIgDDRwSkgCGIGjgkMDFIYGLAwIXhwOdOByYxOFAJw4GJnEo8BMHgiBxIAgSB4Gw4hAQRRwAooobfybiph9W3PSDpHpmGBXr4B9Wfkk5OHJw5URhsuWCwWLDAsWi5hCAixkXPDYFbCrYdLBZYZOTEIBNNof0pQCYBEwDBgIzAQTgTlOFgBtJDwF3kxcCHiT3I4JtyDHEJyj92uBnyV0S6EzuksDrQm+cdNJJb8+ZM2cdN+DioF69ek1Ofe5O5P9kQBAE1CMHAupS+geEbiVvSaA6pUEAc2MCgSsoGAZ0QKCDAqiCIqwdVeWZsL64ymqUoxGHBT9o4LBQ1NDAQSEIGLIFDRwSkgSGwwkNHA5M4nBgEgcDP3Eo8BMHgjDiMBBWHASiiENAFHHzDyNu/H7ipu8n+GZYFbvgH1D9YnIw5ABi4OXkYfJVAIBUAMCFh4sTFzk2AWwS2GCwMWHTwkanZgGwUVeg9FMBMAMYBMwC5gEjgakAAnDH6QcBMC0OAU0oDQGPUPqNgX8nd3Mg7phhmjDPTuR+SqAbpbIBp5122jubN2/eyw24qJWXl/fLlVde+U7qc+Pzv5D6PoAAgE4QBDQmBwIakAMBGEdAFca1NrlLAjXJyQb8ldJlAR0IAN5UGAAImGBAAgGHAoiDAYT1InU+E9YT13kaYe1xARK4sE65cjTisGAChqjQwEEhaWDIBBo4JGQbGJKABg4IXBwOdOJwoBMHA5M4GJjEocBPHAqCxIEgjDgMhBGHgLDiABBGHABMUo3fT9z4dYKHhlWxCfVDqV9GfnE5UHJgMSFyQrEQsICw6LBIOQTggpQQgE0Bmwk2GmxQ2NRMEIANHyaQBATAzO4nBwIeoPQbA1uSuy8A5vg0uUsCHUnfIPj6LbfcMgy1d27CRa0ff/xxT5cuXcY/9thjH9WvX/+9a6+99s1zzjnn5dT3MkFAc3IgAOMDCMB4YdwwfvdQujnwb+TNBtSkdFmgOnlBAPMFGOAgAGFeVRhQgcAPClQwgC5kAhyowpriOp8Ja48LgMCFdcpVTiOsaa4cgzgwRIUGDguHCxo4KAQBQ3GEBg4IOnFI4OKAoBMHBJ04HOjEwcBPHAz8xKHATxwGwojDQBhxEAgShwCTOAToxAGAS/VKnVRf9VORB/9A6peQX1YOCgZPDjYmCBMrFwUWERadhABcGLh4cJHhIsVFLCEAm4qEAGxqOeQuBWDTxsYuIQAGoYOAaqSHABgVIOAuSr8noCGlXxv8ELn7AmCGMMUnyP2+gOdJ3yDYTajHqFGjFnIDLq46ePDgv/fs2fPz5s2bt61YsWLtwoULv50+ffrssWPHThg0aNBH3bp1G9CuXbseDRo0eKFy5cp/P/nkk5uStzkQYwrAqk3pbEAtSpcFbiAvCGCeVBjA/AEGOBBgflUg4FCggoEKByogcEjgoAABELiw3lRV1AjrkkuFBSmsYS4ODHGhgcOCHzRwWPCDBg4KhwsY/KCBQ0ISwBAEDRwSuDggcHFA4OJwoBOHA504HJjEwcAkDgV+4lAQJA4EQeIw4CcOAjpxCNCJQ4AqDgBJw0CRBf8g6gfXAQCEAZWDj8nCBGNRqACARSwhABeVhABc1BICsLmEgQBs/iYIgNHUIHdjIMwJEFCHHOOCgcHIAAGNyNsX0Iq8jwo+TQHZgLPPPvutI/mXBYO0f//+/F27dv20ZcuWNatWrVr07bffzpg1a9a4CRMmDBk2bFjvN9988+UOHTo8Wb9+/QcrVaqEccb430ju0kA1MsNAFXKXCVQg4FCgAwMVDoIgQQcLUBAwQBIUpCQoqKqoEQcGSIUFKRUWIA4LUYABytGIw4IJGEzQwGHBDxo4KAQBQybQwEEh29DAIeFIBAaIw4FJHA5M4mDgJw4FfuJAYBKHAZ04DIQFAw4BqjgEhIEB6bF+KpLgH0L90DoIkIOHwZUTgUnDJOsgABeBhABchLhIcXFLCMAGgw0ph5KBgFrkQEBtciDgTnI/IXC/UBPylgRak1MSeIycVPlTpM8GvEypbMB77703ixvnsapDhw79Ky8vb4+Ahg2bN29evHbt2plLliwZN3fu3MGTJk3q9eGHH3bq1avXY+3atWt6++231ylTpkx1SsOACgQ6KFDBQAcHHBI4KATBggkaJChIcWDQQYMKC1ISFFRxYNBBA4cFHTDEhYYcjTgs+EEDh4WowJAJNHBQyBY0cEhIAhiCoIEDAhcHBJ04IOjE4UAnDgYmcTAwiUOBSRwITOJAwMVhIAwYcBAIAgIOAUEwoHqtToc9+AdQP6wOAHQQgMmQk6dCABYjFq2EAFw4KgTgIo8LAbirBARUJwcCalL6tcG3k7kvoDGlSwLNKJ0NaEPuBkFkAzqQJhtw6qmn9ti7d28+N0OrcDpw4MD+3NzcH3fs2PG9gIY5a9asmbB48eLhs2fPfmf8+PGvDB069MkePXo82KJFi7sqV678V3KXDzggmCAhDCyEAQYdNAQBA6TCgpQKDBAHBigTYNBBA4cFiMNCFGCAcjTisBAFGIoSGjgoxAEGP2jgkMDFISEsMBwuaOBwYBKHA504GJjEwYCLAwEXB4IgMOAwYAICDgFSHAKOGBDgJ+cAYIIAOXAqBGDiJABg4agQgIUuIQAXmQ4CypIZArDpqhAAM5AQcB2l3xh4IzkQcAvp+wLqk7ck8DCZGwSfIvfjgjIb0PmDDz6wWYDDJGQZ9u/fv2v37t1rt2/fvnDDhg3Tli9fPnrRokUDZs6c2WPMmDHP9uvXr9Vzzz1335133nnr6aefjgyDCRY4MHBo4MCQCTRwYMgUGjgwQEHAoIMGDgs6YMgGNORoxGHBBAxRoYGDwuECBj9o4JAQBhiCoIFDAheHhCjAEAYaOCDoxOFAJw4HXBwKuDgUhAEEDgQmKOAwoAMCDgFJgsBhC35i9QP6AYCEADmIUSAAF4YKAbh4w0IANlsVAqpQ+rXB1cjbHHgbhSsJPETmBsF25H5cENmAThUqVOh5JP2U8LGm/Px8ZBm2pLIMs9euXfv5kiVLhs6bN+/tSZMmvTxs2LAnkGVo2bLlnVWqVMG6yRQYdNDAgSFb0JAJMOiggQNDWGjgsJANYIA4MESFBg4LRQ0NHBSyCQxB0MAhgYsDAhcHBJ04IHBxOODicBAECRwI/MAgEyAIggEOAcUaBPhJ1Q8XFgLkYPpBABYbhwBcPJlAADZZbMTYrCUEXEvuvoCa5PQF3EoOBNxB6ZJAPXI/JdCUvO8MeJTSDYJPUrpB8FlKvTxo2bJl67nxWB2Z4lmGjRs3TlWyDN3VLEOdOnVuYVkGDgxJQEMQMOigIQgYMoUGDgw6aOCwoAOGwwUNHBb8oIHDgh80cFAoamDIFjRwSODikMDFIYGLA0JYWOBg4AcIHApMYBAVCLIBAtyDVWU9+Al1AGCCADkoEgLkoOogAAsjLATkUDQIqEzevoC/Urov4BZKlwTqkPspAZ4NeJjSvyXQmtINgk9QukGwg9DzDRo0eI8bidWxo/z8/DxkGXbu3LksgyyDDhz8oIEDQybQwIEhDDRkCxh00MBhIS4wQGU1ytGIw4IJGEzQwGGhKIHBDxo4JIQFhjjQwAGBiwNCEChwMPADhCAw8AMCPxhQQYDDQBAIcACQ4l4sldXgJ4PUD+UHABIC5ABJCJAAAMnJwYTGgQBsGNhcsAlho8KGhk0PmyM2z6vJ3RdQjdwlgVqULgncQe5XCDcgdzbgIdI3CD5OrEFQGMBBbgxWVjr5ZRmmT5/uyjLccccdt5YuXRrrOVNg0EFDVGDQQUNUYNBBAweGsNDAgSEb0FBWoxyNOCwcCcBwuKGBQ0IYYOBwkAkkBIFBWCAwwYAKAhwG4oIA92KprAY/Gf9QcSAAA45JwMT4QQAWJxY1FjwuEFw4OeRclLhYcWGHgYAqZC4J3EzppwT+RuYGwSYU3CAICGg/Z86cJXyjt7JKSqYsg1h3b6WyDI8jy/DII4/U1WQZgoAhG9AQFRh00MCBISw0cGCIAw0cFg4XMHBQ8AOGooYGDgphoIFDQhAwcEAwQUIQGPhBgQkIosJAJiDAvRbifqwqa8FPpAOAooKAsuSGAFzs2BSweWCTwUaEzQobGja+yqQvCdxI0RsEAQHNSd8g+FTTpk378E3byqqodARmGTgwZBMaODCEhQYOCzpg0EEDh4VsAENxhAYOCkHAwCHBDxaCACEKGAQBQRAMxAEB1VN1IKB6MVdWgp8E0kGA+iVUCJBfXgJAHAjA4sKCxGLFAsfiL0vORYULDRelCgHYJLCZYMPBpoSN62pK/6TwdULVyPvioFspXIPgQ6QvCTxx4oknPn3gwIF/8Y3YyupIUZazDHGBISlo4MCggwYODDpo4LCQKTBwWIgLDBAHhqSggYPC4QAGDgk6UIgCByYo0AFBWBgICwKZQoAfCGQl+En4h+EQoAJAEhCASQ2CAFwUEgJw8eEixcXsBwHXULokUJ3MDYKAgLvI3SDYiJxswIOULgkAAh6lVF/A4sWLV/BN1crqaJXMMuzZs2dNKsswBVmGr7/+Wj4x0QFZhmeffbYBnphgWYYgYMgEGnTgEAQNQcCgg4YkgIHDgg4YOCxEAYbDDQ0cFjKBBg4KOljggMAhwQ8OdFAQBAQcBiQIqDAQBgSkN4YFAe65JgjISvCTQDoAyDYEYEIlBGCBYEFhsWFx5pCzyHEB4GKRECCzAbi4sQFgo8Bmgk2nMnkbBAEBN5K3QbAOhSsJtKRUX0Dfvn0/4ZuklZVVWglnGXTgEBUa4gKDDhqiAgOHhUyBIQo0mMChrEY5GnFY8IMGDgt+0BAEClEAwQQGYYAgCgwEgYD0QhUEwkCADgS4L0NZCX4SKFsQwEGAQwAmU0IAFgUWDxZWDjkLFIsZCx0XBS4eXGRhswHVSP/OgNtJXxIABDQm94uDAAGta9as2ZlveFZWVpnLL8uQ6mUozDIU016GuLCQKTBkAxo4LCQBDRwWdMAQBRJMcOAHBRwITDCQFAhIf1RB4JiGAAkCpmyAhIAwJQEsaCx+XCgSAnAh4mLVZQMAAddTuJIAIKA+efsCAAEthFqLO5s9fBOzsrI6fEplGTarWYbvvvvugwyzDMUdGI5EaMB+zZXDFAQKJkDQgYEOCoKAIAwMhAEBEwSoIHBEQQD/IElAgJoNMEGAzAZEKQlgkeNiwIUjIUDNBgSVBAABt5H+xUGAgEbEmgNnzZo1l29IVlZWxVcJZxmiAENcWNABw5EEDRwWdMAAOJDKYdIBQhAYcCgwAUFQZiAIBFQI8AMBDgEqCBQLCOAngPgHiQsBEgTCQkDUkgAWMxY9Lg5cSCoE+JUEAAG1SN8XAAi4jxgEdO3adQDfYKysrI4uqVmGLVu2zFKzDBMnTnwJWYbu3bs/0KJFizpXXXVVddLDAgcGP1jQAUMYaNCBAweGww0NHBZ0wOAHCkGA4AcGYYAgCAbCgIC8sVVBIGkI4L4MZSX4SaC4ECBBQBIShwA/EJAQYCoJ5JC+JIAFq2YDcFHhwsOFiWyAhABZEgAE1CTvo4ISAu4lBgEXXHDBY+KOItEfB2rfvv20xx9/fMqrr746p2/fvotGjx79/bRp09YtXLhw65o1a/bs3r37oNiQEj2nlZVVchJ7wj/379+/M5Vl+FpmGcQ13F99YuK5556rrzwx4QcLSUKDDhyyBQ1BwOAHC2EAgYNBTkphgCAIBqKAQFA2IFMI4L7LfRnKSvCTQPzDJAkBEgRMECCzAbqSAM8GYMFgAWGBBUGALAlICPgred8e6AsBmzdv3sg3gDh64YUXpovj9hXqJ9RfaIDQe0IDUxoEiU1jaKVKlUbfdtttnz/44INTOnToMOvdd99dJDadQ/yYVlZWxVumLMPcuXN7yyxDjx49mrIsA4cGHThwaAgDDkHAkAQ0+MGCCRL84CAMFKhAYIIBtUwgQUDCgAQB+JMEAXiWCgJqNkCFAAkCxwwEcBBQIUCCgKQlNRsQBAEyGyBLAmo2ABOOyceCwEKR2QAsOCxILFwscFwEuFhQElD7AnBhRYKASZMmTeAXcxxNnz59tThuHwoBAToNHz58KT+mlZXV0SVdlmHFihWjkGWYMWNGN2QZ+vbt2xK9DHXr1q0V8b0MQcCQCTT4AUMYSPCDAw4GKhSoQJCTUhAMmECAZwSiZAOyCQFZC36iuBAgQcAPAsKAgK4kgIn0KwlgQanZABUCZF8AIKAapZsDAyHgySef7MovzjjavXt3vjjuu+RAQFgAeF/+70aNGk3mx4yjrVu37hMbyNBWrVp9/NJLL0149913Z4waNWrelClTFn/99derV65cuVn8m9379u2zP5BkZVWMdeDAAW2Wgfcy4IkJ1suQBDT4AYMJFPwAwQQGKhSoQAAYkEAAGJBAoIMBFQTU8oAKAhICVBCQEKBmA0wQIEGAQ4D0UD8I4J5cLCFABQEdBEgQkGkSCQFRswGyJIBJy7QkkAkE1BdqWKpUqQfFhfULv9jiqGbNmiPJgQBTFoCbf6FOPvnkD8Tn+Tc/ZhxddtllOH8Poe5C3YS6Cr2WUhehV4VeOeGEE16tWLFiz5tuuqlv06ZNh4i7j9G9evUa/8knn8zmx7SysireMmUZ8MTEtGnTXFkGzdsfg6DBBAs6SAiCAz8o4EDAswMSBCAJAzoQMPUI8GwAPEvNBvhBgCkTcMxBgCkboEKACgIcAvxKAphoTHgQBGDBBkFAbdJAgLgLTvTXAXv37j1XHPcdSpcCOACoEOACAOibb77Zxo8ZR+LOf4o4bs+UXqcQMCDUOaWXhV5av359op/Jysqq+EnJMixNZRk+S2UZCnsZkGVo1qyZqZdBBwkcDkxgoGYLOBBg75dAoMIA/IHDQBgQ8IMANRsgIUCCQFQIMAGADgKyGvxkQRCggoD8UkEgkGk2QC0JYKJMJQFMPBYAFgQWCBZMJhBQh9IvC2owcuTIYfxCiKNvv/32B3HctylcFsADAAIgFvFjxtHMmTNXieP2EnpT6A1ygwCHAQkEEgYKgGD06NHz+HHj6Kuvvlr68MMPD3z++ec/fOuttz4dPnz41EmTJs2bO3fukqVLl64RdytbxSaUm5+fb3+0ycqqmMqUZUj1MnQdO3Zs+759+z7ywgsv3FunTp2bSpcuXZn8wUCFAh0QBMFAkiDAISDTTIAJArgfFwsI4CCQjWyADgJMJQEOAZhsDgFYMEEQUJMMENCwYcOn+MKOI3FB/Pukk06C+atZAECALgvAAWBwrVq1xvNjxpG4OPPFcd8S6k1uEPCDATU70EWY9Qh+3Djatm3bbnHcFzR6num5MmXKvFSlSpXX69Wr1+exxx4b8tprr41+7733Jo4bN27WwYMH/8OPbWVlVXwloP5nZBl27dr13ZYtW75ct27duO+//37w/Pnz35g6deqL4obs0V69ejVs1arVrZUrV0ZZQsKAWjJQYSAsCBQHCOBey/0468FPaAKBIAgIAgGeDcAA+oGAqSSg9gVgUjG5cSCgFqXfGFiXnN8OuFcsyL18ocZR06ZNx1I6C2BqCORZgMFQiRIlhgjTTrov4aPU51FBwAQDEggAAwVAcPLJJ7+e9E8oX3XVVTh/J0UdNXqRyQUL33333Vp+XCsrq6NHhw4d+iUvL2/73r17V+zYsWPe5s2bx48aNaoFpWEgDAiYsgFJQID0vTAAwCGA+/BhCX7SMBCggkBYCFCzARi4sNkAtSSg9gXkkLs5MAoEVCf3y4JcEPDtt99+yRdeHI0YMWIROWaLLAAvBQAAVAhwAQA0c+bMjfyYcfTWW2/NS30WSIJAFBjosWTJkk38uHHUvXv38ZTuM+B6SSMJClId+/fvP5kfN46WL1++TmYZxLEnjhkz5h8zZsxYuGjRouWrV6/e+OOPP+4UsJj/yy+/2Jc5WVkVkaZOnfosucsEMiugAwEJATlkzgZkAgHyJjdJCDhswc1fikMABwH5ZaKAgC4bEAQBmAwdBGACMZlhIOBqciDgL+R+Y+BNlP4BoTuE7hwwYMBbfJHF0fr163eSY64wW7UUECoL0KlTp0Rr7gsXLtyc+gyAEVmewGcLCwM9+/TpM4sfN45mz569gtJ9BlKvaARIUFUICrfffnt/ftw4grmXKFGCZxoKsg2qjj/++BcrVqzY5aabbur10EMPvffss89+2KtXr3HDhg2bKkAhUVCysrJyq3fv3o0p3TcQBAKAAPiFBAE1G8BLAnEhQPqfCgGqZxYbAJDBAcAEAioEmEDADwJ4NgCDaAIBHQTI5sAwEIBFoUIA6kgSAmqQpimwatWqD/FFFkfiDvG/5cqVwx2/hICgUoALACpVqvQJP2Yc7d+//18lS5bEOQEh+BxRYeDNW2+9dTg/bhzt27cPvQldKf0UgqouGmlhYe/evQf4sePorrvuwjh1UtTRIICCqgJYuOeee/rxY1pZWSWn6iIo3UhoAgFZGgAEwCcAAhICcshdEogLAdLjOARIb+QAYIKAIglu/iYI4CCggwATCHAICJMNUPsCokAAFoKEgD+T++eEq5GhH+Cnn35K9M6tQ4cOE8kxUF0pgAOABwK2bNmSx48ZR/fddx9S7jg3hM8hYUAFARMM9BZ3xr2F2Sb6wqDbbrvtA3I3HnIBELhcsPDll19+z48bR4MGDZpB5tIE9JJGhcAgxumlpF+s1L179zFqlmHChAlz58yZU/DExIYNG7bu2LFj34ED4CDv31pZHU0S63wvOTd2V5Gzv5tAQGYD4As8G5AJBOgAgEOAvOnlWQAdBBQbAEBw8/cDARUCTCCggwAJAjJtki0IAAFKCMDiwEIBBKj9ABwC7hAb6qd8scXR5MmTvyfn7jlqKWAwNHbs2FX8mHE0ePDgxanzQjoQCIQBYbZr+HHjCGUFYr0GGgEQuAoh4ZVXXpnEjxtHwlQ3kjfbUJhxYAIoqCqAhK+++moFP24cDRgw4AsKKEsIPVe6dOmXrrrqqh533313nzZt2gx+9dVXR4u/nfDxxx/PnDZt2tfbtm3bxY9tZXUkafv27UvIuaFDedcEAigFwwNM2QB4RjlyIAA+EgYCgrIAKgRkmgUo8uDmb4IAPxCQX9gEAklCQA6lIQCTi0kG9UkIwGJAKQCLBAsGpQAJATdQuh+gdpcuXTrxxRZHO3fuzCOnhi6zALIUILMAOggozAKIDXwmP2YcrVy5cmfqXDgnFBkGOnfuPIMfN45S70wo7DMwSAKCqkJAuPTSS/vx48YR3sT4u9/9DudwZRqYUJLgKoQFccc+kR83jpYsWbKOgssSnnKEogJIaNWq1WB+bCurI0liH/ucnGwu9nIOAtjrAQKmbEAUCIDfqBAQthQQJwtQLIKbfxQQkF9QBQETBEgQUCEAygQCMJHnkRsCMPEgQVAhFgYWCRYMFs71xPoBzjzzzLsPHkTm1rvoMlW1atUGkxsC1CwATFcFABcE/OEPfxiR5M8V41jiOw5Nnc8PBIwwUKlSpQ/4ceMo9c4EjEtBn4FGGDsuDgg9t2zZsocfO46aNWs2mvxLExAvTRSWJ8RdeF9+zDhCD8dvf/tbQEZn8pYkoJeYtLAgwKZzfn5+oq+a7t+//wQ1y7Bw4cLv8cSEmJMd+/btO5DkGraymjlzJvalauTcyAEEkNnFvo4sL/Z4ZAOw36vZAHgBbgolBCBbHBUCZCkgLAREzQIUGwCQwc3fDwTUL6SCAM8GqBAgQUCFADUbEAQB6tMBOeSGAKR8QH2YeJCg2g+ABYOFU43SpQBkAW7ftGlToq8F7tWr1wxyTEotBcBMJQTosgCFELB8+fJEU7Zt27adnjoPZAIBv6xAH7Gx7+PHjaPUOxMK+gxSAiyZxAGhABLGjRu3mB83jkaPHr2Q/MsSqrTlCfwQEz9uHD3wwAPDKcOSREoFcLBs2bIN/Nhx9Prrr48jfUmiQMcdd9wLFSpUePXGG2/s1aRJkwEdOnT4sGfPnuOGDh06Bb0M9mVOVlEkgBNrDft2dfKCALIB2OPVsoCEAGQDgiAAXgIIgLcAAlAKkBAQ1A+gAoAKAVGyAMUyuPmbIICDgPyiKgio2QAdBPCSgAkCMDESAjBhQf0AWASyHwCLhJcCCrIAkyZNSjRFKu6GkLqFkehKATBUmKwRAgYPHvwdP2YcCaNclTq2hAAdCPhmBT799NNEm+6GDx++iNINhzqpcKAFhTZt2nzOjxtHqcc4PZkGg2RZQlUPYW6JwuTIkSPnkbcUIaWWIiAjKAwcODDRMs7cuXOXkZJl0EgtTXjKFIsXL17Nj2llZZIA4YfIydxi35YggIwu9nPs62pZQO0NwI2gCgHwhyAIgMdICMikFBAmC1DsAQDBzT8TEMgGBIDSTBAAysNEY8JBgIAAtRQAaqxGSkOguENuyxdcHOXl5f2zZMmS0ihkFgCmhlJAUD/AoPr163/BjxlHeLJAHjulyCDw6KOPTubHjaM1a9bAbAv7DEKIA8JbZcqU6SvuJBNLNSuPcfJsAxcvTxSWKNq1a5colKxevXo7+ZcltOUIRQVwULdu3UQhF49hkrckAb1kUCdVffr0SXSNr1q1amP79u2Hv/HGG2NTWYY5s2fP/nbp0qWrBdj9uGPHjr379+//J/87q+KvQ4cOoT+nNjk3bDdRGgRqkLOXAwTUbAD2etkboIMAeIQKAfCPHHK/LEhCgKkUYAIAUxaAA4AKAcU+uPn7gUBYCJAgYIIAUJYKAaAwTASoTEKAqRSACfYrBahZgJtKlChxq9gccvnCi6NGjRqNICdVrEIAjIz3A3ggQMDDEAERidZsL7/88o9xbEUqBASBQP8zzjhjcJJ1XZjtOeecg89R0GeQkgQCkzgUvL18+fJEf7FQmMgX5M06eLIPTIVwcNZZZ/VNcpxwLDFO+O6y9MDFSxE6WOgq1ni3pB9TvP3227FuXJkGgzpz3XjjjYn2S/z888+HTjjhhI7k87QE9L//+7+d/vznP3e788473xHc//4rr7wysl+/fuM//vjjGdOnT1+wcOHCZQK6Ngho/ik3NzfRd01YZaY9e/b8SM4L3G4lp2wLEMDNG0AAN3LYyyUEyGyALAn4QQC8Ap4hIcCvHwD+AwjIRhbgiAlu/iYQ0EEABwE/CJBZABUCMPgqBGBydBBQgfSlACwEtRTgaghcuXJloq8F/vDDD+eRsxn7lQIkBEjDLYSABQsW/MiPGUcdO3acS+mnDUwgICFACwLCbHfw48bRE088MYWUPoOUVCDQyQUFgwYNWsiPG0eTJk1aTppsg484JPQWd6M/8ePG0ZNPPjmevCUIKV6GKChFMBWAwdy5c1fzY8dR3759Z5Ah4+AjWaJ4ddeuXYm+86JBgwZYw53IXYqAPCWIlFxwkNKzijrgNdD8PFaHV+vWrVtIzttbkQWQIFCLnGwAQAA3ctjLq5G7JBAFAuAdOZSGAGQB4C9qFgD+k2QW4IgDABnc/HUQYAKBMBCAAfWDAExIUD8AJheTjCwASgEyC6ArBdz00UcfvcEXXhytWbNmKzl3X9iAZRZAQgDMS0KAmgUohICePXsu4MeMI/zOAKUBgENAKBAQZvstP24cjR8/fgWlGw4hDgM6uYDg7rvvHsuPG0fbt2/PI2/mQZt9YCqEgmHDhiX6084TJkxYSt4yhBQvRRSWIxQVgEG3bt2m8WPH0TfffLOBvNkGV+bBR6/NmDFjGT9mHH3wwQf/IP+SBOBAqqMiIxxMnDhxPj9PHP3www/bkGUQNxzrkWXYt2/f/kOHDtmGSB/NmTPnMzEXd5Lza65/IwcEbiN3NiAKBMATkCHGTSJuFuEXKgScQ+5SQBmK3hCoAwAJAaovHpEAIIMDgA4EkoQADDwmADQmIUCXBcBkguwwwZhoUB8m/goyZAFuvfXW+/nCiyOkbs866yxs0NgIsQFLCMBdIgxDQgAvBRRAwA033JCoseGXBkuUKDGYYkBAvXr1Ev3J4q1bt8JsVQAIEoeBPieeeGK/n3/++Z/82HFUtWrVD8mbeeDigFAICg0bNkx07sRdaC55Mw28DOEqRSgqBIMqVaq8z48dR3hM8Te/+Q2OzTMOXLI04VLHjh0n8GPG0YoVKzaToQmS9E9JBMHBi+3atfuQnyeOAACkZBig44477tnzzjuv81//+teeTZs27de+ffuh4gZgzJAhQyZ//vnns0V8s3Tp0lXr16/fgl6G/Pz8RH+hs7hLADX2xnvI+Sn3uuRkAwACPBuAbC5u6KqRHgKw/yMbjBtCHQTg5hE3kTILAF+RWQBAQJQsAPxMhQAVAFQIOKIBQAYHgEwgQA6YCQIw2Bh0DD4mAZOBSdGVAjCRmFBMLLIAl5D+3QBqFqDmrl27NvPFF0dPP/30GHLudrDhAQKwWWKjViEARqaFgN27dydas61Vq9bn5AaASBAgzHZgXl5eopvPVVdd9RG5nzowicNAIRR89dVXib7O+bXXXpuN44YQh4IClSxZsi/MkR83jq644ooh5C0/GMsQZICDbdu2gZY8x89U999//2jyZhx0kuWJQl144YWJ9gEIY/xP6dKlcS5TOULCAQcEDgaFcHDGGWd0TbjR9P8uuugi7AkFGQYfPWfSpZde+ho/7tEssY9iPu4VqkfOT7mr2YCwEIA9/8/khgD4AvxBVwqAlwACks4CHJUAgOAAEBYC5OAEQYDMAgACMAGYCEwI6AwTxEsBmExMKiYXpAfi880CLFq0aBxffHE0adKkb8nZiJAFwJ2QzAJgQ8bGDQiAaWghYNq0aev4MeOod+/eiygaAHggYMGCBYlCUufOnWG2+M7c8INUCAHdu3efw48bR3PmzNmoHt9HHAgKtXDhwh/4ceNIjNNMCi5FcDDwwIFYk4k+zinuzhaQN+ugzUBo1HPjxo2JvvOidevWn5B/GULCgQoIvmCwatWqLfw8cdSpU6ePyV2CgF4MqRegzZs3J9qPg5/EXrx4cUGW4aefftojAPYX/m+KSlWqVHlUfOf7hOqTAwI8G1CbgiEA+72EANwIwgsuJQcC4mQBwgCALgtw1AGAjCQgQAcAGGQJARh8QIDMAmByeBYAJKfLAoD+tFmAd9999wW++OJo+/bt+8jZVGQWQIUAbMh+END/hRdeSLQx8ZtvvtlGwQDgCwGvv/76V/y4cTRr1qwNpDxt4CMOAIW67rrrRvHjxlFubu4vJ5xwgu85yQsDLr355puJ/rTzl19+uY7ClSB0kFAIBE899VTSj99tJ2+2IYwKAOHjjz9OtK9kzJgx35B/+cEEBxwKCsFg6NChs/l54mjGjBmLyfuYpEmddPrss88S7U34/PPP5xHrfzj55JM7XX755T3q1KnzTsuWLd9/+eWXR4k9cvyoUaNmTJkyZcHXX3+9bMWKFQW9DHv37s1KL4MAkXzxWZoINRJqKNSAzBBwG7khoAY5ezv2+GvIgQDc/GH/BwTAD3BjiBtEQEDULAAAAH4EXzIBgJoFUAFAhYCjLjgEqCDAIUAOSlgIwIBj4AEBmAhMCCYGE8SzAKC50FmACy+8sLZYxImmbq+55hps1thMJAQg/Ym7HxUCsGlzCOh3ySWXJFp/xPvuS5UqNZRiAEC1atUS/clisXH8cvzxxyPjwQ0/SC5D3rlzZ6KPbNWtW3ccP0dIFQDAjTfeOJofM47EOB0qUaIEzzqoQBAEBwUwUL58+YF4BJMfP1MhPX7mmWdiPnjmwU+FGYnmzZt/xo8ZRxs3btxN/qUHExwYoaBhw4bD+HniaMeOHT+T5tHICHq5bdu2H/HjxtEPP/ywg7w9EFLaLASxkoVYn8+VK1euM14FzY+fqTZv3rxRHPtBoaZCjYXup3Q2oB45JQFTJuAGciAA+zsgoCo5/QB/pnQpQGYBcJMInwjKAsBvSlOyZYCjMkwAoEKAHAgVAmTKxAQBuiwAJiUoCwDCC8wC/Pjjj0v5IoyjN954YyI5dxK8FAAIwJ0QNkJszloIEBdmoq+WbdSo0WTyN39fAIB27dqVz48bR7fffjvMlht8WBWM0xdffLGaHzeO+vbtu1BzLpM4BBQo6R6O2267DeltmWVQQYCLA4ELCtatW5do2r1NmzZY4zzrEEqnnHJKX9Tu+THj6IILLgBQFmQYyPx0RGgoOPHEE7vn5eUlmhIXII1148o0RNFpp53WI+lxu+iiizBGL2tkykp0TKkQDE4//fRX+HHj6Ouvv54vjvswZQYBNcmBgOrkQABu9qqStxSgZgHgFeeR/xMB8JzTKHwz4DEJADIyhQATAMhSgJoFwIRgYjBBsbIAX375ZaJvTJs/f/5KcqhdzQJICMAG5QcBfT/55JOka7bLyGv4oc0fmjx58lp+3Djq06cPzFY2P6riRmtU+/btE33V7XfffbeNnyOi+k2bNi3RcXrnnXewGXrKDUwcBjxQMGLEiER/Q2HcuHFLyZtxMAIIlxjrrfyYcfTCCy8AcrUlh5SiQEEBDOD13vw8cfTmm29OIeemQGYa1MxDYfbBT3jqgR83jjp16vQZeWHjFSbsZVIcEDrVrVu3Pz9uHI0ZM+ZzcdxHhJoJPST0AKVLAioE3EVpCLidHAi4mbz9ACgFIAuAvV9mAXBTGJQFkAAgswDwHdyAhikDyJtaCQASAo4JAEBEgQBJSn4QILMAGPwoWQBMsMwCgP6uJJYFePHFFx/lizCOcnNzDx1//PG4WHDx8FKACgFIjXogoFWrVonWbNesWbObvKZvMn8dAAx47rnn/sGPG0eLFy+G2XLz5+IG69L555+faJoWd1ennnoqsiQ4Pv8soT7X888/n+g4ffvttz+SJtOQEgcBIxA8+OCDib6uePPmzfsobfSe82nkgoP+/fsn+s6LqVOnriRNuSGlICjQAgF+4IufJ47EjcFacvcjRNbgwYOT7k3AzYEffMiMBc9aFMJBx44dx/DjxtFrr72GfaklRYOAv1H6PQE3kb4UcDWZswC4YTyPvFmAM8ndDOhXBihJwX0AxwwAIMJAgBwcFQA4BGSSBcBkYlJBd5jkS8mQBShZsuQNBw4cSPQNZffeey8WMSAAFwsuJFzAuLvA5oJNBxsQNicPBJx++ukDE34M6b9ly5b9kIKNX2v+UMWKFYfz48aRGO///O53v8Pn4OYaymil1q9fn+jPAz/88MO4k+SfI0iFnycbPRxinDAv3Px14iBQCAOlSpUagDHnx4+jiy++eKg8vua8XC4gqFOnTqKmsWvXrgPkLjVIGNBBgQ4IPBkC/MQ3P08cpRpNcWy1/BBJd911V6LXoRi3/eRtmoQ4fOgyFQVgkHTD5D333IPzPSrUSqiFUHMyQ8A9lH5EEKWA2yhdCkAWAKWA68jdECizAPCES8i5ScTNol8WQAKAWgbgAKDLAnAAkBBwTIQKACoEHI4sACbSlAUABVYm5TcC1q1bN4svxDgaNmzYDHJSZWoWQEIANgE/CHh3+fLl2/kx4+jJJ5+cSV6z59Kav9SGDRv28uPGkbgrnUQaU4+ikSNHJtq/IY6HOyJu8GFV8JmS7uFo2rTpRHlsjTgEGGFgyZIlSafdsaY852GfQft5jj/++H779u1LtMZevXr1EeQuNahAoEJBEAwUAsHOnTvxa0Kec2UqYW74jGrGIZIEQLwJkODHjaMaNWoMJm/jpJQKIDpA6Dpr1qwV/JiZCu9MOO20054Wx21L/hBwPzkQcC+l3xNwBzmlAGQBbqb0UwGmLAD8QGYBcKMoswA6AIDH6MoAYQBAQsAxBwAIHQD4QQAGjUOABAAMNs8CYFJ0WQCkcmQWACkemQUA+V1J7ixAtfHjxyf6WuBVq1ZtIqdpBhCALICEAFw8uLBwQWOTwcbjgYCk33cvvt9q8hq+zvS15i/Uf9SoUYm+xnXEiBFLcdwMVWAszZo1m8SPG0fr16/fS97vHkX9k+7h+PDDD7/DcQPEAcBjvH369PmaHzuOpk6dukZzvtCaPXv2Bn7MOOrZs+cc8u9BiAwD4jsu5+eJI3FdzyN3tsEkD4xIzZs3L9HehF69ev2Dn4NJhRAPHKxduzax38HYtWvXPnHMJ4QeIy8ENKM0BKAxsCE5jwjqSgGmLEBlSmcBkBGGJ8Ab4BG4WYRnmMoA8BrcdAIA4D8AgFLk+JIFAJ/QQYAOAHgpwC8LgAnwywKA4mQWAHSHLABoD5PuyQI0atToPr4Y4+jgwYP/Of3002H8L5G3FKBCAC5wDwTUq1cv0RTptm3b9pPX5HXihlZgalDz5s0T7U1Yt27dHnnsiCo0kVNPPXVQ0p3R559//nDyjkFY9W/ZsuVkfsw4Ehvsbhw3pDxGm1Lf2rVrJ7qm8GSIcnz+OQKFty/yY8YR3g5JPn0H5A8CWhh47rnnJvPzxNGyZct+JLe5y+s/tLp37z6THzeOFixYsIGfg4l/XhcY4KfQ+TEz1fLly9eKY7YjPQQ8Qg4EPEjO0wG6UsAd5G0IlFmAv1D65UC4CfwTuZsBeRlABYAzKLgPQAcAEgKOaQBAhIUAFQCiZAEAAJikP5CTBcihdBYAEwvCw0SrWQAshKqUagbct29foinSJ5988kNKZwF0pQAjBPzP//zPu0m/775y5cqjyWv4JtMvMDNVaJAD2PDjxlH58uWH8vMYxA2tUEuWLEn054E7dOiA1DYfi7DqX6ZMmcFJ93Dk5OQMk8cPIc8YQdlIu9eoUeNjzflD6eqrrx7JjxdH4nr514knnohju/oNUtKBgAoDWhC44IIL3uPniSNcP6VLl8bnkeaqQkcoXXPNNUP5ceMI+4zYbzAW6hhoxyOlQji4+OKLEx2fKVOmfCWO+zTpIaAlORDwMDkQ0IScUkADSpcC6pI+C1CN0i8Hwo0fbgAvJ3czoCwDSADgZQAJAPCcU8jcByABQM0CyBtcCwDkDwAcAngWQAIAzwJgclQAkM2AmExMKiYXkyyzAFcQawZcunRpoi8omTRpEhZzR3JnAdRSgIQA0DSHgLfmz5+/kR8zjsQd11zyGhaXZ6NOqcBExB1Mor0JTz/99HR57EyF5/f5ceNo8uTJa8g7LmFUOF7iTiaxtCjUrl079JT4zY9nrjTqm3TaHW+JZOfmY+Ir/DgUP2Yc1atX71N8T0VhQMA3I7Bhw4bd/Dxx1KpVq8/lsdn5Qmv79u1Jj9sY8pZM+NjwMerdqFGjRLNK4loeL47bnrwQ0EaoNbn7AZAFkKWA+uTNAqAX4CZKvxcAZQCZBcDefwV5ywDwCtw0yjJAUn0AxzwAIMJCAM8C8DIABhwDjwnARKhZgDMp/COBoMDCMsCQIUNe5AsyjvC74uS8PUvNAshSgAoByAJ4IKBnz56JNibOmTNnE2k2YfIaiNFIBgwYkKjZCkhazc8RQuoGn3hqe+fOnfkUzdD4uPUfOHDgN/y4cTR+/PhV/Bw+4uNVOG5ZSLv/kDonH5NQ+vzzz1fxY8bRoEGDviH9OgmCAG52hWY7evToRN+h8MknnyxRj8/O66fCzzpx4sTEGu8g9ByRt2Sik2u8xHpK9LHXNm3aDCHnVxPbUxoCHhf6OzkQwEsBTSidBahHTi9AHUq/HEhXBqhK+jJA2D4A+I0FgAwiCgCEyQJgApAFwISUJnMWABMKssMEg/TUMgBIsIrQXypXrnxb0u+2vvLKK2HwL5K3FAAI4P0ALgioVq1aos+55+bm/vOEE05Ayp8bBhc3jsLN9M4770z0x5N27NhxIHVsfj7PuU3KRmr7+uuvH03ecQmtu+++O9Fs0k8//bSfn8NHfPwKx7Fq1aqJvk42lXZHM6nH3MPoiSeemM6PGUcrVqz4KfVdTWtHBwK+ENCsWbNE53Ljxo172Hk8Bh+kp556ago/bhwhY0XesTKNW+HYCTj6jh8rjsQejD3weUpDwFNCT5IDAWopQGYBHiD/LICuDFCV9E8D8D6AHNIDALwGAADvkX0AUQAAOmYjCALClAEw2KYyACYJkyWzAAAATCYmFWUATLIsA3iyAGKjTbTrt3v37kitIQvQkfSlAN4P4IKApB9DqlOnDlKkYcxCt3n2xQ/mACT4cePo2muvHcnPE0EFG1LSqe0ePXrMI6+xhpYwxQFJ93BUqVIF4+Q5FxOfQ89cAib4sePonnvu+Zw05q7I2GeSk5MzNOnfKTjjjDPeJ8N3T4kDgC8EZOPVxRdeeCE+o5/p8ztvl8qWLft+0uP2+9//no+bSYVjuWDBgsR+ARPvvChRogRulLBfPifUQegZciDgCUqXApAFQCkgTBZAVwbAXl+Z0r8PAC+AJ+DmEB4hAQDeYeoD4ACAm1I/AJAQYAFAkQ4AeBmAQ4BaBuBZANDZ6aQvAyALALpDFkCWAWQWADRYVeja+fPnf8AXZhx99dVX35FDtDwLoCsFeCBg6tSpiab6+vXrh1Qfv6C1FzdTIf3PmzdvIz9uHHXr1m2O5nxc/A7EpS5duiRaLkmltuWYcJPViY9jP3Sl8+PGkfiOGCd+XuP5FbnG8osvvkg07Y5yB2nMXZFvs+maNWsS/Z2C1q1bTyb/MVDXjg4CPFmApUuX/sjPE0fPP//8NOV8fobvWetSa9euTXTc8PQKudcU5oevM9d627JlCyjXc6xMtGnTph3k3CR1pDQEtCd3KUCXBWhK6ScC7qV0M6BfGaAK6fsAAADIFsMv/AAAfmMBIIPQAQCHgChlAF0WABOFCdOVATDBsgyAiccCwELAgviLuGNP+rXAB4477jgAAM8C6EoBHghI+jGk1Pvuubma5Nl0IGHYSZvtRn6OCCrYKCtXrpzoG9JSqW1sgNxIQqtHjx5z+XHjaPbs2Rgnz3l8xOezQM8880yiaffvv/8e6WOPsYfV0KFDE00jjx07djl5x0IdD8/6SUk1ZBcEDBgwINGfxJ4yZcoq5Vzc9H2NP6W+I0aMWMKPG0d4fwU5cyKBjcs1byVLlhx46NChxJ52EfvASnJukHCjhBsmWQp4hvRZgEfIeSJAVwYAAPyNzE8DVCF3H4AEANwgSgDAjWMQAOAGVAIAbkwtAIQIHQRwAAhTBsCgAwAwCRIAfk/6LICuDIAsgKsMcMopp9TIF8EXZxzddddduMh5FgAQgCyAWgrwQEDFihUH8OPFER5DEt8RNVuPMaTENxqpws3pmmuuSfR1t0iVC7PFBs3PqT2/Sdu2bUu6MxrlEm4iQSocy+uvvz7Rx9xSr5LF5svPycXn1DW3FSpUGMKPHUdYU6n0scfcw6hRo0YT+THjKPU7BXxM+Ljo1pURAO64445R/DxxlHp1sc78+bqX4nPZt2nTpuP5ceMIb7CktNljj+ByAcG1116b6M+EC6CZR86NkYQAtRTwNLmzAK3Jvwyg9gGgDMABoCqFbwTkAPB7sgAQK4IAIEwWIEwZAJPmVwYA9XnKAOJCSPTObciQIV+Qs5DVLICuFKCFgA0bNiSa6nvkkUcmkneD0YlvToWb5I4dOxKtIwtIGqM5VxgVbtoTJkxItFzy/vvvLyLNxhtFO3fuTOx30qG6deuOI6+xcXPj4vPaJ+nfUGjRosVkcqeOQ+vkk08ehPovP2YcXXrppcPJPD6mNa41f+j4449/O+lG0xo1anzEzg/xueJzWahSpUq9l/S4XXzxxfhM0vAHMbmAoGXLltP438fRyy+/PJ6c/RA3R9gjO5I+C/B38i8D1KNofQCyERCegJtDeARuFiUAwENwMwlPOZ38AQA3pxwAJARYAFCCAwCHgDBZAF4GwKQgC1CGYpQBpkyZ0osvzjhavnz5OnIWMRYzsgAdSV8K0ELAJ598kugjZaNGjVpK3o2Gb4Zc6t3RO5MmTUrUbAcNGvR16tj8vJ5zm9SuXbvJ/LhxlOoo92y8IVQ4ppMnT0603t6/f3+MEz+fSXx+CzVy5MhE08d4TTR568Qeszdp0aJFidbYO3bs+CVFAwB1LXkAAJo7d26ir+DVvLoYUj8bn09VBd8LvxbJjxtHzz333GzyGr9WvXv3TvSR4LvvvnsoOXuhLgvQnpwswJPkXwYAANxL5j4APwBAVjgKACDrDACA/1gAiBhBWYAwAIABlwCQWBmgdevW9/PFGUf5+fn/OuWUU2D8MgtgKgUAAlQAKIAAcXc1lh8zjjZs2LCHvBuPTh6TpdTG2L59+0QfQ1q2bNk2zbmCpG7Ub+fk5AxMujMav8xIGgMNqw4dOiRabw/o4fCcX5Frbps3bz6BHzuO8ENR5AWA0CAgzCTR3ymYMWMGoDus+atrXWv+Qr27des2k58njubPn7+JfQZI/Xx8fqUKwebtt99O+meV14vjopwTqPHjx6/hfx9HZ599dm9y9kA1C4C9EjdOHcjJArQjcxkAACD7AO4mdx+ABIAa5DQCqgCAG0D5JAB8Af4An4Bf5JAFgKxEEABICJAAoIOAoDKAzAJIAAhdBsjNzd3BF2gctW3bFhfNs+TNAqilAECAJwtw6qmn9k76MaSKFSsOIf0GaJLLbMuXLz+IHzOOUEcuU6YMzMJ1nqhau3btTn7sOHr00UcnkddMg1Q4rmKcE/1JWayD0qVLowbLz6kTN5dCiTU1IOk1deGFFw4jx5g4AATq5ptvTvRlTnv27DmY+izcPHVjo1vnLvOHqlSpkugTQniH/q9//Wv+Wfgc8s/vAoBbbrkl0XHbvXs3xk2a/GA/LV26NLG3Xe7duzefnD0P+5+aBehIzk0T9k4AwFOkLwMAAJqQ0wcAALiHnD4ACQC1KPhJAB0AIHMcFQDgTRYAAkIHABICVABQIYADQNbKACtXrkz0DknQ8ixyKNaUBcCCl1kADwR8//33W/gx40jzGBKXx1xTKtwY169fn2hvQqtWrSZozmeSukEX6qOPPkq0XDJmzJhlpDHQKBLjlOirZH16ODznVsTn9x2xgSf62xft27efQe60e2gYKFGixABh2of4MeOoZs2aH5Pe/NWx0q15j/lLbdu2LbHH3qB77713bOrc6lyFBgAxbv2FeSY6bjVq1PiMvIaPGwZVgwUsJHZesb/9SM5eh31PzQJgj8ReKcsAT5G7DCAB4CFy+gAAAA3I2wgIAKhJTiOgHwDAE8IAQGkKBwASAiwAaEIHAWoWIAwAqGUAAAAmBZODScJkYdJkGQCTiUnF5GKSjWWAUaNGdeKLNI42b96M1C0WsMwCAAI6kj4L4IGAgQMHzuHHjKPUY0jcVE3yGC00cuTIb/lx40iY7Xf8HFHVtGnTRN9UmOoo5xu0nzxGm3S9/eOPP8Y48fPq5Pksqt57771E08dffPHFamIGFUUzZ85MtMbeu3fvr1KfxwRK6njo1rpq/r2gSZMmJfpTz4MHD16YOj+fO/6ZjRDwj3/8Yz0/bhz17NkTn2kweU2/UGeddVaib5QUa2cZOT1PahYAAMDLAE+Tvg9AAkAjcr8QSALALeR+EkAHALgZlACAm0QLAFmOIACQEGAqA0gAwOCrfQCnkR4AckhfBgAAuMoA1atXv/2XX35J7BlX6I9//CNMHosYNCtLAZ3I3RCohYC77ror0efcU48hcaMPNH1SNsWHHnooUbP94YcfUEfm59PJdVemqlSpUu8m3Rl96aWXfkAaAw2rZs2aJfq4lk8Ph+fcivj8vi3WVKKPceGJB/IxqiC9/PLLX/JjxtGiRYu2kN74+Vjp1rzH/KGnn3460UcWV65cuZ19FhME8HEtHNvOnTsn+l6OBQsW4G7cY/pCuA4KVLt27Un87+Lo3XffRYa0J6WzANgDsR/i5qgjuZ8GaEfuPgAAwMPkNAICAO4j95MAOgC4lpxyLwDgSnK/C4ADALLHFgCyEFEAwJQFMPUBYILKkH8ZAABgLAMIk1zNF2ocde3a9SPSZwEAAVjoEgI4AHQ7/vjje+Tm5iaWcoNq1KgxnLzmapLObN/Jz89P1GwvueSSQfw8EVSwSS9evHgzP24cvfTSS9PJMQhuqjp5jPaUU07pl3S9Hb0FmnNzeT6Lord+9atfvZOF1zpjjXOj4vKYP/SnP/0pUcjdv3//v0866SSUGDI1/0LjJ+fNnG+WK1euX9KNpmeeeSYaIdXPZIIAHQj0u+KKK0bw48ZRXl7ev0uWLDmMNMYv1b59+0QflW7Tps3n5AYA7H+4GcK+iP1R7QNoR95GQAkAaAQEANxL+kcBOQDghu9KsgBQJKEDAA4BGDQ1C8ABwK8MAADAhIUpAwAALielDCDuIBLdkObMmbOInAUsswBqL8BLFFAK+OqrrxLtun3jjTdA3dzodRshV+HG+N133yXam/Diiy9O1ZyPS92YPerTp0+i5ZIZM2asIa+BRpIYp0Tr7ZoeDs85mfjcFmj+/PmJ/oZC9+7d55C/Yflqy5YtIBLPcTNV48aNPyO9+evGxrTGCsw/pTfWrVuXaIOwML+Jqc+RMQQk+UpeqF69epPJYP7QoEGDlvG/iaPrrrtuKDlvP1XLANgHcVOE/ZH3ATxBTiOgBIBm5H4j4L3kPAnAAeAGOrwAIDPXFgA0oQKACgGZAEDUMgAAwLcM8Pbbb/+dL9Q42rt378/k1LDCZAE8ENCzZ8+p/JhxtGDBgo3kNVeTPEYL9e/fP9E7gZkzZ67i54iggk36tttuS/RNhamOcmkS3Fh1RuJRll4ly88f6rOQMq+vv/56omn3CK915iYG9fn0008TrbEPHz78WzLf9avjpFvrLuOXGjFiRKLPv48bN24p+0w6COAg4Bo7MW6Jvpfj/fffx2fixg+TLpC4ThP7ESBkQX7961/je2Oc/foAdADwKOkfBbQAcAREGACQEKACgAoBOgA4hfSPA6IMkEPpPgBeBsAiuIJSZYCzzz67hliciabda9eujTTXMxQ9C9D1L3/5S6KvBU49hoSNhpu9bjP0GC10xx13JJp+3L17d77mfFzqxuxRiRIleu3bt+8gP3Yc3XzzzR+R10jDqnfdunWz8SrZIKMvPL9J2fjJ6V/96lcwJZ1pBapt27aT+THjaPXq1TvI3/jV8dGtsULjJydF3fPBBx9MtHdC3L3vTX0OHQRwEOBjVgAAjz32WKLv5Vi+fPkuMpg/tHbt2n38bzKV+P5otMX4Y7wxxrwPQAIAbwSUANCSzABQl9IvAwoLAPCEOAAAX7IAEDKiAIBfFgAToJYBAACYpDKk7wPA5GKSQXuYdFkGuIKUMsCPP/6YaKf0oEGDPqMYWYDt27cnmiKtX7/+JxRs+HxTdJlt0o8h3XTTTcP4eUKqcLOeNWvWan7cOHr77bfnkHucQpssdPzxx7+VhVfJDtd8jqDPw+e0V9I/OX3nnXdiTfG7V51gYKqpvfuHP/wh0R+YQb3+nHPOGUjhzV+3ngqMX6pUqVK9km40veyyywYrnykIAjgI9D3rrLMGJzluONYZZ5wB6PUAgLjmh4nvn1hPi5KJxPirAIB9TwJAR/ICwGOkfxcAAKA+mQGgOvkDQNwMAAcA6V0WADShAwAOAWHLALo+AEwWJo2XATC5sgyAPgBZBricHADAwqj65ZdfvsMXbBwtW7ZsJTkLOCgLoIWAyZMnJ/rLaUOGDFlAGlNg4kbrMtvZs2cn2pvQu3fvWZrzcal3Zh516dIl0XLJN9988wN5zTSsCsYx6VfJpno4+Ll04vPpmttp06Ylmj7G44Xkb16+WrlyZWIvmIGeeOKJL8hs/Or46NaWav5ITxdo8eLFiaXAoc6dO6OnA5+FQ4AfCKgQ0Gf16tWJvgSrdevW/yDN3b+AlUTfTDpq1KjF5HxnzAHGHGMsAQD7H/bDjqQHgDZUNACAG0wLAAmECgCmLEBYAMAkYDIwKZgcTJIJAMqR93FALAAsBCyIq4SqPPPMM034go2j/fv3//Pkk0/GIpYAECUL8Nqzzz77KT9mHInNdht5TYFviFwus+3atWuiPwqycOFC3BF4TD2kCjbrK6644j1+3DhKdZRjM1bHR2ciRnXv3n0mP24c+fRweM6tiM/lmy+++OJkfuw4wguGyGtcoSWgdBE/ZhyNHz/+e9Kbv25cXOsopULjp9Qruvv375/oo3czZ85cnfpMKgREAoEPPvgg0fdyjB07Fp/JAwCNGjWawf9tHAn4mUleAEAfAAcA+STA4QYAeIYFgCxGEABICJAAoIMACQClKPrjgJhw2QdQidJ9AJWPO+64v4jNP9FfTmvZsiXqdljEsgwQOgtQrly5t5J+DOmMM87ABuIxBo242RZslJUrV070tcB5eXn/+u1vf4uNkJ+LS92kPdq6dWtidUqoSZMmY8hrqGFUMH5Vq1ZN9LXAqR4ODiVcfA4983nRRRcl2luCRx7x6COZzctXDRs2TPT9EmId/EzBd/3q+jYav1Tt2rUTfS3wnj178lOfR/2MOhAwQoAYt8/4ceNo8+bNeaQBgC5duiTaBFm/fv2xqe+G74x5kACAsqcEAOyL6qOAOgB4iIoGAEpRGgDgRUEAAF+zoUQUAPDLAkgA+B15HwcEAMgsgNoHgDIAJhxlgD+S962AVdeuXTuZL9o4+vTTT6eT08mqlgGQBQAAdCRzFqAAAtavX59oirRt27afk9ccdBuj0XzFJptob8L9998/mp8jol4Xd36JvoHvww8/XEjpMeFGy81Eq6RfJXvfffd9HOFz8Dks1KZNmxKF3ObNm39G3jvYUBJQ8y4gkB8zjq6++uohFHzXr65rnfHDlApUokSJHkk3mtaqVWt46nNBfhAAeUCgZMmS/cTNSqLjVqlSpTHkBoBho0aNWs3/XRylfpcE30kCAMZfBQDsgxwA2pH7bYAqANxP/gBQjQ4/AMgstgUATegAgENAtsoAAICK5PM44Lhx4zrzRRtHGzdu3EzOAs4oCzB69Oj5/Jhx9Nlnn31HXrPgG6NukyzUxIkTE+1NGD58OOrInvMYpN6pFerJJ59M9I5ozZo1P5F3jMKqYOzwylN+3DhK9XDwc3Hx+fPMo1jji/mx40ip65oMzFcLFizYxI8ZR127dp1BmZt/ofGnhPp0t9mzZ6/k54mjd955Z3bqM3EICAMCBRCwcOHCRHsTXnzxxa/InQUYJs6xnf+7TIWnRlKfHd9FBQCMOwAAe15UAAjKAFSjYACALwQBAG4yLQAkFDoIUAFAzQJgUDkEqACACcHEYIIwUZgwXRkAAHAeeR8HrETK44C1a9e+gy/cOMIrhgX1dqQ0AITNAhRAQLNmzRJ9D3fqMSRuDjpx4/3/7J0HtBVFtvf3QuSRBAYd9TmKFxQVEMasBAUTmEBFxUFHBEUFEURlGIFRrpLuJeckIDnnIFwyXHKSDFdyBokq6rx586319f/crnOqd1X36XOqMMw7vdZ/zRqB3XV2Vdf+VdWuqmiH2bJly1ncrol27959QvOe6PvCqESJEv1sZ0Y7NsMsl3C/RfXxxx9bvWTKzeEI/X5SfRlRs2bNrOaW4KIoUgNXaPXq1Sub2zSRE6z3kDo7ovNJUPCPBH5XmRkZGfP4e0y0adOmg+QtXxAI6CCgX58+fVZxuyZatGjRQWIAcOLEiYv87yUrJC7Srw8A6OvvID0ApFF4AEAMSgFAkk8iAOA3C+AHAPIyAM8DQCUDAEQeQHnSnAp45swZqyemtW/fHh+TvAygSwbUzgIUK1asq+1tSHfccccQUoNFvMBxqYMtOjUlsMeRPGXb1elgjnPbJnJAZzapvgmtkiVLDrwEORzoQJV3SeL1ptThtdde2we2uH0TlS5dGm1KDl6hgeCxxx6zepjT+fPnf86bN69u5K+0ZVKDvyfwC917770D+XtM5HzT/7riiivgI5SLQ4AMArKvPBBQvXr1CdyuiZx+75958uQRwX9U0aJFrQ4+FixY8A3lAgDKj9+D34n6CAMAH1J4AHiK9ACAQZ4AgPKUAoBf7dEBgIAAGQDkWQAOAGIWABVSjMy3A2JqKLIMsHnzZqsf1tKlS9dQ8DJAOukBIAIBW7ZsOcBtmsgBkgWkBo6g4MEDbzdMkXO7JsIUPn+HjzxBX9bYsWOtLpd89dVXW0n1kZ+4zyKyfZRs8+bN4adQ73bF/RfRrl27rB5X3Lp163mkjmBDywk+1kaa0PPPPz+e9D7StSMe/KOBn9wdOdCxY8fO8feYqEGDBpMpVr6kZgOQUMjtmqhGjRpzyAWARx991OrFVoMHD15HubsYdAAAvycCAG+SCgDPk/9dABVJBQDEAAEAmCFOoxgAYACJgWSyACDiWAoANE8QAAgICAsAqAwAACoHACCWAXQAIJYBAABYBgAAVCC2HXDIkCEteOM10bfffnuOYgAQlAyog4BOzoezlNs0kQMku0nfOeqkBA9HXceNG2f10CQk8WnewzvqQNWrV88quCHZkVR/JKTx48dbzaKeNWsW/KS8h4n7UPHnqFGjrB5XPG/evB3kHcHqgpivFi9evJvbNBGOrSa1bevalF/wjwZ+V53mzp1rdeud8w0hIKJc8rfIIUD2oTIbsGjRItvncmwiFwAc2LS6/dGB/IWkAgB+M+ohHgB8QP4A8BcKBoAq5A8AiAUcADBzLAAAA0oBAIgzAIArKAUAxo8OAmQAEBAgAIBDACoAFVGEElsGAADolgHQMO519ECZMmUe/flnHHinNuJkVb16dXQqYhlAzAKIZYCgZMCOzz777JfcnonOnTv3I6lBQycePKKd5xtvvGH1uFts4xO2E5TowLsUKlSoO85e4LZNdN999w0l1S/xFPXXW2+9NZnbNJGbw8Hf53mnRtxnXf/6179and49efLk96QGrtBKT0+3erzt1q1bj5DeP0q7oeDgj6AUUcuWLafy95jITTRFmUQZOQToZgM8EIDbK7ldE23YsOE4uXkA/fv3t7qz5vHHH59M5gDwLoUDgOqUHAAgVnAAwMAyBQCWn0QAIGgWoAjplwEEAIhZgLDbASPLAMePH7dK+86IZCp5lwFCzwLkyZMnw/Y2pKeeemo0qUFE12FqA0mRIkV6Yh2T2zXRPffc84X8jgDJnbdHTgdmNX8DBx+R6huduK8iuhRHybo5HIHvJdVnHhUsWLA7zhbgtk1UuXLlEaQPXnFVrly5odyeiXB1dfHixRFkZB/p2o9f8I8GflcdS5Qo0d1m7ot7dDGCIcom6jNoNkCeNYlAQPny5a2eN4G2Wrhw4TGO7VHz5s2z+i394Q9/AEzbBIDXSQWAmuQFgKqkAgD6+/IUAwAMCk0AAHEpBQAJPjoA4BAQdhlAAMAfKH4eACoaAICKF8sAaBB3UiwPoOLKlSsH8QZsok2bNm2j3IacTDJgxxUrVlg9wtWh++WkBrGgoKIEka+//voAt2uijIyM+fwdTErA5+rbt+8SbtdEjt+RuMR9kZBsHyXbsWPHLP4OSdxnvr5zYGkft22irl27LiYvACQk2+cTNGrUaAqpfpF9ECb4R74/oT179ljNnfj73/8+k2JllL9BPwiQQSACAYcPH7aam1CvXj1A76hdu3ad4X+WrE6ePPmDY3MQXToAeJHiAwAGeBjoob+/nVQAwCAxHgAUIS8AyKP/FAAk8CQLABAHAFQKKkcAgJwHIC8DpFHI7YDp6ekNeSM2kTPa+jl//vwI/nwZALMAcjIgGr8AgCgEdO7ceS63aSInKB2kcIHfL6h0GTBggNXcBCfYIjdBeU9IRTrzJ5988ktu10SYecmTJ0+Qb/wU/Q22j5JdunTprqD3MXE/ReXAktVjXletWrWX1MAVWtOmTbN6PsHkyZM3kOobT3sh/+AvB358gxGNHz/e6pXYc+fO3Uyxsom69IMASIEAXDHM7ZpoxIgR2x27o7Bvn/9ZsnJg8yjZA4C3KQYAr1IMAJ6jXAB4knIB4BHKBYDKlLvDiwMA+n8BACUpGAAQW4qRFwAQh/j0vwwAIpalHp9HBwEyAAgIEAAgIECeBUBloFIwC4BKAqnFywO4ifR5AGIZ4IF8+fI9ePHiRasn3r355ptI3EFjTngZ4P777+/P7ZlI2oYUJrjxoBLpSJ9++ukR3K6J3GAbGLQ0Eh15VGfPnrWdUY4pUe4TnbiPIqpZs+YobtNEbg6H7/tccT8pPqtRo8aX3LaJnICB7XcIUiJwyVICvqvo33nvvfesnk+wf//+b0nvk6SCP+R8w1br8vjx4xfcMokyirYUGgKaNWtm9byJnJycszfddNMk/t9NNGXKlB2UPAC0IO9tgBwAXiYVAB6ncACAOMABQN4CmCgAiEFrCgBCPIkAgIAADgCoCAEAqCAAgFgGAADolgEAAKUpznbAffv2WR0hTZo0CVO3AAC/ZQBAgA4AIhDgdBZWp/oaNGgwidQgxsUDiye4IBhxuybCueuy/QApgV9o2bJlVpdLnBF8Nnk753j+8ciBmm62czgc+IKflHe54r7y9ZltWHrhhRfGkRr8Q+maa67p99NPP1m7eha65ZZbEHBkn4jfnmjwj8zIFS5cuJPtRNOKFSt+QbllE/Un2haHAEiBAMdvg2ye64DchEaNGi3h/91EnTt3XkW5ADCQYocBmQDAG6QHgGfICwAPkRcA7qTcGd/bKQYAiAcCABAn+BkAAgCKUuKnAKYAIODRAQCHAOHQIABAhaBiAACoKL4MwAFALAMAANAI0BjQKNA4AACRZYA5c+Zk8oZsoj179hyg3MYcZhmAQ0BH29uQxo4du5bUgMYVGFycYGv1iNRBgwYt4+9gUoIYV/v27b/idk20ZcuWQ6T6IRF1yc7OtrrNbeDAgfCT8h4fKT4Ssg1LQ4YMWUH6teww6r5jxw6ra+yffPLJbFL9IIJ/EAB4Ar+sr7/+2upVz05wxMBAlFHUZVgIiMwC7Ny509qRvdD06dOtbi90BhtzyQ4ANKYYANSjGAC8QDEAeIJyAeBhigEABnXo2wUAlCMVABAfdACAQWUKAC7BIwOADAF+swACAGQIKEz+ywCoQL9lAAAAKl8sA6BR3EHS7YD16tV7gTdkE/3888//LlGiBBp1UssALVu2nMJtmkjahuQnHmCUINOhQwerR6Ru3rz5IH+HJCWA6fTnP//Z6nIJMsr/8Ic/oMPlvgiSp+yZmZlZ3K6J3BwO7buYFP+4igRA27C0devWw+QFgIQ0fPhwq8fbLliwAMm33A/JBH98ixE58GV1y+LKlStzKLdcos5EvXIIgGQIiM4C4J4IbtdEzmDF6mzjnXfeOZ6SAwD0kwCA5qQHgFcoBgDPkh4AKpEeAND3JwMAhSkYAETcSgFAiCdRANDNAsgAoFsG0AEAKr00+W8HxJRRpfPnzx/mjdlEzojkS1IPBYq3DBCBgEu8DUknHtSUYON82IO4XRNhG1LRokXRKYQJYlzRkd2RI0esZTBDjRo1mkyqL3TiATiie+65ZzC3aSLkcBQpUoT7KYzP5NFv5h133DGA2zaRC0vo2JXgHkYvv/yy1fMJvv322+9J//uTCv7Q008/bbUu3dwXUWei/kR74hCgmwXo9Ze//MXqeRM//PCDta2r+Kad3zeEEgcA9I06AHiLvABQh2IA8DTlAsBjFO4qYMQAxII0CgYAxJUUAFyCRwcAAgI4AMizADIAoEIAAToA8FsGEABwK3nzAMQyQCQPYPv27VZH3QsXLlxB3mUAAQChlgFsb0PCxT6kBv5Qwd9V56NHj1rdvvXWW29NhN0E5Alq0IwZMzZwuyaaPHnyelL9Ec83Htk+ShaHMfF3uOL+8fUTZLv+3n777SnkbUtKoPdRt3z58vX47rvv/sltmqhatWrYf85/f1gAkIM/vseIzp49i0QA5V3Jqnbt2iMpVk+iHkXb4n5UIOC//uu/+tg+18GW9u7de84pI/IcZAAIkwQoAOAjygWA9ygGAA3IHwBqkHoPAPpzzO5ilrc8+R8DjIGivAOAAwDiTGFKAYC1JwgABATAqfIsgB8AgM5QUZiuSTQPoBzF8gDEMkDFUaNGteIN2kQnT578lmIAIJYBBADEWwboMG7cOKvbkNzz7nnwTwgAZs6caTU3YeLEiWthN6SUgAY1b97cKrjt37//FKm/PSHNmTPH6jY3py2s4e8g1T++PhJyymW1/iZNmrSe1PbEgxj/71GtWbPG6hp7z549F5LXD0bBH1q+fLnVq56HDBmyjHLLJupM1GdoCFi7du0Bbve3oKVLlyL3KR4A4LcLAEin3L5QBwCNKAYAr1EMAGqT/02AFenSnQIogr8fACCWpZ6ARwYAGQJkABAQ4LcMIAMAKilsHgBmAbAGBBIsR5pjge+6667qWLvnjdpEVapUQSfjlwcA8k0nFQAiEOCM+sZweyZytyEpnTCpwd8XAD788MNp3K6J9u3bdxJ2Q0gJZkLXXnttD5sZ5VguKV26NJZL+O8Po0h5W7RoMZ3bNdGePXtO8Hf4SPGPq0ggdMpl9Yhbp/5OkdqeQssJ2FZ33ziBcQ+x3+wqLAB4gr+jzzIyMqxuWdy6detBipVR1Juo2zAQ0Mvx2zJu97egESNGbKZwAIA6gL/TKQYAGCgBAN6nGAA0pBgA1CX9TYCPUi4AVKFgALiZkjsEqCCpo38ZAET8SgFAiCcRAAiaBRAAgMryywMQswACAECAAAA0CDQMLAOIPIDIMoAzard60Ebfvn0nkX4ZQM4DSCcVAjoULlw40/Y2pAceeABTpHInzAO/HwBEOqrrrruul+1tSKVKlcIaIQ9kXDygebRz586j3LaJ2rRpM5tUH8RTtLw33HBDb9s5HGlpaehIuV/i+UgOghnXX399T9vluummmwBLctAKrapVq37JbZoISwr58uVDXci/PZngj+8xojvvvLMHf4+JkDtRrFgx/H5RR6L+RDvSQYBnFuCRRx4Zze3+FtS6devlFAOAAaQ/BwC/OR4ANKEYANQnLwA8T+o9AFXJCwDo19G/306JAQAGlCkAuISPDgAEBMgAIM8C6AAAlSMAQCwDBOUBoOIBAGgIZUjdDggAqOiMIKyeU75+/XoQsQwA8jJAIABAmzZtsnqEa+fOnTFFKnfCPPAHAgCUk5NjNTfB6TRmyvY14kFN0ahRo1ZwuyaaP3/+NlJ9ECReZvjpOLdroo8//ngGf4ckxSfEgr/QN998Y7X+WrVqNYu8bUcJ9EyetobkPW7TRK+88soY/E5JiQJANPgLHTly5DR/j4kaN248gXLLJupK1KNoT7IftbMAjt+s5ibY0LPPPou24AcA+A34Xfi9HADQL6KP/JBiAPAOxQDgrxTuHgAkdGNAJwNAGdKfAignAPoBQCHSA4CIUSkASPAJAgABAWEBAJUkA4CcByAvA6RRyGOBu3bt2og3ahNduHDhx8suuwwAkOgyQKSTGjBgwEJu00Sa8+554I8LAKNHj7a6fSsrK2uLbF8jHtgUvfrqq1ZHRCdPnvyOVB/4iZc3ojFjxti+htfPT4o/XCnBHxo3bpzV+ps7dy5yS3j7kQNYYFtzYGs7t2kiwCB+p6tEgz8HgHRozpw5VrfeTZ06dS3FyijqC3Up2hT3oQwBkVmABQsWWD2Xw4auu+660ZQ4AKAv9AOAN8kLAC9SDACepPDHAKPflwEAg0MZABA7BABgYJkCgEv0yAAgQ4AMAAICBADoIEAAAED5O1sAAIAASURBVCoLlSbyAPgygF8eQFnSHAtctGjRhy5evGiVrJ3ghA9WAEDQMoDogKIQ8OSTTw7h9kx0/vx5HOEqPsQg+QY55/eM5XZN5AZbHtTiBTdZGfnz5+/8/fffW80of+ihh7Bcwv3AxcsbVf369a1uczt+/Ph5/g5X3B8Rn/jpjTfeGMdtm8jNLeHtJ7T+8Y9/WD3edufOnUfwO10lCgBK8IdatGhh1WcHDhw4Rbnl4gAAibYlfMQBIAIBn376aRa3+2vqzJkzPzvlGkLBAIDfhd8qAAB9nwAA9JEAgGakXgT0KunvAXic1FMAMaOLmV0M8MpR8ocAFaZgABCxKgUACT6JAEDQLIAAAF0egG4ZAA2gNKnbAQEAYhmgkvNxWr3QZfz48V9R8ssAHW0f4frcc8+NJk1HzOQb6Jxg29X2NqQqVaqg0wgT2LiigW3dunV7uF0T9ejRA8sl3A9an+hUqFChbrZzOCpWrDiYvYf7w+MTjToVLly4s1Muq9c7u0fc8jYUSrfccovVw5yQEHrNNdcg2FgDAGdk28l2oqnzu3tTrF5E3Yl6FW0MPtLOAtx2221fcLu/prZu3XqS/AEAgyABAPi9qAP4mwPAB+R/EdDLpD8G+GEKPgXwNooBQBoFAwBiSQoALvETBAACAsQUSxAAYBZAAIBuGYADQCkKcSzw/Pnzu/HGbaLdu3fvIYPtgEuXLrU6RTpkyJBs0nTETIHBbsOGDVa3b3Xv3n0BfwepgU2naHDr3bv3Am7XRGvWrEG9cT9o/eGnjRs32s7hyJLsc18oPmESwbDT5s2brd7/3qVLl/kUC1iJqosD3d9ymyZq3rz5ZPxOSYkCQDpXTk6O1YPC2rZtO4NiswAcAkQ7Ez7iABCBAMdvVg/BMtHs2bNzKHkAwMBIAEBT8t4DUI/CHQNcifwBAAM/DgCYJcZgEYNGDgCILYUpPACIOJZ6QjwyAOggwA8AIFQGKgWV47cMAADQLQMIAAANolGgcaCRyHkAD7z77rt/4Y3bRM7I4X+vvvpqQbgCAMLkAUQgwHlmc5sm2rZt22FSO2EuHvA8Qa9Pnz6LuF0TOcEWuQly8ORBzU/RAPfoo49aHRG5GeXwhdwhK0E+QJn9+vWzus1NOkqW+0HrE6ZoQBw0aJDVcq1YsQLl4kErnqJtC4cvcZsmmjVr1gb8TleJBn8OAAhSbceNG7eEv8dEixYt2kL+ACC3OfhKngWIAoDjN6vnTZioV69e60kPAJjpAACg/Pg9+K0CAND3YTAEAMAgSQBAYwo+Bvhp8j8FEH05+nQs8ZYl9RAgvx0AfgBQgPx3AKQAIMknHgAICBAAICAAlVGQzPIA0BjQKNA40EjEMkAkD8BRpQsXLli9cKNly5b4MAAAYhnALw+AQ0CHChUq9OH2TIRtSFdeeSXW5HiHrO2cJUWD22OPPTaM2zWRe72s/A4e1HTiAS7j9OnTVjPK69atO0YqU6LKfOKJJ6z6yc3hCPKP4hNX8mi4U61atWyXS3e9M29Tvm0Lxy9zmybC8dDit1LiAJAuKRL8oddff93qDqFTp04h90WUUdSTqEfUMfcjnwXo6QxWrJ5RYCKnLFgyQz+HZSoBAH3JCwD4XfidqAf4mgNAc/IeA9yAvKcA1ib/UwArkv8ZAGEAADEEAICYIgCgIAUDgIhZKQBI8EkEAORZAFQGKqUQqcsAJnkAYhkABFlp9+7dM3kDN1FWVtYySj4PoMPhw4dtb0OaQmrHzMU7ak+AO3PmjNVkyTp16oyW7PPAphMPchmLFy+2emrb8OHDV0hlSkTRctrO4XCPkuW+8PWJKw8AQE7Qtnq983PPPTeK1DYjBzH+36LCBUwAU27TRA44I/hYA4D8+fN/ZjvRtFq1agiUMgSIehTtSPafMgtw1VVX9XP8Zi03wURVqlRBnyIAYCDF7gEAAKC8AgDwW+F/GQAwMyoA4D3yAsBrlHsGgACAWhQDgEcpFwCqkBcA0KfLAHAzJX4GQCHSAwDiUgoADB8dAHAIEI6OBwCosGTzAMqR5ljgCRMmfMIbuImOHj16gnIbuN8yQCAAzJw50+oUaYjz7nUdtifIOcHWam7CsGHDsl3bPKj5iQe5jLZt287idk20Y8eOI26ZElW0nEuWLNnB7Zpo6NChgEnuC1+fuFIAIDs72+r1wF988cVyUttMaOEqZm7TRO3bt5+N30mWAADauHGj1auee/XqlUVeAOAQIPwjvkllFmDbtm1WD8FKRjgczAGkLylxAEDfh34QfeJH5D0GuCGppwA+T8GHAGEWF7O5AIDbKdwZAIgXAgAwmEwBwC/wyAAgQ4AMAAICZACQIUAGAL4M4JcHgEaAxnALBRwL7JD5U//85z+tkvVdd92FTkYAgN8ygAwAUQho3rz5JG7PREi6IjXgc/FO2hPk0tPTrW7fcoLtYVIDWpB4kMu49dZbrS6XIPP76quvxvQlD/DxFC1ne/vX8B6S7TMpPiFN8IcyMjKslivO9c5xNWTIEKu7b5A8S2YA4An+jj7t37+/VZ+tW7cuh3LLJkOAqEvRluAfXwBwgNDquQ7J6PDhw1jOGEq56/8cALDciLKi/PhdAgDSKdwpgH8lLwDUpBgAPEJ2zgBA3JABALGlEPkDgIhPKQAweBIBgKBZAAEAumUAAQCodAEAN1FwHkBkGeDUqVNWD9ro3r37OEryWOD//u//7mZzGxKE7VekBv0gAICiQa5s2bJWt29hKvOPf/wjOgoe1PzEA11EtjPKmzZtiqlNHuDjKVrO8uXL2/bT/xYvXhwBgPvDzydK8Ifuu+8+q+Xyud45tGrXrj2K2zQRll7c32oNAKpXr24VMN1EU7mORJ2hLkVbEj4SAOBZBnjxxRcncLu/tFauXAl4FwCAZQ0BAH1IBQDUBfyeTsGnAL5JMQD4C/kfAoQdADIAYDYXs7rl6Jc9AyAFAAk+tgAAswACAMQyAAAgaBkAAHArxbYDAgDkPICKGzZsGMkbuonWrFmzkQzyAHDACbdpIhzAQmrQ5+IdtSfQHTx40GpuwnvvvTeJ1KAWJB7sMqZOnbqO2zXR9OnTN5Aa4OPJU85Dhw5Z3a7VuHHjifwdrhR/kCb4Cx0/ftzqtcVvvvkmysXbTCjlzZu3K5IcuU0TPfXUUwhK1gAAOnPmzHf8PSZ65ZVXRlJsFkAGAAhtSfhIfJMeALj88st7X7hwwWpuQqIaO3YsZlsw/S8AAAmA/Sj8KYCYGQUANCMvALxO6iFAz5D+ECD02+i/ZQC4jRI/AwDxJBEAELErBQAJPjoA4BAAZwsICAIAUFtQHoBYBkijkMcC9+7duylv6CZyOrfv8+TJAwDwywNAB5NOKgBEIGDUqFFWp0hxBCvldiY86IcGgGnTpm3gdk3kBNv1pAa1IPFgl9GkSZOJ3K6JADmkBvh48pRzxowZVv00ZcqUdfwdrhR/kCbwC82dO9fq9cDjx49fQ2qbCavO2ObIbZoIR2mTHQCIBH9o6dKlVrfejRw5cjmpywACAkR7gn84AESXAVatWmX1XI5E1a5du5Wk7gAQAIAlNJQVvwG/C3UAf8Ov6PswGEKf+AF5DwF6g7yHAL1Ads4A4AmAQQBQgMLvAEAcSz0JPGEAQECADAAQKqYgBecB8GUAOQ8ADQIAgAaChoJlAACAWAZ44Oqrr672k/Pwxm6i2rVr4+NNKg/gr3/9q9UZCVzCQrEpRR74QwGAM2Kfwu2ayM1N4EEtSDzYZVx55ZXdbGdGlytXDtOZPMgHyVPO999/37afTvF3uFL8QZrAL/Txxx9bvd7ZvbYYv5+3mzDqjIOOuE0T4TItsgwA7du3t7plcefOnYcpVsYgAIAEAMizAD27dOmyhNv9JVW3bt2vyJsACADoS8FnAMCv6PtkAGhK6iFAr1C4MwAwcMMADv04+vOyFH4LoAAAxBEBAAVJBQAxIE0BgKVHBwF+ACBDACoGFVSIwuUByMsAAgDQMNBA0FBuJ82xwIcPH7Z6oYtD+zMpyTwArBVizZDbNFHVqlW/pMQAINJRC2HN3nawLVu2LDoOHtj8xINdRNu3b7eaUf75559juYQH+SB5ynnttdf2sJ3Dceutt+r8pPiCNIFfqGTJkj1xLC23naxw1bB7bTFvM/EU8RuOOuY2TYSjmHGtNlkEAKd9dubvMZF7dDG+NR0AQPCN8JMOAHpUrlx5BLf7S8ppi+NInwAoAwB+B34f6gB+hj/R92EwhD6xOV2aMwBupsS3AKYA4Bd6wgIAnwVAxaCCClHyeQBoGGggZcjnWODFixf35o3dRE5g2k0GxwKvW7fuG27TRD169FhEhrMAzm+ympuQnp4+m9TA5ice7CL68ssvl3G7JnLawQ5Sg3yQeDkzbedwfPrpp7P4O0jjC1dK8Bfau3ev1WuLW7ZsOYNyfcDbTZCivsOlR9ymid54440xZBEAIGdgcJK/x0Tvv//+RFKXAUSdCt/AT+KbFAAQnQU4ceKE1UOwwsoZlPwPedf/ZQDA+j/KJwMAfC8AAAMg9IMfkXcLoACA10g9A+Ap8j8DAAM4DOTQn5clfwAQ6/9+AFCIUgDwizw6AOAQEBYAUHkyAGAZQAAAXwYQAHALBeQBtGjR4jXe4E108eLFfxUrVgwNPtE8gEjn1adPn/ncponWrFmzlwwBYPjw4dncrolwmA+pgS1IPNhl1KlTx+pyyZkzZy6SGuSDxMuYOWLEiBXcrokWLly4lb+DNL5wpQR+oYkTJ1rdRjZ37tzNlOsD3m785PEd/j23aaJx48atJMsAMHv27JX8PSaaOXPmOlIBQECA8I3wlxYAHL9ZPW8irHbv3n2a/Nf/BQCgzPgt+I3wfTrptwAKAGjoqD6FPwPgAUp+C6AAAAwgEUMQTwqRPwAgJqUAwOKjgwAZAAQECADQQYAAgGTzAMqSJg/AUeUffvjBaqZ78+bN8ZEklQfwyCOPDOL2TORuQxKE7gcBvMP2dNo4wY/bNdHp06d/IDWwBYkHu4y8efNm4nhhbttE1atXH0ZqoPcTL2PmK6+8MobbNJGbw6G8hzT+IE3gF3r77betXu987Nix86QGrSB5fPfxxx9bPd52z549x8gyADjfsFXAPHTo0GnyzwOAZF8KABAQEAGAVq1aWT2jIKzmz5+PQYSY/tcBAMooAwB8nk7BWwAFAPyVgrcAAgAqkxcAMJArR7/8FsAUACT5JAIAAgI4AKDSBADo8gB0ywBoGKUpTh5ATk7OXN7oTeSMHhZT8tsBO+IMcW7TRE4AH0fBAKCDgGiHjQtzbG9DevTRR4eSGtj8xINdRKtWrcrhdk2Ei31IDfRB8pTT8VMX2zkc1apVw8grjD+UwC9UtGjRztjDz22b6J577kEggA94u9HJ4zfkECCXgNtMVrBVokQJBCEBAH4QwAEA0gHAJ1dddVU7XPLF32WiChUqYL2czwKIOpV9qQOAHqVKlRpkM58jrAYNGrSRgtf/UUaUG78Hvoev4VP0d+j7MBgCADSj3+8WQBG/Uk8Sjw4AOATA8fIsgA4AxCyA3zIAB4BS5J8HEF0GmDZt2ue80Zvo4MGDR8kgDwC3iHGbJho+fPgqinUofhAQ2GnjNj9u10S4bZDUwBYkHvAyunfvnsXtmmjDhg37SA3yQeJlzFy7du0ebtdEPXr0WMDfQRpfuFKCv9CWLVsOcNsmysjImEcxP/C249uOhLCbgNs00d///vepFH4WIF2SFgCgXbt2HeDvMVH79u1nUjAACF+Kb9IDAI567t271+ohWGHUokULgLEY/XMAELOLKDsHAPR5GAABAD6g3/8WwBQAJPkkCwAQKqkgBW8HBAD4LQMAAECJaCxoNOWJXQ/89NNP1+SN3kQOpf+/cuXK4QNIKg8A94hzmybavn07gCRRAPB03k6wXcDtmmj9+vWYVtQGUR/xYJdRuXLlQdyuib7//vv/KVCggOjMwoiXMbNXr15W/QSg4O8gjS9cKYFfaMiQIUu4bRMtX758F8X8wNuNtg3JwnkC3KaJcN4BhQcAGQJ0ABCBgNGjRy/k7zHR0qVLkfuCMgoIEPWGOpV9yQFAQEDPCRMmbOR2L7Vq1KgBuPKb/pcBAL8JPod/4UMAAPo/DIYAAE1Jfw1wHUpuCyD6dAAABnpp5L8DQAAAYocAgIKUAoBf9NFBgAwAAgJERQgIQCWhskBsOgCQlwF0AAA6RCNBY0GjQeMRywAiD6DSmTNnrI7cOnXqNJrCXQ8sACAKAbfddlsvbs9E2IZ07bXX4oNNFAKiHfaDDz44hNs1ETKL8+fPj3fCPg9wfuIBL+PEiRMXuG0T1atXb5xbprDylPGRRx6x7SfkcKAu4vqCNIFfqHbt2l9y2ybCTYPk9QNvO0obkvXGG2+M5zZNhBMPyQwAOAR8Urdu3UH8PSbC7ZrkDwCQ7EcBAAICIgDw1ltvWT3XIYyuvPLK4RQb/XMAQNlQVpSfAwD6PADAR+R/C6AAgNrkvQUQAFCNfltbAFMAYPDYAABUHCpQlwcQtAwAAEBjQaO5ndRjgSt9/fXX43jDN1F2dvZaMsgDOHjw4Clu00RNmzadTgYAAJ08edJqbsKrr7461rXNg5ufeMDLyMrKsppRPmbMmFVumcKKlzETyXvcromcQASY5O9RfEGawC+UJ0+eDCdoWz30qmbNmiMo5gfedpT2I6tIkSLdsWOG2zTR/fffj6lpawCQN2/etg6AWfWZM5rGWroAAAEBok5lP+oAoEexYsX62s7nCJLzzV8k/+l/ef0f5cfvgq/TKfEdAAIAniL9FkCRAIi+G314GfIHALH+LwMAYoYAAMSSgpQCgF/00QEAhwBRAfEAABWZaB7ALRRwPfDAgQM/5I3fRKdPnz5PyecBdJw2bdpabtNE06dP30ReAEgYAhYsWLCV2zXRqFGjVkr2eYDTiQe8jDZt2lhdLsnJyTkmlSmsPOXE9j1u10TYXsjfQRpfuFKCv9Dq1autXn41YMCApRTzgW+78ZMD3Qe4TRN16dLlK4oBgB8EhAYAaN26dVavVO7fvz9yOoIAQPhSfI8eAHDU0/HbYW73UmnTpk34HkTynxj98/V/lBe/Az6Hj+FLkQCI/g8JgACAJqTfAQAAeJ70twACADBLqwMA9Ono20vSL7MFMAUABk8YABAQIAOADAEyAMjLAKjoeMsAaCy3kZoHEFkGKFWq1CO5pwKrH0GyevLJJ/FRYxkg4TyAJk2aWJ0ixWU1ZAgArVu3nsntmmj37t1ysOUBzk+egHfzzTf3tpkZjXvPr7vuOkxtKgErQJ4ytm3bdha3a6IdO3Yc4e9wxYN/IAB07dp1HrdtIgRw8vpB2278BIDgNk20atWqnWS2DKAAQJ8+fazWpRNQkdOBMgoIEPWG+pT9yAEgugzg+M3qGQVBcgYOO8g7+pen/wUAoMz4LRwAdAmAAIA3KTcBUADAi5SbAAgAeJLUHQAAAJ4AWIYu/RZAOU6lAMDCo4MAPwAImgUQAMCXAQQAyLMAAgBKk38eQGQZ4OjRo+v5B2CioUOHYtodH4BYBoiXByA6rA5XXXVVF1wLy22a6Pbbb8eHnCgARDvz0qVL973EwZYHOJ14wMvYu3ev1Yzyjz76aJpUpjDylBFH+HKbJkIOh881yoovSBP4hSpXrjyQ2zbRDz/88K9ChQqJAADxNhMIAs8888xwbtNEWOLIkyePCERWAKBq1ao9+XtMhETTggULou6SBoBatWpZXa4MUpcuXVZRLPlPN/2PMqLs+C3wNfwK/6GfQ58nJwC+S3Z3AAgASKNgAECcQLzA4DEZAJDjVuoxeMICAJ8FQEWhwgQAoCIFAIhlgLB5AGVIPRYYDaziihUrBvAPwERbtmwBPSedB7Bt27aD3KaJPvvss3lkOAuwf/9+q7kJH3zwwVTJPg9wfvIEvUmTJlnNKJ81axaWS5SAFUeeMuLSI27XRLhsiL+D1OAfFwJsJ03Wr19/PMV8wNuN0n64zp079yO3aaLnn39+GCUPAFoIOHXqlNWji+vVqzea9AAAyX4UACAgAADQw4GcXo7frB6C5ac33ngDyyq66f8w6/9yAiAAoDHlJgACAOpR+B0A6J/lBMBypO4AQF+vSwD0A4AClPgOgBQAGD46AOAQEBYAMAvglwcgLwOkkX8egFgGiOQBtG3btgH/AEzkjJB+LlCgAD4CeRkgdB7AsGHDrE6RLl68GFOkRgAwceJEq7kJM2fO5MGWBzmdPAHv7bfftrpccuzYsXOsTGHkKePUqVPXcbsmmj59+gb+Dlc8+AcCgO2kyXHjxq2mmA94u1HaD9fy5cutrrFjuyNZzgNwvhurVz2PHTt2BQXnAQi/aQHAUU/Hb1Z3Lfnp7rvvHkve0b9u+h/lh69lABDr/wCA90l/B4AAgGR3AMgAgL4+CAAQLwQAFKQUAPwqj+xIGQJ0swACAHQQIAAAVGeaByCWAR647LLLqly8eNEq7b/zzjugZgEAYhkgVB7ASy+9ZHWK1D3vngOADgJ4Bx7txJ1gO5HbNdGRI0fOCtuSeJDj8gS8YsWKdbWdUe50fJj25OUKkqeMjRs3tuonN4eD+0HxhSQl+ENt2rSZzm2bKCcn5zjFfMDbjNJ+uDp27Gj1FE4ceESW8wA+++wzq3X5zTffHKXwACAgAAAgIKBnp06dFnG7tuV8U//OmzevmP7Xjf5RNpQXvwG+hl/hQ5EAiH5PTgAEADR0VJ9y1//rknoHAADgUcoFACQACgCQEwDLkv8OAA4AiA9hAEAMPFMAcImfRAAgaBZAAAAql+cB6JYBAAAgRjQcNCA0JDQoNCyxDFBp3759Vg9ycUaCyPqVlwHi5QFEIcD5+DqdP3/e6lRf9erVR1B8ANBBQKTDdoJtD9vbkO644w5MMcqBgQc5nTwBz/ZJdwhMrExhFC1f8eLFu9vO4ShfvjxGYdwPii9cKcEfuvnmm3vZzOPAMbw33HADgoLwAW83gQBw5513Ws1LQNvE0cdkBwAiEFC6dOkMHO7F35WskPty/fXXI4D6AYDwoy8A3HfffV9yu7a1f/9+wLkY/QMAMPrXTf/jN8DH8Cd8Jtb/AQC6BMD6FO4OAAAAEgAxQJMBoAypOwAAAHz9XwAA4oQAAMSPgpQCgF/t0QEAhwBRGUEAgMpEpfotA3AAACmiwQAA0IDQkCoQux549uzZnfiHYCLnIzpIBnkAq1ev3s1tmqh3795LyQAAICfYWs1N6NChgy7Y8iDH5Ql4gwcPXsLtmoiddBdWnjJu3br1ELdros8//3wOf4crHvx9AQBy2qTVq25Z0iRvN9o2JOvo0aNnuU0TNWrUaBwlDwAcAiKzAI7PjvH3mKhly5ZTSJ8HIPvRDwAiEOD4zWo+B1d2dvZ+Ukf/8vQ/yohy43fAt+nkXf9HvxcvARAA8Bz53wEgAEAkAMoAgEGdAAC/BEAZABA3ggAAsScFAJf4SRYAIFQcJAMAXwZA5fstAwAA0HDQgMqRmgfwwMsvv/w8/xBMhBFSqVKlEOzFMgAAQF4GCASAbt26WZ0iXb9+PT5qDgA6COCdd7QD/+KLL5ZxuyZatmwZchN4YOBBTqdowHv22WetLpcgOU1TpjCKlm/YsGHLuV0TLVmyZIdsXxIP/oEQMHny5EuZNMnbDBf3V2fkgXCbJpoyZcpqip8HICAgXZIOACIQMG3aNKtXYs+ZM2cjxQcASACAgIAoADiDFavnTXCNGjUK9eo3+ke5UE6UGz6GP9MpBgBi/R8JgO+RPgEQAPAC5SYAAgCeoMR3AKBfxyDvlwCA1GPp0UGADAACAgQACAhApaHyUIl+ACCWAXQAgAZTmvy3A4I2K509e9bqCDc9PX04JZkHUKVKFas7E77//vt/FSxYEB9xPADQQUCkc3r++eetXpXq+PuisM3EAx1XNNjlyZMnE8fTctsmYifdhVW0fC+++KJVP7lHyXIfKL6QpAR/6N13353AbZsII3iK/X7eZri4vzp/+OGHVo+3xQwH2csDiABAkyZNrALmsWPH4DMdAECyH30B4G9/+9scbtemPv3008UUG/3LyX8oB8qGsqL88C38Cd+J9X8AgFj/BwA0Iv8EQADA05T4DgD052kUAwB5/V8AAGaIESMQLxIBAB78UwBg8UkEAOItA6ByeR6A3zKAAIBbKeBY4K1bt07mH4OJFi9evIqSzANw1PGE5a1b9erVm0AGAOAE2y62j5V96qmnhgv7kniQ0yka8LKzsy/lSXeJKFK2vHnzdradw/HEE08ME/aZePD3BYDixYt3tZ2fwPI4eLvh8vgLZ0FgXZzbTFbIcbjlllsAuckCgAIBxYoV+9zxmdVE03vuuQfBNVEAEBDQ88Ybbxxo81plrhdeeGEqqaN/vBtlQdlQZkAMfAs/wlfy+j8AoBmpJwACAEQCIACgFqkJgAAAkQBougOAA0ABSu0A+FUfHQBwCECFCAgIAgDMAiSbB1CONMcCf/nll3/nH4OJTp06dYYM8gDmz5//NbdpotGjR68hFQB0EMA77mjnvWLFCqu5CU6wXSJsM/FAxxUNeJmZmVaXSzZv3nxAU54wipZv1apVOdyuifr27btIts/EAcAXArZv3241P4HlcfA2w8X91RmnQnKbJvrkk0+mk/8yQMIAADk+28vfYyKnvc6hWJ0EAYCAAA8AQDk5OVbzOWSVKFFiKHlH/37T//BpOgWv/wMA3iTvCYAAgOfJewQwAKAq/bI7AFIA8As/slNlCJABQECADAAyBMgAwJcBwuQB3EY+xwL/+c9/ftwha6u0X61aNZCyWAZIKA+gTZs2VqdI3a1bPPjrAEAHAZEO23myuF0Tbdy4cb+wzcSDHFc02N17771Wl0uwtRCX1mjKFEaR8nXp0iWL2zXRhg0b9gnbGvHg7wsADuReyjwO3mZ08vjLgdJV3KaJHGjeTHaXAT51fDafv8dE2dnZO8gfAIQf/QAgAgFjxoyxenqp0Llz536iWPDXjf5RTpQbvoUf4TMZAMT6PwCgMQUnAAIAniTvDgA5AVAGgDIUAwD05zIAiPV/PwAoRHoAEIPNFAD8gk8iABA0CyAAgC8DyACAWQABADdRcB5AZBng+PHjVg9M6d+//2RS8wDkZYB00gNAh5IlS/awvXXrT3/6E6b2OADoIEDbcd93332DuF0TaY6V9QTSOIoGPBziw22bqGHDhhM0ZQqjSNkqV648mNs0keOn/ylQoADqhfvA4wcmBQDq1Kkzgts2Ecvj4G1GJ4+/cDMkt2mikydPXiAzAFAg4IUXXrC6ZdFNNE0EAAQERAGgfv36U7hdG9qxY8cJ8h/9o1woL/wLn8J/8Je8/g8AeJ+86/8AgHrkTQAEADxDsQRAAMBDpL8DQAAABnDoxwUA6BIABQAgNqQA4Df4hAUAAQF+AICKFQAglgEAAEHLAAAAUCQaExoVAEDOA6i4evXqL/hHYSJnhLuVwuUB4GMSnZSAgI6X4Lz7maQG/zAAEO28nWBr9dAk3BEvbDPxQMcVDXZfffWV1Yzy8ePHr9GUJ4yi5bsEORxjZftMPPhrASBv3rwZFy5csJqfUKNGjS8p9vt5m+Hy+Ct//vxdcU4+t2miqlWrIi/BGgDkyZOn7fnz5y/y95ioVq1awygGAAICZB/qACC6DFC4cOE+gGdu11Rz587FjI4Y/YvkP9E/oGwoK/wKX6ZTro/81v8BAA0pfAIgAEAkAMoAUI5+vR0AKQCw/OgAgENAWABABQflAYhlgDQKeSxwx44d3+EfhYm+++67Hy+//HIEf0gsA4TOA5g4caLVKdLZs2djipQHfx0A6CAg0kE5nYTVWRIn2K4Wtpl4kNMp0oG2bNlyKrdroj179mAkxMsTVpGy2T5+d+zYsauEbY148NcCALR27docbttE/fr1W0yx387bjE4ef23YsMHqGnuPHj3mUQwAkoEADwBAq1at2sbfY6JBgwbBZ0EAAPkCAOQMLqzuWoL69++/kmLBX4z+8X6UB2VEmeFT+C+d9Ov/AIB3ST0AiCcAPk3qEcAAAPTF6JPRN5encDsAZABATAAAIEaYAkDqsfzIACBDgAwAAgIEAOggQAAAKlrOA+DLAHIeABoPAACNCY0KjQuNTCwDPFCoUKEHL168iCGJ8nEkq9dffx0fVFJ5AA0bNrQ6Reqed8+Dvx8EaDtuJ9haPVb2m2++8Qu2PMjpFOlAr7/++p42M6Ox9FKqVCmMhHiZwihStlatWs3gdk2Uk5NzTNjWiAd/XwhwAmQWt20iNz9B/HbeZnTy+KtPnz5Wj7cF4JDlZYBu3bpZrcstW7bsp+QBIAIBDnhZPaMAatas2Rzyrv3jnfLoP970f3Pyrv8DAF4n/QmAT1EsAbAaeRMAZQAoS+Y7AApSLPj7AQAP/ikAuERPIgAQNAsgAAAVzvMAdMsAAAA0IjQmNKrbSXMs8IEDB6xexjNhwgSMSAAAQcsAOgDocMUVV3S2fd79XXfd9QUlHvyjHTeOgLUZbGErLS1NDrY8uOnEA12GAxJWM8o//vjjGVKZwipaRgcgetvO4XB8j5EZ94XWH6QJ/lC1atWs5idgCr9AgQJoQ8IHvN1weXz22GOPDeM2TfTdd9/9jOO0ySIAPPDAAz34e0yEb9r5tuGLpAGgRo0aVgcHkNM2RlNs9C+m/0WdCQCAD+E3+EYHAO+R9wAgAAASAAUAPEf6BEABABiMoU9G34w+uiyF3wEgAACxQQaAAuS/AyAFAL/wowMADgGoHHkWQAcAqOB4ywA8DwCNCI2pDPkcC5yVldWFfxgm2rNnD0ZIch5AQssAGC1wmybq2LHjfIoPADoIiHba2FHA7ZqoZcuWItjywOYnHuwyMEXO7Zpo3rx5W9wyJSJPOfft22d1u9bf/va3afwdrhR/uFIAADp16tR33LaJ6tWrN45iPuDthov7rPPp06d/4DZN9Je//GUE+QOAgAAOAJAWAKATJ06c4e8x0VtvvQWfJQ0AkM37OQCYBQsW7Ovalkf/KAvKJ6AKvkun3AEMX/9/n2Lr/wCABuSfAPgk6RMAOQCUIf0dADoAQBzgAFCQVAAQ8UUE/xQA/IKP7GAZAvxmAVBpHAJkAMAsgLwMAADwWwZAI0JjQqMqR2oewANvvvlmHf5xmOinn37693XXXYcPRZcHEHcZYPDgwYu5TRNlZ2fvJkMAwLo9t2si5BW4tnlg8xMPdBn169e3OiJCEp9bpkTkKeeECROsHr87Z86cTfwdrhR/uFKCP7Rw4UKrx8liOx95/cDbjrYdCS1evHg7t2mi4cOHLyOzPAAFApyBgdWrnpHfQ14AgGTfie/QFwBsHjiFOwZIHf3j/SgTyojRP3wIv8E/fuv/AIB3yHsAUJgEQACALgGwDKV2APzHPYkAQNAsgAAAsQwQJg+gNPlvBwSBVnY+LKvTya1atRpK/nkA6GDSSQ8AHZAxzO2ZCHt98+TJg84kaQBwgu14btdE2Fng2uaBLUieYFegQIEu2C7HbZuoYsWKg91yhZWnjA5M2vbTOf4OSTz4+wJAenr6TG7bRDjQh7x+4G1H246EnPJYPd52x44dh8hyHkCbNm2s1qWbaIr6SBoAbO4EWLt27QHXrhj9470oh2hb8CN8B3/BP7rp/6YUuwDoTcoFgEQSAHUAgL5aBgDM6OoAAP2/DACID4UoBQC/yUcHAAICZAAQEOAHAKA8GQBEHoDfMoAAgFsp4FjgnTt3Wk10W7BgQTbF3w7IAUBAQEfsHeY2TVSzZs3RZAAA2Ltvs/OB7r//fgRbHtSCxINdxsaNG/dxuybq2rUrlkuUgBUgTxmLFCnSzXYOx9133z2Qv8eV4g/SBH+oTJkyvbldE+FIXxztS15f8PajtCOhsmXL9uc2TfTjjz/++6qrrkIbtgYAN954YyebuS/IDylZsiQCblIAUKFChaHcpokmT578Ney69uXRP8qFdiMAIJ1yfSKm/wUAvE+x9X8AwBukrv8/T4kfAQwAQJ+NvjuNggEAcSAsAIg4kwKAX+EJAgABAWEBAJWNijfNAxDLABXHjh3bhn8gJnJGbqfIIA8gOzt7J7dpogEDBiyn+MsAvOP2dN44xY/bNRFOGSQ1qAWJB7sM53dZzShfuXJlDmkCVoB4GTNxtDC3a6JOnTrN5e9wpfjDlQIA0MGDB7/ltk3UvHnzqaT6g7cfLQBATnlOc5smatas2URKHAAgXwjYu3fvEf4eE7Vq1WoahQMABQJsHwaUkZGxyLUtj/5RHpTPb/qfr/8DABqR9wAgAADW/wEAz1FwAqAOANBXAwDQd6eRfv2fAwDigikApJ5L/OggQAYAAQECADgEyACASk80D+A28jkWuHLlyk84tP9v/pGY6L777kPH47cMEAgAOD+c2zORE5QOUnwA0EFAtMPGOf7cromcYIvcBB7UgsQDXcYTTzxhdVSENda8efP6Bi0feco5ePBgq7tKcPkRf4crxR+ulOAPTZs2zeqa9syZMzeS6gvf9sPllGcDt2miGTNmrCPLeQATJ060epRyVlYWRt1JAYDTJ1jNDapXr95k17boC1AGlAntRYz+4Sf4Bf1WvPX/BuRd/0cC4LOkJgACAIISAAEA6LMBAOjDdQAQdgeAHwCI+JMCgF/wSQQAgmYBBADwZQAZADALIADgJgrOA4gsA5w6dcpqYlKPHj3Gk3oscKg8ANwgxu2ZCNPSRYsWxZRt0gCAm/y4XRPhpsE8efLANg9sfuKBLiJcn8ttm6h27dqjSBOwAuQpZ82aNW376UcfPym+cKUEf+i9996byG2b6NChQ2dI9QWkbT9cTZo0sXobJ2Y4yDIANGzY8Ev+HhMdP378PCUJAFOnTrV6WVjZsmW/cO2LvgBlEe1HAEA65foiaP0fAPAm5a7/AwCw/q9LAAQAPEz6I4BlAMBgDQCAvlsGAMzwygCAASAHgIKkjv5lABDxhgf/FAD8Ao8OAAQEyAAgIMAPAFDZAgDEMkBQHgBIEgAAskQDQ0NDg/PkAaxbt85qx+3Y20Tx8wDSKQYAMgR0xF3i3KaJnM5sMhkAAISz4LldEz333HMjSA1sfuKBLqKlS5daBbchQ4YsJ03AChAvZ6btHI5nn312OH+HK8UfpAn+0FVXXdUNa+XctonKlSvXn1R/QNr2I+uPf/xjj0tQnt6UOABAWggoWLDgZ5cg0XQQxepP9lUgAKxfv/4At5WscJaDaxf2xXcv2pM8/Z9O6vY/3fo/AOB18t4AqEsABADYSABM7QD4HT5BACAgICwAoNKD8gDEMkAa+R8L7MkD6NmzZxP+oZjowoULPzgjN3wwAACxDBA6D2DOnDkbuU0TTZgwYR15AUAHARwAPJ04boPjdk3kBNtlpAa1IPFgl9G+ffvZ3K6Jtm7deog0AStAvIyZy5cv38XtmgjLCvwdrhR/kCb4C+3cufMwt22izz//fA6p/oCUtqPTjh07rJanXbt2M8kiAECbN2/+hr/HRN26dZNzX2RfBQKAMyCwdtfE3r17T7m2RR8g2jHaiRj9w0fwh1j/Rx8WtP4PAOAJgDUpfAKgAAAM1gAAaeQPAKkdAL/TRwcBMgAICPDLA0AlCwBA5ct5AHwZQM4DQIPS5QGIZYAHihcvXtUZkVgdub388sv4yJLKA2jZsqXVpJ89e/acpPgAoIOAaIeN++C5XRNt2bLlIKlBLUg82GWUL1/e6nKJ0wT+12kL6HSVgOUjXsbMjh072vbTAf4OV4o/XCnBHxo5cuRybttE2M9Pqj9Ca/jw4VaPt126dOk2UgEgDATIAOCBAAe+5vH3mIjlvsAPOgAQwT8CAIULF7Z6GueSJUtQBgEA4hsX7UYGAHn6X7f+34hi6//1KHYAkC4BEABQlRJLABQAINb/ZQBI7QD4HT6JAEDQLIAAAF0eAF8GEACAhoUGhoZ2O2mOBT58+PAK/rGYaNSoUbNJzQPgywA6AOhw/fXXd8d2K24zWWEb0k033YQp26QBoEKFCgO4XRMh2BYrVgwdEQ9sfuKBLqJDhw5ZzShv3LjxJNIErAB5yomte9ymiZDD4fgJ9RXKH6QJ/tArr7wyits2EfIvSPVFaNWpU2c0t2kitzwCAGQISBoAnnnmGauA6SaaijaD/w0CgMjo/9FHHx3J7ZjIAa9V7nvE9y7aEp/+hw/QXwWt/wMA6pN5AmBZ8iYAppE+AZADwBWUAoDfzaMDAA4BqDB5FkAHAKh0QEDQMgDPA0DDQgMrQz7HAi9cuLAn/1hMtGvXrm9Ivx2Q5wHoIKCj7fPuW7VqBSCRAUAHAb4AAB05csRqbkKjRo0mkhrY/MQDXUSzZs2ymlE+ZcqU9aQJWAHi5cy8BDkcE/g7XCn+IE3wh/Lly5f53Xff/ZPbNpETnIaR6o9Qwo4L29cVV69eHcltiQIApAUA/P9z587ZTjQdSbl1Bz/IACC+SQ8AfPDBB7O4DRO1bt36K/c9eKdov2gjHAB06/8CABqT/gAgAECYBEAOAGUolgCI/vpG0gMA+no/AChA8XcA6AAg9fxCjwwAMgTEAwABARwA+DKAAAC+DCAAAA0MDa0cqccCV2zevPkr/GMxkTPC/Vfx4sUFPSecBzB27FirMxJz587dSvEBIBACnGBrNTdh0qRJa0kNakHiwS7DqTerGeUHDhz4ljQBK0C8jJk4xpfbNZHjpzX8Ha4Uf7hSAABat27dHm7bRL169VpIqj9Ca82aNVbX2Pv377+A4gOADgJ8ZwGys7O38PeYaOjQocsot+7gg7gAMHDgQKv9gHQwmPi2URa0D/gMfoJf4AOx/i8AQF7/b0zeA4DkBECs/9eixBIAy5B+B4C8/i8AIJkdAAIAePBPAcAv/MQDAAEBAgAEBKByUcmAABkAxDJAInkAZUmTB+CosjNCOsU/GBM59D6Y/PMA0MGkkx4AOtSrV8/qFOmJEye+I0MAwAEw3K6J9u/ff4rUoBYkHugyrrnmGiyXWM0ov+222/qRJmAFyFPOjz76aBq3aSJcNMTf4Urxhysl+EO9e/dewG2baO3atXtI9UVode/e3Wp5Nm7ciPIIAAiCAA4AkBYAMjMzrdalm2iKuoMP4gJAVlbWDm7DRFdffXUf933i20Z7wehfBgD8dvRTIgFQt/7/FnkPAAqTAOgHAOiX0T+jn0Z/jdlbXQKgAACx/o9YgJhQkFQAEINJEfxTAPAbeBIBAHkWAJWLSkZli1mAsHkAaRQyDyAnJ8fqITxfffXVUkr8euAIBBQsWDATW3a4TRNVqlRpKMWHAF8AwBGwtnMTSpcu3ZfUwBYkHuwydu7cafXUtk8//XQWaQJWgDxldPzU07afSpUqhY6b+0LrD9IEf+ixxx77gts2kQPM/5MvXz60Ge6PUKpSpYrV8uB7yZ8/P36rKQBEIeCOO+7oyt9jIin3BT4Qwd8XAHbt2mXtNs5vv/0WeRLim8e7RfsBAMBP8E06xQBAzGDqAKAh2UsABACgf0Y/nUb+AIC+PrUD4Hf86ACAQ4CouHgAgAZgNQ9g0qRJ6fyjMdGRI0eOkT4PINQygDOi2cttmqhr166Yso0HAIEQ4ATbo9yuif7xj3+IYMsDm594sMsYOXKk1YzyBQsWbHPLFFa8jJkOTFrN4WjTps0M/g5Xij9cKQAAnT59GlSp2E9Wr7zyyhhS/RFaJ0+etHpd8WuvvTaKwgOADAEcAKIQ4HzHVo9SlhJNOQB4gj/l3gL4E//3yWrr1q2H3fcIaEP7QbvgACCv/6Pvktf/36XgBEAAwDOkJgACAPj6vwAA9MsAAPTTaZTbb/P1/xQA/Ac8suNlCJABQECA3zKADAC6PAC/ZQAAgFgGKEfeY4EBAA9Ur179aWe0ZW3kBpUvXz6dvMsAAgDwkQUCQL9+/RZyeyZatWoVpkg5AOggwBcARo0atZLbNZETbJGbIOzz4OYnT7B79dVXrS6XOCOl76UyhZWnjGPHjl3F7Zpo3rx5W/g7JPHg7wsAS5Ys2cZtm2jEiBErSPVFaGVlZVldYx8zZgzK4wcAOghIl8QBIKI5c+ZYvep5ypQp6yj39wcCwI033jiI/1sTzZo1C20I7xHfNNoO2gV8Bd/AH/jNPAEQ6/+JJAACAJ6gGAA8RMEJgAAA9M8AAPTXiSYAFiQ9AIh4kgKA39CTCAAEzQIIANAtA+gA4CYKPhYYjbOSM0LK4R+OiTp37owRkgAAsQwQKg+gRo0aVqdIkXWdN29edDDxAMAXApxgO5bbNRFGgMK2Kx7cdPIEu3z58nW2neFerVo1LJcoASuOomWsV6+eVT+dOHHigmyfiQd/Xwj4/PPPrWaV79ix4wipfoCUtqNT69atrV5XnJOTc5Ts5AFE1aJFC6t1KSWaCgAQ36EMAD1feumlCfzfmqh3795L3PeJOhFthAOAvP4vAOB9ip8ACACoRbEdAI+RdwcAX/8XAICBGQAA/XQYAEDfzwEAMSIFAL+DRwcAAgJkABAQ4AcAaAACAMQyABpK0DIAAAC0WZZ8jgXeuHGj1dHkypUr11NixwKLDgsfZUfb592/8MILY0kFAB0EaAEgf/78XbH2y+2aqGrVqkOEfVc8wOnkCXZr1661mlHes2dPLJcoASuOouUrUKBAV9s5HJUrV0ZSKfeD4gtJCgDcfvvtfbldEyEB8+qrr+5JXj/wtuMLAaVKleqLHAduN1kh9+L6669Hew4LAHEh4LrrrutoO9G0dOnSSDTVAUB0+v+zzz6bz/+diRo1ajTVfZ8MAJj+lwFArP+HSQAEAPAEQADAUxTbAVCNghMAy5A3AVAAgLz+LwAA/TwHgIKkjv51ACDHmlTw/xWfIAAQEBAWANAQgvIAxCxAGvlvB0RjFMsAFfv27ducfzgmOnv2LEZuSecBLFmyxPZ59ytIDf46APCFgPXr11vNTUA2uLAtiQc5naLBznaG+5o1a7BcwssURtHybdiwYR+3a6KuXbvOl+0z8eDvCwGHDx+2enjSe++9N4W8PuDtxhcAIOxy4DZN5IzYJ5MKAEEQkC5JAQBo9+7dh/h7TPTJJ5/Mpth3JoK/BwDGjh27nv87E913332Y1RLftWgzAAD4Bv5IJ28CYBAANCD1CmAAQE3KBYDqFHwEsACA2yiWAAgA8EsAFAAg1v/R/yMWFKRgAEiN/n+Djw4CZAAQECAAQAcBAgB4HkC8ZQAAABodGl95YtcDlyhR4mGH9q0eUFKrVi18cHIegLwMEAgA7dq1szplu23btiOkBn8/CNB24tj/ze2aKCDY8iDHFQ10Dz/8sNXlEiwpGGS4R8rnwOQibtdEq1atyhG2fcSDvxYAbB+ehOt9yfv7ebvxtB+uiRMnruU2TTRnzhyURwCAlVmAcePGLeHvMdH8+fORaCqCvwCAaPCHVq5caQ20sfvAXf4LAwAYoIgdAH4JgACA1yi2A0AkAAIAnqTUDoDUE/AkAgBBswACAPzyAORlAAEAaGxodGh8aIRyHkBkGeDo0aNWO6ShQ4fOoOTyADpWqFChD7dnItzCduWVV/YmNfjrAEALATgBjts10YULF4KCLQ9yXNFgh+Q9bttEdevWHaMpTxhFyla9enXbfpKPktWJB38tBHzwwQeX8vAk3l64uK86v/XWW1avK3a+37MUm9oOAgAZAtKZPADw+uuvD+XvMZGbaBoEAL0cv57h/y5ZHTx48Iz7HhkA0B44AMgJgH4A8Kaj+uS9AhgA8CzZ3wGQAoD/wEcHABwCRCUGAcAVpOYB8GUAngdwM/lvBwQAVFy2bJnVdVJn1L2T4ucBcACIQoDt8+7dtUAe/P0ggHfgkU7cdrDF2fCw6yMe6HTKWLhw4VZu10Ruhrvy20MqUi7bORwvvfTSKGHbRzz4KxDgHp5kdbeLdHgS95dOHl9hX/zFixf/l9s00T333IPycADQQYAAgEAIyJ8//2eXINF0GMWCvwCAyOjfAb3eGLXzf5OsVsV2AAUBAH6rDAAYtMgA0Jji7wB4mlI7AFJPnEeuBBkC4gGAgABUvAAAeRmAAwBfBhAAgGUANL5ypDkWuHXr1q/zD8hEuFe8cOHCGP0nlQcwY8YMq2uBkydP3kBq4E8EAjo7wdbqdrLhw4cj2PIgqgTUILVt29bqcsmOHTuOkvrbtUHMR5m2cziGDRu2XNj2EQ/8WghAtjy3baJPP/0Ua9rcR0Hy+Grz5s0HuU0TderUaQ6FWwYIDQEbNmzYzd9joh49eiyiGAB4Rv/33nvvcP73TTRu3Lh17rvwPYv2g7YA38Af+O0CADBAEQCg2wEAAHidkt8BIAMA+mL0ySUpeQAQsSEFAL+jJx4AQDIA6GYBOAAkmgdQljTHAl922WVVnKBt9UKXd999tz8lmQfQvHnzSdyeifbv33+acjsdHvhDQ0B6evpsbtdE27dvP0JqAOXiwc6jW2+91erMDTK/r7322l6kBi9tENPp888/t3q6pOOnw5J9xQeueODn6jR69GirZ8y7hydx/8RT1E+DBg1axm2aKDs7ewfplwF0EBAEAFH169fvK/4eE61Zs2YveQEgMvp31KtRo0Yz+N83Ubt27bLcd4UFAPRTOgB4i9QdAAAAJAACAJ6i1A6A1BPiSQQAwi4D8DwA3TIAGltpUrcDAgDEMkClPXv2ZPGPyETTpk1bSEnmAVxzzTVdbW9DcoLlIIpNPfLgrwMADwTcdttt/blNE/lsJ/MTD3hRHThwwOp9Ds2aNcNyCQ9cXLx8UZUrV86qn5DDUbx4cQSLeL7gQd+j1157bQy3bSJ3TZv7JYwiv+PZZ5+1eu3tuXPnfiQvAJjMAkT0+OOPW70e2E00RZv3jP6hHj16WAWil19+eTyFAwD0SQIA/HYAAACCdgAAAB4lLwCIBEAZAG6jxO4AkAGgEMUHABFPePBPAcBv4NEBAIcAVKSAgCAAQKOwlQcQWQaYPn16e/4RmcgJTIcp8TyACABAO3fuPMxtmuiTTz75imIAEBYCPJ2385us5iZotpMFiQe8iKZOnbqO2zXRjBkzNpIatHTi5Yvq4MGDVv3UpEmTyewdih9cKYFfqECBAl1sn1Pw0EMPDSXVL2HUOU+ePF1sHnsL1axZE+VJZhbAFwIc0LF6dLEbmD2jf0e9nXZnNZ+lZMmSAyn2TcPnyQJAQwp/B0A1ujQ7AIIAQMSMFAD8xh+5MmQIkAFAQIAAAA4BMgDwZQA0Hr9lAAAAyBMNsBypeQAPOCOSZ/lHZKKff/75/918880I9PHyADgARCBg5MiRy7lNEy1cuBBTpDIAJAwBU6ZMsZqb4G4niwaFEOIBL7Nx48ZWM8oPHTp0RipTGPEydsbv4nZN5Nhbz99BGl+4UoK/kO27JpxRK2a5uD/CqnN2dvYubtNEgwYNWkzxZwESgoAlS5Zs5u8x0fDhw1cRG/076r1582ZrF1wBrNx34BsPAgD0Q+iP0DfpAOAdCt4C+AzFAOARir8FEIMwAAAGZWkUA4DUDoD/I08iABA0CyAAQLcMoAMAECcaHgAADRENUiwDRPIAHFU6e/bsfv4xmahdu3YjKcl7AerWrWt1itS9GYwDgB8IaCHg3XfftbqdzN2qpASGEIoGvOLFi3e3mT0NVahQAaMnXq4gecrXtGnTKdymidi2O60fmJTgD/Xv39/qOQVr1qz5hlRfhFXnjIyMedymiZwgup/cGTRSAUCGAAEAOgjwgIDzDVu9Env79u1HyQsAvaFTp05Z2z2CGwXddyQCABiofES5ANCU4l8C9CypdwAAAPx2AJQl7w6ANNInAAoAQN+OPh4DvngAIGJHCgB+448OAAQEJAIAaBQCAMQyABqP3zKAAAA0QDRENEg0TLEMEMkDcDoQq2dxL126dDX55wEEAkC+fPkysV+e2zRRtWrVhpMa/ENDwFVXXdUTa9LcronKlSs3ALZ9xAMeVyTg4c51btdEn332GZZLeFnCKFIu5DbYzuGQtt3pxAFACwFPPPGE1b3taJ958+aNAmKiuueeewZxmya6ePHiv6644gr4ww8CBACEgYCIypQp042/x0RoF1deeWV/kkb/DsQO5H/PRFlZWZjtSxYAmlP8MwCwAwAA8DTFAOBhSm0BTD1xniAAEBCAChUQEAQAmAVINg+gHGmOBR4yZEgL/jGZyBl1n6PgPIB08gEAR51sn3ffo0ePJaQG/kQgoCuy0rldE4UItjzYKRo6dKjVBKolS5agA1V+u1SmIEXKhEtzuF0TudvulN8uiQOAFgTOnj17kds2UZ06dcaQ9/cn5LNjx46d5zZN1LBhw7GkAoARBBw6dMjq0cVNmjSZQbHRf58nn3xyPP87JhowYMBKigEAvmP4OhkAeJvUMwBeouAtgEgAxIAKAyv0r+hnBQDcQuG2AKJPR9+OPl4AQEFSg78OAOS4kgr+v7FHBgBIBwACAgQAcAiQAQCEiMYi8gCClgHQ8NAAbyOfY4Ed2n/0559xKrD6USWrxx57DB8ezwMIkwjYqWfPnlYvB3GAYh/FMpBFB8EVCAFOsLW6nWzRokUItkpg0IgHvKhq1649its10ZkzZy6SGsi4ePk8wjkH3K6JHD9tl+wrPnDFg78CAsuWLdvBbZvIaQ/Zbpm4f3RS/DR79myra+wTJ05cRTEAkCFAAEAQBGhBYMaMGav5e0w0derUr0kCgL///e9Z/O+YqHnz5oBFLDEEAUA6BR8D3Jj8zwB4nmIAUINiAPAg6QGgHKk7ANAv6xIAkwUAEUN48E8BwG/sSQQABAToZgEEAPjlAYhZgLB5AJFlgOPHj2/iH5SJBg4cOIX0eQBBiYARAKhWrdpgbs9EuNUvf/786HhkCNCBAIeAKAi8+OKLVreTnT59GrkJvgFCIx70OufNmxcZ5Vbvc6hevfoIqVxB4uWL6OWXX7bqJ59td4ovXPHgH1X79u2t7m13zyngPgmS5ze0aNFiOrdpoj179pyg3EBnAgEeNW3a1Pb1wGfIDf7QkCFDrB5F/sgjj4wmMwB4j/yvAX6R1DMAHnVUjbwAgIEVBlgyAKD/FQAgEgA5AKAvBwCgbxcAUIj0AIA4kQKA39mjAwAOAaJigwAADUMAgFgGCMoDKEWxPIAy5JMHsHLlykH8gzLRpk2btlG4A4E4AEQg4NSpU1a3IdWtW3ciqQCggwAdCHR1gm03nFHP7Zro8ccfHw7bTDzYcXmC3qpVq3K4XRP16dMHyyW8TEHylC9fvnzwk9UcjocffngYfw+pwT8QAu64444B3K6JkIB55ZVXAiq5P+IpUv4bbrihD3bMcLvJClcNlyxZEsFPhgABAElBwFVXXdXJdqJpmTJlhlIuAPRdtGhRDv/zZAVfFixYsC/lAgC+6zAAgNlJ9FEfUvxDgAQA1CT1FsAq5L8DQAaANAoPAIUpBQD/UY9NAEAD8csDkJcB0sj/WGAAQDQPID09vSH/qEz0/fff/+SMuhH85TwAHQCgs1EAwPZ5919++eVqUoN/EAhwCOi2evVqq7kJIYItD3pcnXF1Lrdrog0bNuzXlCOMouXCrYfcrol69uy5SLbPxAHAFwRweQ63baLGjRtPIdUPYRQpe05OznFu00StWrWaRrnBLlEI8AOBdjt27LB6dHHbtm0XkAsAzu+3dpiVU7cXKHd2gQMA2kKyAFCPvIcAPUfqGQBVKRgAMPACAKAfTiP1EiAM3gQAoE8PCwCIFykA+J09OgiQAUBAgAAAHQQIAEBDCZsHAPoEAPA8ALEM8IAzcnvw4sWLF/iHZaI333wTRB42EdADAJ988slMbs9ETkd2jGKHkIhOgotDgAcEnGBr9XpgJ9giN4EHB5140IuqUqVKQ7hdEzng9i9nJAX/KADkipdNEfbJc7smWrt27V7XtvL7JXEAUEBgzpw5Vpe5Jk+evJ7U3x/aT2PGjLG6xp6VlbWZYgCQDAQoGj58+BL+HhM5YL/bsYt+oR+W5vifJ6t169YdpFwAEEt9og7QBpAHEhYAGlEuADQgLwC8QMFnADxA6g4AAQAYgAkA8EsAlAEAfXxhSgHAf9yTCAAICOAAgIYhAAANhucB8GUAAQCgUDRGNEo0TjRSTx7Avn37FvMPy0STJk3KIv9EwHQKSAS89dZb+2Bak9tMVrgV7pprrulPXggICwKRTr1y5cpWr73FCXUs2CpBQiMe+LocP37cKrjVq1dvglSmIPGyRfTQQw9Z9ZObw4F68PWBKx78Pfroo4+mcdsm2r9//ym3PNwvOil+gp+5TRM57eA85QY7axBQp04dq3V5+vTpi47dvs73bfUSoClTpgB+ZAAQ7SURAGhCKgC8QnoAeJwuzS2A6NuvoBgAyMHfDwBELJEBIPX8Bh8dAHAIQOUKCPADADQQNBQ0GN0yQJg8gArErgd2RkiZ/MMy0Z49ew6QfyJgOgUAgKMMdLDcpomaNm06k1QA8AMBDgEREDhx4oTV3IRXX301KNgqQYMpEvjmzZu3hds10ejRo9doyhJPnrKdPHnSqp/q1q07jr/DFYcAXxC44YYbetted7/pppsGkOqLIEXLXqhQoR4//PDDv7hdE1WsWHEQJQ4BfjDQPm/evB0uXLhg9ejiRx55ZLzT7q1eApSZmbmUcpcWAAD4njkA4PeHBYCG5D0FsA7pDwF6mOIDwC2k3wKIfloGAPTjHADQ5/PRvwwAIm7w4J8CgN/oI1eQDAHxAECGADQMNBA0lKIU7lhgAAAaIRojGmU5Uo8Frvjaa6+9yD8sEzmd7b9LlCiBEb8OAJAHEAgAkyZNspolPG3aNIwS0EGITkKnQBBwgq3V64GdYLua1CChEw98UX388cdWrwfevXv3cVLhJwpBcRQp0/z58636acSIEauEbR9xCNDCgO1199atW88m1QdhFCk3ci64TRN169YNs24IeH4QEAYEPFq9erXt64FXdOjQYSn/7yZy+q7plAsAmAVIBgCaUTAA1CbvIUCPUfAZAOhjBQDcROG2AKI/FwBQiPQAIOJDCgB+p088ABAQIABANwuABqIDAKM8AEeVz58/b/UglzZt2gwndSdAKABo1KiR1fPuDx8+fJZiACCLQ4AvCDjB1uq1t5pgywOFTp7gl5aW1s/mcglGyX/605/6sXLpxMsVlVPvVv20a9euY+wdHADigUAEBsaNG2d73X2bVCbun7h+6tu37xJu00QrV67EGrsAgLAQEAQCHbp37z6Xv8dEa9asOThhwgSr5yCULVt2BCUPAB+Qeg9AfQo+BVAAwIPkDwDoa2UAwIysDgDQf6cA4P/IkwgACAjgAFCYvNsB0YCC8gDSKDgPQCwDVNq2bZvVM8AXLly4koJ3AvgCQLFixS7FefdDSQWA0CBQsmTJATaDLXIT4gRbJWgwRQLfnj17rJ7a9sEHH2C5hJclSJ5y3XLLLdb9dO2116KD1/5+jXjwj6hBgwZW192xJESqL4LkKT/OXeA2TYRzIfLmzSuCXjwI0IGAoipVqljdQolEUwcCrB1jDXtOOfENIblQAAC+V/jYBAD+SvpTAGtQLgBUI/0ZAOVJPQMgjcIDAPr3FAD8hz46AOAQICo5HgCgsQAA0HjC5AHcTHHyAEaNGtWKf2AmOnny5GlKEgAcWT/v3t2GhE5CiENAXBDYu3ev1dyE5s2bhw22PPhFNX78eKvXA8+cOXMLqbMgsnjZuLrt37//W27XRM2aNZsOuwHiEKDAQKFChbpfgnX3YaT+/niKltv2McW1a9ceSbHdD6YgEPlzB3SsHl186tQpa7/ZgV/0MQIARB6AAADUuwwAn5EXAFpQDADeJe89ADIAPE/+hwBVJP0WQAEA6HvTSN0CKAMA+nEAwBUUHwDEQDEFAL/DR64kGQJkAJBnAQQAyBAgAwAaDQBALAMY5QHce++9NbB2zz8yE1WqVAkdjgAAfHihAWDIkCFWz7tfvHgxpkhlAAiCAQ4BERAYN26c1euBnWC7GXY14kGDKxpEnJHtJG7XREePHj2vKY+feLkimjhxotXrgadPn/41ewcHgHggEIGBr7/++gC3baLMzMyFbnm4X+L6CHLa5E5u00TON7OcvGcg+EGADgS0whZD/h4T2Zwdcvy3xyljf7ILAK+TegxwTUrsECAMtmQAiLcDoCipACCCfyIAkHp+408iACBDAJ8FKEIqABjnATijdquH8PTq1WsSeRMBgwAgGvyh559/3ur1wGfOnPmR3KNIXXEI0IGABwacYGt1mcQJtudIDRg6KcFD6IorruiNW+G4bRPdeeedGNkqABRH0TK98847Vv3k5nAov90VhwBfGBg4cKBVqMzOzv6GVD8EyVP2zz//PIvbNBFmzSiW+GgKApE/b926tdWji23KAZ4NlAsAmAXQAQB+uw4A0CcJAGhK3ouAZAB4kfQAUJViAID+E/3on0l/BoC8A4ADAPpvAEAR8t8CKGIBBwAe/FMA8Dt4bAEAGktRCpcHIAAARIqGiQaKhooGKwAgkgewZs0aq3t/161bhxEuBwB8hOkUDACd8+TJg/PurW5Devzxx8eRFwISgYGeRYoU6esEW6u5CXfccQdyExIJtjwAdndGtlZPbevQoQNGtrxMXLxcURUrVqyP7RyO8uXLD3HtK79fEocADww888wzVqHy3LlzPzvtNNAXAep+++23W737Aj4vXrw4bMeDAB0IaFWyZMleNkftNtWyZUu0Uw4AqA8/AED/EwYAXqUYADxH3lMAH6HgQ4DKUAwA0PcmCgDo5zkAICYIAPAb/acA4Hfw6ACAQ4Co7HgAgEaDxoNGhMYULw9AAAAaqACAO0lKBOzcufO7/CMz0XfffXfxsssuw3SbDgDwQQoAECOOKAA46rJixYocbtNEvXv3XkGx6UKdOAQoILBp0yaruQnt2rVbQGpw5eLBw6MBAwYs53ZNtGzZshxNGeLJU6bNmzdbvUYZo2X+DlccAoJAoJsTtK1CZa1atQCV3Bc68XJHdPDgwTPcpokaNWo0mdydD5KCQMAPBqJ/vm/fPquJprb05JNPTnHKN4DUREC0AQ4A6ZTb/2A5kgNAY/JeBAQAeJliAPAMJXYI0C3kBQCeAOgHAEHr/ykA+A945MqSIcBvFkAAgAwBMgAUJbM8AADA3eTmATgj3KrOCNdakg5Ut25dBNakACAzM9PqeffusaHoKLg4COhgIAIATrC1eu3tkiVLEGw9kEFq8ODyBJGnn37a6k18CJLOyFaBHyZeJo8GDx5s20/I4VB+OxMHAQUIHLixurfd+Z0rSfP74yhaZuQ3cJsmco8pRvATSgQEdMqcNGnSGv6e34KuvPJKLFUBAEQeQKIA0JxUAKhH/scA6wAAAyj0o+hP0a8KAMCsqx8AoK9Gn42+G304+nIx/Z8CgP/wJxEACJoFEABQjMzyAAQARPIADhw4kM0/NBONHj16LqlnAaRTCAC4//77rZ53jyzwggULDiQVAIJgwAMCTrAdz+2a6OzZs8hN4MGViwcQRbZHts7vxMiWlyNInvI899xz47hNE7k5HMrvJhUCAmGgQ4cOVqHy66+/PkyqL7h4maN67733rJ6M53y/3xLbAUFeCOAgoAMCz581bNjQ6hZKG/r2228vOmUbRPYA4C2KAcArFAOAZ0l/CqDYAsgBAP2rDACYhbUBACI2pADgd/6EBQA+C8ABALMAMgBgSkkGALEMIAMAlgHQQMtSLgD8mVgiYFZWVg/+sZlo586de8m7FTA0ADjqeuzYMavbkNyTwzBlyBUPBCIw4IyM+9gOtk899RSCrTLbECAlkGDants1Uf/+/VewMunEyxUVZhCwRs7tmqh69epj8FsDxCFAgYG7777bKlQiJ6RIkSJoP4oPAhQtM+6p+Omnn6zuvsFZDCTtfmAKAwNCkb+DczlsJ5qaygGvY5QLAAD6ZADgI8oFgPcoBgANKAYAdSgGAE9TYocAoZ9Ff5tGMQAQ6/8yABQj/Q6AZAAg9fxOHh0AcAgICwAgRzSiP1BieQAAAKxXCQBAI0ZjrvTOO++8wj82EyEx6eqrr0bQTwQAIsEf+uqrr6yedz9y5MiNFEsc0omDgAIDTrC1ej1w3759jYIt1L59e6s38W3atAkjW16GICllWr58udXrgR0/ZfN3kAoB8WCgh22ofOONN6aR6o9A30jquX379mPcpon+8Y9/zCEp+dFVPBAIUpfNmzdbTTQ11fTp03eSPQBoRDEAeI30xwDXIPUQIMyc3k2JnQGAQVo8ABDB3w8AePBPAcDv7NFBQDwAEBDAAQAN6A+kBwA0PBkAbqbgA4HQqB+8cOHCCf7BmejDDz/8kvwBoAN5ASDS4VBup9Xtb3/7m9Xz7nft2nWKcjsMLg4COhiIAEC7du0WcbsmQmKhsM3EA4lvULnzzju/5HZN9MMPP/xv0aJFMZLkZQpbvt6dOnWy6qf169cfdG3zIBoNpgGKAsCcOXOsbncdO3bsBtL8/gB5yj1s2DCra+zz58/fTppdEK44CPjBgOfv2N5Caapu3bqtdso1mGIAgO8VbTIMALSkYACoSzEAqEUxAHiUYgBQkfQAgP5VBgC/HQDFSd0BgL6dj/5lAPAb/acA4Hf2xAMAAQECAHSzABwA0KAAAGhgYhmA5wEAALA+BQAoR5oDgRxV2bFjh9Wg64ziMXILAwBi2jEKACVKlOhv8yY397z7YRRbO9SJg4AHBu666y6r28kQbK+44gq8lwdYLh5IPDpy5IjVkW2DBg1mkAaA4ihannvvvdfqcbduDgfqgv92DgKBQOBApdX7Cvbs2QOo5H7Q+kSjXi+//LLVw5xOnjz5PWkSIMkLAn4wwBX5uzVr1hzN3/NrqmHDhvMoBgD4lpMBgPcpBgANyQsAL5H/KYDYAhgEAOhnAQCpLYCpR/skAgBBywACANCQipOaB8AB4CYKkQg4bty4tvyDM5ETmE6SCgCfkxcAxPS/BwAcdc/JybG6Dal58+ZZlNtpcHEQ0MFAJBjixDxu10T169efLmwz8WDiG1hmzJhhdWTrtIONmvJw8TJ5dOzYMavXA9erVw/T7cpvZ+Ig4AGCG2+8caDNve2wlZaW9oVbrjDylPfyyy/v+9133/2T2zVR1apVh5M3AVIGAR0MBKlbnjx5utvOfTHRPffcM5GSA4BW5AWAJhQDgPqkHgNck8IfAoSBlQAA9LcCADAbKxIA/QAAfXoKAP6PPDoA4BCgWwbgAICG4wcAPA9AAACmpwAAoFUAABovGjEacwQAnOcZm6NuqEKFChjhJwIAkeAPOYHI6nn3TqDcQbkdhxAHgbgwMHPmzO3cronGjBkTJtgGBlwHbKyObL/55ptvSQWgKAT5yFOmWbNmWfXTyJEj1/N3uOIQEAgDDlRavdfho48+woiU+8LXL0y9V61atY/bNFGPHj2WkCYJklQQ8IMB/ne6L1++PIe/59fQjz/++O+8efMOpcQBAP2PAIAPKQYA75AXAP5CXgB4kryHAJmcAXAVxQAAfTcAAH15EACIQWEKAP5DHrniZAhIBgDQgAAAaFBoWGhgaGgcANIoOBEQjfl+cvMATp06ZXW/dEZGxiTyBwDAgQAAz+jfUQ9ndDyF2zPRkSNHLpAXABKFgX5OsLV6VSoCEuz6iAcTrkggue666wbj9jxuO1lhZFuiRAl0tLw8XLw8UTmB0aqfdu/ejdkkz+/2EQcBDxRg3Z7bNhFAxy1TWHnK27VrV6tr7KtXr95HagKkDAJBQOAJ/EIdO3ZcwN/za+jAgQPnnfIMoVwAQCJgGABoSzEA+BvlAkAzigHAm6QeA/wcxQDgcUr8DACxA4ADQHFKAcD/+SceAAgIkAFAhgAZANCQ0KDQsNDAggAAdAoAQGMVAIBGjMYcBYB169ZZXfNbsWLF15QkABQuXLiP7Zvc7rrrrrGU23kIcRDQwUAUAv70pz8NtTlL4gZb5CZ4Zhp8xINJVDt37rS6XNKiRQssl3AACl3GG264YYhNP8GWYxPT7cpvJxUCfGGgQYMG07htEx09ehRQyX3Axcsb1YMPPmj1e8OSwuWXX47fGln2oHAw4KfIv3G+maH8Pb+Gli9ffpDCAQD6FAAA+ho/AHiXvAAgDgF6kdRDgB6mGACgr7yH1C2AAgDSKBgAMGhDv40+PBEAELFCBoDU8zt8EgEAv1mAIAC4htQ8AAEAaKQAADRaNF4OAFW6d+/enH94Jjp37tz3efLkwRqcDADtyQsAyvo/5XY+PTdu3Gj7CN5l5AWAhGFg165dVoOtM1r2C7ahg+6IESOs3lg4Z86cnZpy6MTLEpUzarc63f7BBx/MY+9QAqorDgJRYYeD7Xsd7r777lGsXPHkKe+pU6d+4DZNhORC0idDchjQAQH/88i/tZ37koycNr6FwgMA+hcZAD6mXAD4gGIA8DapxwC/QMkdAoQZVg4A6IfRH/+R4gOACP7xAECOH6nnd/jYAAA0HAEAaFACANDQdABQkvQAcAexnQB//OMfH/3xxx+tHuRSq1YtdHR+AIDRP1//Fx1Prz59+tg+WhZTpOhAZHEQ0MFAFAKGDx++kds10ezZsxFsPZARRzyg9Ktbt67VkS2S+FiZEi7fqFGjrPrJnW5XfrskDgJaIMBZB9y2idq3b7+UVB9w8bJGlZWVtYvbNBG2F5Ka/xAGBpTA76rXzJkzrSaaJqNPP/00m/QAIGY8/ACgDXmvAm5K6jHAr5AXAJ4m/SFA95F+BwAAAAOtNPLfASAAAH23DAB89C8DQGr6/z/s0QGAgAAZAAQE+AEAGpAMAGhgaGh+AAA6BQCAVgEAaLwKADiqevDgQav7k4cMGTKXVADAFJ0MAMro31GvJ554wurRsmfPnsVNbphK5hDgBwMcBAa++uqrVo9xjRNsQwXdAgUKDPj++++tLpfcd999Y/8/e+cBLldVtf9Fj3yAYEeNXJogFhT/2CheeiihKiogXCABAiF0MKBwBQNSBIRQpVlCIl0NBkiTAIH0SgrpJCEJBJKQxqefT/7nvTMrs+Y9e58yd+bm3pt9nud9Pj9yZ+bM2Wut97fWPjPjOA+fYud0+umnV/U6Fe/h4NeJGWpRDAHrdd999w3n526O/vWvf82gc3JeD9L6c+3Zs2dVv6YYXzAkyTdDMgz4tP4xl1xySVVvNK1EJ510Un9JBgDUDwYA1B0LABdL+dcAnynl3wJ4opR/BwAAoF7SvwMADRYAQD8B4AKAHSQOAL7xfwCAdnokAYBCQHMB4HOS7ZMACGIE875S/CRApAMHDRp0DydfczRhwoS3pEIAiHQXvjefn7M5iqDi2eh5AQEqhoBEEOjQocOD1TbbfffdF2YbmzZ4xGbSpDfeeKOq39p24403DjPnxOJzimmbbbZ5oAb3cPwF7zVBDAIxIOjcufMT/LzNUfFHlLJcEz7XJu22226P8XM2R/iK4c9+9rOI2fX3PhTFIJBFTY/9/Oc//0A17+moRHV1dX2kBAB6vbGmFgBQS1BXUGN+LYW6c7WU/w5AdykHgJ9L/EuAjhL/dwDsI+6PADIAoA5/RvwAoOP/AAAb2eGCgEoAAIGEgEJgKQAg4BgA6sQNAAhiBHMZAPTo0eMsTr7maPXq1f8eM2bMtBEjRrz56quvTho8ePCEAQMGjP3HP/4x+sknnxzRp0+f1x999NHX7r///mF33333y7fccsuQ3/zmN4N+9atfvXTFFVe8MHHixKp+ZWrv3r1HSjkAJMEAg0ATDERmW9V7E3r16pVktlnM5b7bb7/9NX7e5uiVV16Z7TgPn2LnA40ePbqq4/brr7/+X/wa4jDVohgCmhSZ9b3V/r2CCCqflIzXxGj9uc6cObOqPw98wQUXoFu2Wx8MA2lAYP+u6TmqfaNpHkVNwEfROeCTKRYAcO0UANA0pAHAZVL+LYBdIjVI/EuAOov7OwC+J+EjgOGowpEGAAoBFgAUApIAAIHmAwDQKQAAtAoAQPA6ASDSQVGHW9WC1Jq0fPny/500adLisWPHLoyg5O0ISuYOGTJk1osvvjijf//+05599tkpTzzxxMQ///nP4x955JExEZiM+v3vf//Gbbfd9lrUFb9y7bXX/mvgwIFV/V2AYcOGwWxj04YEsZncd/DBB1f119sik/xo880390JQBt131113VXXcPnTo0Jl43gQxBDiBILreM/m5m6Pofb4u8ffvEp9vk/r16zeen7M5evrppyeI4/6HohgEfLKP6Y3vYuDXaSlNnjx5iaQDAKaIFgAaxf0tgBdI/EuAfiqFTwAoABwp/u8A+JYU7qGyAIAGCwCgNwAyAHxCqgsA4WjDR14A4CmABQAEVLUA4AdSBICpU6e+yEkYVDthvDpjxoz3oi5ryYQJE96JOuf5r7/++jx04RGczHzhhRem42bBZ555ZnJkFhOiYjz2oYceGn3fffeNuOOOO4bffPPNr6A7XrZsWVW/We7YY4/Fdgmbv0tsdE06/PDDn+LnbI6K93Dw68UM1YghoEk33XRTVT9/P2rUqPmS8ZoYrT/PLl269OfnbI7mzp37gcTvf2AQyKqmx1f7RtM8GjBgwAwpAIBO6XD9FAAwsVAAwJYithdvkBIA9JTSlwD1kPTvADhG3N8B8F1xfwJAAaBOkgEAzRrqte7/ZwUANv8AAG38yAMAvm0ABgAEmAWAHSX9R4EUABDUCG4AAG52qY9M5iZOwqCNTzDcWbNmvf/WW2+99+abby4eN27cOzC74cOHz8XUYuDAgTP++c9/Tvvb3/425amnnprUp0+f8Y899tjYBx54YNTdd9/dBCcrVuBbgePPXamOOuqoZyTdYBkEyvTd7363Dz9vc4Tfddhmm23QnTIEuMTnev/HP/7xh1atWlXVnwfea6+9/iie+yBIMbMnNT2+Q4cO91f73pes6t2792gpAYBeQ5wXzhkAgHuHGACSvgPgHIl/B8BJUgKATpL8EUBsoSoAoLGyAIC6i/r7WYl/AoABgM3fAoCv+w8A0MaPWgMAAk8BADek1IkfABDMMQA44ogjfsxJGBTUGoQtnAULFqyYN2/eshkzZizFLz1Onjx5UQQnC0aOHIktnTnYKsA2Tf/+/ac+++yzk5988skJEZyMffTRR0fff//9I7A1Abjh526OTj311P4Sv4fEt4USg4Hx48dX9V6Xa6+9dojQ1ocRm7xL9u+bJicjRoyo6r0vWdW9e/fBUhj/KwAA5BQAcAMgAOBW8X8EEABwiRQ+AaAAcJb4PwJ4hGT7GWDUUwAA6mudhE8AhCPDUQ0AQAC5AAABxwDg+jIgAADGWE4AiHTIe++9t0GSPSioLQrd8eLFi1fOnz9/xezZsz8AnLz55ptLImPHls6C4cOHzxs2bNgcbOkMGDBg+j/+8Y8pTz/99OS+ffs2belExwJ+zuZo0KBB0yW+/cEgkEX62PvuvPPOqt5omlUHHnggpj66/28BAPv/9hMACgC/ltJHAK8S/0cAcQMgAOBkiX8E8BAp1ELcAPh98QMA6irqa56PACaN/wMAtPPDBQAMARoIWQAAgVV1AFi6dGkAgKCgNixACT7xEMH86nfeeedD/HT0rFmzluIHn6ZMmbJowoQJCyI4mff666/Pefnll2cOHjx4egQnU/CjV0899dTExx9/fNxjjz02+sEHHxx59913v96nT59x/Bq1Fu6P+Z//+Z/HJPkGQAWAm6R5nwAAABwllX8CAPX285L8CYA0ANAmMABAOz1aAwBg/8oLAFGy/4ITMSgoKKiltWDBgg8lvv8PAND9/6w3AF4k/l8B/JFk+wQAAAB1E/VTAWBXadlPAAQAaOPHhgAABGgmAPjyl7/cadmyZYs4EYOCgoJaWiNGjJgv7vF/2v6/7wZAAMDZ4v8RIL4BEACA+og6iXqpAOC6AdAHAK4bALMAgPWHYP7t5GjVADBmzJiqfp48KCgoqFL169dvsrg//ufb/wcA6P4/bgC8XJr/GwCoj7z/rwCA6WqdNO8TAGkAYD0jHG38aLUA0NjY2GXt2rVV/ThSUFBQUKXq1avXa+K++9+O//Ps/3cV/1cAAwCOkNINgACALDcA1kn2GwBRu13dvwWAMP5vx4cLAKz5KwBoUKQBAAIsDQAQpIkAsP322x+wdOnSqn7DXVBQUFBzdNpppz0vpe5fAUC7fx3/Z93/BwB0kdL+v70BEPv/rhsAAQCuGwAVANBc2U8A6PjfBwBJ4/8AABvB0RoAAEFcBgCvvPJKVX8EKCgoKKi52muvvR6XUvfvu/vftf9vP//v2//XGwCx/683AB4m5d8AqDcA6v6/AgBq6a6S/BsA4QbAcMSOagAASNIFAAg8BoA6cX8R0HoAOO+8805cs2ZNVb8YJSgoKKg5wscYpXzv347/0f1j/I/u3zf+x/4/xv+6/4/x/1ni3v/XGwAPFf83AKJmYnqK/X8FgDpJvgEwAEA4yo48AIDgYABAECUBAAIQgQgAQGDWiRsAMM5qAoBFixaN4OQLCgoK2pDClylJ+d4/d/8Y/2v3f4OU3/2P8T/2/zH+1/3/LpK+/w8AqJfkbwAEAOwuyTcAKgC4bgDMAgDqDRYAwtEOjrwAgCDxAQCCCwCAvSYGABCpBQAELAAAAawAsM+AAQMaOfGCgoKCNrTwrYkSH/3r3r+v+9e7/33j/wYpff4/y/4/AMDu/6N+oo6ioUJdtfv/1bgBkAEgdP/t6LCL6QMAvRnEN/6vGgAce+yxh6xevXoZJ15QUFDQhtbDDz88WuKjf+7+b5Tym//47n8d/58jpfE/9v91/I/9f4z/k/b/+QZAjP8BADuL+xsAfQCQ1P0rAITxfzs+XOZfKQBgrGQBAEHnAgAE6a5SAACMrgAAGGXtPXfu3H9y0gUFBQW1Bl111VUDpWT+ad2/68t/MP63d/+fKfHv/8f+P8b/ncT9+f+k/X/U1qz7/wEAwuEEAGv+dvyfBAC6/w8AQKApAPANgPodABYAEMRff/zxx8/nhAsKCgpqLercufOT4h793yLle/+NUt794+Y/jP/R/WP8j+7/bCnc/c/jf+z/Y/yP/f9DItVL8g8AoYailmKqWiclANDxvwWASvf/AwC00yMPACA4XACg43++ATAJADCuArU2AcA+++zz3RUrVlT118dU+PGO8ePHvzlixIiJY8aMmRL977cmT548e9q0aW/PmDFj4dy5c5csWLBg6aJFi5YvXbp05bJly9Z8+OGH/7tmzZrwBURBQUHr9dnPfhafAID58+gf3T9G/9r9Y+/f3vyn3X93KX35z1mSPP4/XPzf/1/J/n8AgHCUHS7zTwMABIkCAO//MwCAPF0AgEBVAMD+1VenT5/+R062aumZZ555SQojOJA4iByJiQRtlMLndJG0SF6M75DIoHkkNZL79m233fauHXfc8d5ddtnlga9+9asP77vvvn888MAD/3zEEUf0Pf744584+eSTn25oaHiua9eu/+jRo8c/r7jiihd/+ctfDrrhhhuG3nLLLcPuuOOOV++9997XH3744ZF/+tOfxvTr1298dE4T//73v7/5wgsvTBs6dOiMV155Zdbrr78+NwKU+RMmTFg4ZcqUxTNnznxvzpw578+fP395BCcfvv/++6uXL1/+0cqVK//z0Ucfxd5nUFBQ7fTee++tEr/5o3ag+0c9aRR3929v/usSqUHid/+7xv++j/81d/8ftdtl/i4AsP4QzL+dHC4AcJk/AwCP/xUA8twAiIAFuX7l7rvv/kmtvu73nXfeWRwZOAg8DQCQvEhijPEUADDaa4IAKSQ8hLEfCgCEYgBhP1CF8aBL2Dd0if+OZZ9b1fS6W221Ve9PfOIT93Xs2PHBPffc8+FvfvObj/zgBz/44yGHHPKXo48+uu+PfvSjJ0477bSnzz777Ge7d+/+98svv/z5q6+++oXrr79+4M033zzk9ttv/1fv3r1f/cMf/vD6H//4xxGPP/746CeffHLc3/72t4kDBgx4c9CgQVOHDRv21vDhw2eNGjVqbgQm8yMweSeCtcWzZs16LwKTD6LruwKFET/xGqYmQe1ZEydOXCCF/Lfmj1qh5q+jf77z33b/3aTU/fOX/2D831ni43/s/7vG/7r/j/H/rhL2/8OR88gKAEqFPgBI2v93AQCCFUG7x6c//emvL1u2bAonWzUUdcn/7datGwwTCagAgJGcBYBfSyFxkcCYAgAA7BTABwEWBCwMMBDklX0elX0dKz0Pn/R8rfhvqq5NN9309xF03W2mJg995zvfefTAAw/8U6dOnfqccMIJ/X72s589ceaZZz5z3nnn/e2iiy7qf9VVVw249tprX+rVq9egW2+9dehdd9017L777nvtkUceeaNPnz6j/vrXv4597rnnJvTv33/ySy+9NGXo0KHTX3311ZkjRoyYM3bs2LdRnKdNm7Zo5syZ72JqsmDBguVLlixZqVOTVatWhalJULP0/PPPT5S4+aNeoG6ghqCW2Bv/krr/M6X85r+TpPTlPxj/HybJ438AgI7/UUvRVNVJ/PP/rv1/1Ou08X8AgHZ+uMyfAcDV/TMA+Mb/Sfv/CgB7jhs37jZOtGop6l5fk8LHbhgAQOcY0SFZFQAwBdBtAB8E+EBAxQZdqfh5ITZyCOfSUuLXZvHfs/jvfeL37RJfr8zaaqut7v7kJz95b8eOHR/Yc889H/rWt771qE5NOnfunDo1+d3vfvcyT02eeuqp9VOTwYMHT/NMTZaEqUnbVrTuL4vb/FE7MElEPdHRf5bu33XzH8b/6P4PlcrH/2H/PxyJh11ECwCu7p8BgLv/tPG/CwAQsF++5pprDqvV1/1GxXVZXV0dRv8XSyEJQeIuAGiUQvLaKYAPAhgEksyNTcuK/5bF5gnp61rpOdVK/Hq1Fr9nFl+nlhKvX9Xlm5rU19evn5qccsopTzY0NDyNqcnFF1+8fmpy4403Ds46NXnttdfs1GShTk3mzp1rpyZrwtQkrgsvvPAZKe35s/k3SqGm6OgftecyKX3u33b/DVLq/n03/x0i8S//+bbEx/8AADRUqKuu8b8CAGrz9lK+/48abs0/AMBGcrjM3wcAav5JAPBxiY//U/f/33333dc4yaqlqCj+QQqJhwRUAEBSKgC4tgGQzD4IYBBwGSQblk/8OCs2YQiv65KeV5Ls+TdH/Nq1EL/vpGvdEuJ129BiMMkKKLFJSB516NDhrk996lP3fPGLX7x/jz32+MO3vvUt3Gvy2KGHHvrnY4455vEf//jHfz399NOf6tq167ORSTZNTX75y1+un5rceeedL99zzz2vPPTQQ8MxNenbt+/oZ555ZlwEJhNffPHFyUOGDGm61+T111+fNWbMmLnjx49/+80331z41ltvLZ49e7ZravLvDTE1OeCAAx6S8hv+XOavd/3b0f8FUn7nv937R/d/opS6/05S3v27xv9fE//4nwEg7/6/CwCsRwQAaAdHEgBY83d1/woA20j28T+Csmz8H3UiV3GCVUuTJk0aLwXivlAK4zcLAKBzeyOgbgMgkZMggI00j3mx+LEqNl1IX9sK5+QTzjmr+LG1EJ97mvj9J13zWovXbUOJwSQPpDAstBttuummd2633XZNU5Pddtvtga9//evrpyZHHnlk2dSkW7duz11yySX/uOqqq/553XXXvWjvNXnwwQdfe/TRR1/v06fPyCeeeGL0c889N+6f//znhIEDB05++eWXpwwfPnz6qFGjZkYghBhEXUB9QK1A3WiUcvO3+/4XSWn0f46UvvaX9/7R/XeW8u6/XpK//OcrUrvxvwJA6P7b4WEX0QKAr/tnAEDQIHgQRAoACC4AgB3/e/f/f/7zn38vIvgP2LiroZUrV6753ve+B5M/X5IBQLcB7BTABwHWLPMYFosfq2LThNisIZwPC+dZLfFz10r8vlh8LVzia1gr8Rq2tBhKWAwLWcGhPYrhJ4/0OfTa4dri+iMGNB8Ru6gNav6658/mr/v+F0r8xr/Tpbz7P0HKu//DxP3Vv3b8v5dku/s/bfy/tbgBwHb/AQDa0eEzfwYABAGEgEBgIEAgBAuCRgEAAQWqzDX+X7hw4d/ZuKuliOT7SGHchsRDAiIRQePYj+MbAe0UoFHcEGCNsRKj4sdYsTFCbMo4DxbOzyecf1bxY7OIz6Ua4vfM4mvUHOl157XIIl7blhSDSVZIYWBor2L4ySP7PGr6PuNH3jRKsvlj21HN/zyJ3/j3M6ms+99bSjf/7SGlL/+pEzcA+Mb/20jc/KEtJQBAuz58AKALrQuPIEAwQAgMBAmbPwJJASBp/F/W/ffv3/8sNu1qac6cOTM233zzcyUdAFxTABcEWMPLa0r89yo2Py0sVmzUOCdWYwuIX7Na4vfH4uvB+k2NxWuWJF73WouhJA+cMDi0JzH4ZJV9DjV8NX3NV81JxC7qBOoFmge921/3/K35XyAl8z9bykf/uPHvRxLv/g+V0t5/npv/fON/BQAd/6Neo3ajhqOWf0zC/v9Gc9jFg+zCYqEhLDoCAEIwKBm6AMB2/zz+1+6/DAD233//r69cuXI+G3c1tGbNmn//6Ec/gpmfIyUA6C7lAGC3AewUwAUB1qiyGhD/nYoNjg0RaiThXKxwfiycd7XFr9Fc8ftIUmOC+HpVQ7wuSeI1rbU4tlgMIi0FJQwerU0MPT7x4/T9qelDWAfNV81B5Ih2/Wnmf46UzP90id/4d5zE7/yvl3j3X8nNf5WO/xUANitqU6NNjMLRxg67eHZRdaGx6JCaP4TAcJl/lu4/Nv6fPXv2w2zc1dLzzz//NykkG5LOAkAPiX8SgKcADAHWjLKYBv+NqpHEhmeNko0Y52SF82Th/Kspfv5KxeeeRfz+mwMlem35eleixhzi9a+2OO6sGCBYv2lhMZS0Vun56nWyOd0ohRjQ/ERsI09QO1BDMFFEY6E3/LnM/0wpmb9r9H+UxD/3v58U9v5t9/8NKe/+dxN/9x/G/+EoO+ziQbqousgQFh0BAKn5JwGAr/t3jv8fe+yx4z/66KP/sHFXQ4sXL164ww47dJV0ANBtADsFUOOzJmSNhNXo+G9WbEZZTZ3NGOdmhfNloQhVU/z8lYjPO4v4vbMYMHzi69scMYT4xOtdbXF8sRoTxABRDTF4tAYx7CSJHwvpe2ssSvNYc1bzE7GKPLFdvzV/1ByX+Z8m5ebPo//DpPStf/uLf+/fdv+7irv7/6y47/6vZPwPbVrUJkbhaEOHXThIFxTSRdZFV/PP2/3rzX8IPgQhghFBieCs23HHHXdfvnz5m2zc1RC+7vfiiy8GySPZkHQ+AOBtADU8NSA2ES70aWID8Zm7NT5rnGzGOEcVoIWF91Er8WtVInv+aeL3zmLISBLDRSViAPGJAaSa4nhicfxZMURkEYNFtdTYSmXPUa+BzWWsgear5idiFfmhXT/qCuoL6oyavzYibP4/kfJ9f9/ofz9x3/mP7v8rUur+d5F49/85KXX/1Rj/BwBoB4cPAFzmb7t/BIcPAHJ1/1OmTPktG3e19MYbbwyRwt21SLguEgcAeyMgTwGsudjCz8U4SWwKaiLWlLIYuzVgnKMK58zCe/EJRSlN/Jgk8WvnlX0vSWIIYTFgJIkBoxIxhLjE8FEtMZC4xHFXCZgwVFRLDCStUfZ8OZfZ9DU/EaeaYzB+Hfl3k8JH/dLM/0Qp3/fn0f/+Urrx7/9Jcve/s5S6/y+I++a/HST5y3/SAMA2iwEA2uDhM38fAFS9++/Vq1f92rVr17BxV0PLly//YPfdd4fhAwDOkjgAIDkVAHgKoEbBxZwLbZJs0dbnsSaihuQyd2uS1nCtUeO8rVB0XMJ7rFT8XGnic8ojBhGXGEBYDBhZxcCRRQwhPjGANFcMIy4xjFQCJhzPzRWDSGuWPW9XDmMdNF81R9n47cgftQc1qEGSzb+zlPb97ej/ACmN/veVwo1/35T4nf+u7v/z4u/+Py7p3b8CgHoBAwD7SDjawMGLlmb+Wbr/7SRn97906dJX2birpdtvv/1OKXy0pkHiAAAqVwBA0qq5qBnYwp2lqFrZQmwLtxqCGoiaT5K5W3O1xozphRXeixWKTy3Er5NFfK5ZxCDCYvBgMVzkFYNHkhhCfGLoaK4YSFgMIpVACYNFc8W50pJiI0+SPWdX/uL6a84iXlzGz10/GhHUo1Ml2fw7Scn868U/+v+GlH/uX7v/Osnf/W8jfgCw3X8aAISjjRx5AaCS7h/BhqBD8IFAQaLru/+RI0dezqZdLU2dOnWUFBINtN0gfgCA2ahhaDG3xdVVMF3FgYuEFooko1ezYYO3Rqgmak0Y567Ce7FC0XEJ7zuv+Dlc4tfPI/s+ksQQwmLg8IkhI48YQFxiCMkiBo+8YhhhMYSwGCqyiEEjrxhGWqP0XO375tzVnNU8ZeN3df2nSOGjfidLac//OImb/yFSMH+M/mH+3xf/6H9P8X/u33b/qMWflOw3/0Go+WH8386OvObP3T+CBLIAgEBCQCGwAAAItE+Jp/s/66yzvl3Dr/tdfcABByAhkXAuAECCqrFocddibCGAix0XCVsoXMVCC4YWay36bPRs8mzu1nCtQaPIqPDeWOg8qil+/iTZc8sjhhAWAwiLISOLGDiyiCHEJQaQPGIAySIGkjxwwmCRRwwdWcQg0lrE56nv0eauzVvNV8SR5iTiH/XmTHF3/T+W0t3+x4nb/A+S8n3/70rpM//fFP+Nf3VSfud/c7t/aAvJ1v0HAGgjR6XmbwHAmj+CCMG0vWTs/hctWvQcG3e19Pjjjz8sBdLOAgBIYlsgtaDZosAdkMvobfHgguEqGmz0bPBqiGqo1ojxXlQoMlYNCUIxyip9TJr49bPInn+azk4RgweLASOPGD58YgjxicGjEjGIuMQgwmLYcInhIo8YPtLEMLKhxOel70evic1brIXmq+Yp4hEx2yAl47ddP5v/sVK44S/J/F37/t8Q9+h/Z0m/8x+1GXVaAWAbiZs/hFqv5g8FAGgnBy+YLiSki2sBAEEAISAQGD7zR0AhsBBgtvtHAJZ1/y+++OIZbNrV0rx586ZtsskmSDgQNxIQiaimYwEACazFUIuWFoKsnY3tgmwRcRUOn9mr2VijtwaoptlQlDVpwI0K75WF4lNN8fP7ZM8rjxhCXGpIkQWNNDFsZBHWJ00MIWli8MgjhhEWQwiLASNJDBpZxQCSJoaRWotfH7Lnr+9fc9Zl+pqjbPy268fI/0QpfMmPNf8jJN38vy2lX/uD+e8l8Rv/6sT/uX/b/aNOo2ajdrsAQM0f2kL85g9tYhSOVn7YxYLsQuri6mJj4SE1/zQAQFC5un+Y//ru/6CDDtpr5cqVb7NxV0P4ut9TTjkFo3gknQ8AkLha+LQ4oQjYzsV2BdbkrdGr2Wc1fC4ctnjYAgKxwbsMHe8PQpFh4f27hC4ki/hxSeLXTpOedxYxgLAYPFxiyMgqBg+fGjKK4SOPGEJ8QjwlicGDxXCRVQwdaWIIySoGkkrFz2vF56rvMSlnNVcRb5qTyA0Yv+71w/jtyP9oKX3U7zAp3/NX8/+elJv/3lL+a39flrj5dxT3t/6hKVPzt+N/a/4MAFsUpZ6wWVGbGm1iFI5WftjFgnQRdWEhLLQuPIIAQkAgMHzmz90/zN/Z/Ucd+h/YuKull1566UkpGBgSUA1CAUALIJJZi4kFAIUACwI+uQxfTd8WGC0gXDy0sDeI3+jZ4F0mjgKjQqFhoeuolvi5k2TPK6sYQlxi+GAxbCSJYSOLGEBcYgBJEkNHHjGIsBpSxJDhE0NGViHWs4pBZEOIz8m+F5uvkDV8zVXNUc1L5AyM3+71266/kxS+5OdQKd3tf6Ckm/9XJX30/3lx3/gHALDm7+v+XQCwmdGmRW1CCkcrPnixdBEhXVgsNGQBQM3fBwBq/gguO/r/rFD3/+c//7lzrb7ud8mSJfM/+clPIhEtACBJGyQOANqFuCDAgoCV/Xdr+Eldvi0kWkDY8Nns2ejZ3NWQUVxUKDJW6DZ8QjFKEv99kvh102TPOU0MIC4xeLAYMrKIoSNJDCA+MXxkEcNHmhhEWAwfLAaMNDFwZFFDDlkIqaUaHLLnbHNV89Vn+pqfiF/NNWv8R0u863eZ/3clv/l/Sfw3/n1S4t0/m3/o/tv5YRcLYvOHXOafpftHcH1C4t0/gvELkTp+8Ytf3GXFihWT2birIXzd71VXXfUrKSQhEhLJqUWtQQqJfrb4AUAhQOUyezb8NNO3BUYLic/wtYDYImJNXg3UZeLYT1Sh2LBQfJojfr4k2XPJIoaPJDF8sBg2fGLQyCIGD58YQHxi6MgqBhCfGEBYDBs+MWSkiaEjTQwhWaW5xFCSJH4Ol/j8bJ5qrvryVfMUsai5iPyxxm+7fpj/QVL6kp/9pHS3fxbz303i+/5fEPfoH7V5e6m8+3cBAPtJOFrxwYuV1v27Rv8KAGz+CCwAAAINAYfAQwAiEBGQHSN9aerUqTexcVdLI0eOfFEKiYjE1MKFhNauA4bsAwALAUlKM31r/A3iNn1r+K6uwRYRNXo1SzVZa86djVBorFB0aiF+nSTZ88sihg+XGDpcYtBIE8NGmhg+fGL4SBODR5oYQFxi+GAxZCSJQSOLGD6SxADSUuLzsDmqeWpzlQ3f5qrmpeagNf6krv/7ks38vyxx80eNVfP/nJRG/6jHMH/UZ9Rpn/lbANDan2T+AQDa2JHH/PN0/wgqBBeCDMGGoIP5Iwg/L8XR/80333xgrb7ud9myZe/vscceMFstUEho7S6SAIAhIEn4OzV+PN7V7TdIuulrEXF1DVpAIGv2ao5s7EcZochYoeAk6QiP+O/SxK+bJnvOaWLwcImBwyWGjCxi6EgSw4dPDB1ZxOCRJIYPlxg4XGLISBMDR5oYQNLEEFJN8WtBfL76PvX6aK5qvto81fzUnESOuIzfdv0w/+9J6Ut+fOa/p8TNH6N/NX/UW9Tdz0ry6H9biQNAB8nX/TMAhKMVH0xqbP4MAK7uH4HC5o+AQmDB/BFoCLrPiOPGv6VLl77Cxl0t/f73v79VSoUCRqujSBgxDBnmnAQAadK/bU63r8VGCwqbvsvs2ejVRNV81bRRYKxQbFw6NKf48T7x62eRnnsWMXS4xKCRJAaNNDF0+MTgkSQGjqxi+PCJ4YPFoOETQ0YWMXQkieEjqxhCsoifwyU+P31Pej30+rlyVXNUc1NzUY3/ICkYv3b9duSv5r+PFD7nz+a/h5Sb/85SMn80WTB/1FyYP2qwmv8nJJv5KwBsWdQWkt38AwC04oMXyi6iy/whBACCQQMDQYJgQdAoAKj57yCl0T8AAAGIQFzf/Y8ePfoyNu1qaerUqW9IIblhrtr96/gfhtwgbgCAzjE6tyj73yD9Wzwuq/FXYvps+ElGr8arRo0CY4Vi4xIKUF7xcySJzyNNDBxJYuhwSa9PFjFkZBFDh08MHEli2Mgqhg+XGDp8YsjwiSEjixg8ksTw0dLi87Hvw5q9NXybq5qjmpuai/XiNn7t+veVUtf/TSl9zr9S80cdVvNHfd5eCvWazR9SANiqqC0lf/cPhaOVHrxQuoC6qJAuNBYdAQAhGHzmv51kvPGva9eu36rl1/3W19efIwWD9XX/DRIHAAimDuHxLP03/Vs8Do+H8FwN4jZ+wIfP+JNMX4sIFxJbTLSgaFGB1KTrSSg2LqEA5RE/Pk31OWVBI00HZxRDRpIYMrKIocMnCxtZxLCRRQwePjF0uMSAkSQGjSxi6EgSg0etxa+veanS921z1Jenmp+al5p3avw67kfXD+PXrh/mv7eUf8mPmv/uEjf/L0m5+Sft+6NWQlRO7AAAWA9JREFUo2ZvK6H736gOXii7iLqwutBYdAgBgGDQwGAAUPNHYNnuH8Gn3T/Mv6n7X7JkSc2+7rdfv34PSGlP0dX9nyHpAOCS/g3+HsJj8RwN4jd+wAcbf1q3r0XFFhNbSGwx0YICqeFas8Z+ohUKjk8oREniv08Tv3YWMWwkiUHDp/qc0uuaVViLrGLYSBODRhZZ4EgSw4ZPDBhpYtBIE0NHkhg6aiV+XZU9b32/1ux9eVovpdzUPGTj571+7fq/LoWufy8p7PfvIcnmjzrrMn/U5CzmD3WQuPlDmxe1WVGbGm1CCkcrPXihdAF1UXWRddHV/CEEBgIEwaLmjyBCMKn5gzLt6F+7fwTnlwYOHHg6m3a19Pbbb0/ZZJNN1Py5+/+5uM0f6mLUlaT/Xf8Wj8PjoQYpN39r/ICPLB1/FtNXA7HFxBYULSoqa9woMlYYM9ZK/FppYsjIIgaNJDFgJIkBI4sYNpJUn1MKGHmkcZJFFjR8YrhIE0NGFjFwpImBoxbi14T4vPU967XS66o5Ctkc1bzUHLTGr+N+V9cP8/+KlG72210Kn/PfJVKdlI/9vyAl80ftteaftO/P3f9WRW0pfvOHNjXahBSOVnjwItkF1EXVhcaiIwAgBIOaP6RBo+av3b+O/rX7L7vx7+CDD/5KLb/u99RTT+0hpdF/1u4f6pIg/Rv8PYTHNoi/6+dxv93jz2L8Wli4oGgx4YKiRUULiwoFRoVCw0LhaY74+bLInlNWMWSkiSHDJwaLrGLISBODRpIYMLKKYSNJ9RllwSKLNF6zSo0zqzQvWkL82ip7/vq+64vS6+vKUZufmo/IIe341fht188jf5j/blK5+Wv3j3rNAGDNP3T/7fjghdIF1EWFsMi66Gr+FgDydP8IyM9Lsfuv5df9Dho0qJ+U3/j3M0nu/qGzi+rikf47/haPgxrEbf54PbzuT8Tf9dtRv8v4tchoYdGCogbhKyhaVFRq0ugsrFBwWkL8ulnEgJFFDBhJYrBIE4NFFjFkpInhIosYMLKIQcMnBoskMVhkVX1OqdG2tOodsu/DXgvOT81RjQvNT81J5EiS8duuH+aPrl/Nf2ep3Pxd3X9zR//QJqRwtMKDF8kuoDV/BQBX9+8yf+7+EXyfEbrxr0+fPsfU6ut+33333be33377n0j5jX+nSMn8YdZniLv7dwGA/Tf8LR4DNUj2kX9S18+j/iTj16LiKihaVLSwaHHRAmOFYuMSClAe8eOziM8lqxgs0sRQkSYGiqxiuEgTw0UWMVxkFUNGkhguksRQkUUMGFnEoJFVDBpp4sf7xOdn359eG72evvzUvLS56DN+7vrV/HeRkvl/SeJ3+39OqmP+DABs/gwA7CvhaKUHL1SS+Wft/jPd+NcCX/d7jbhv/DtN3OafBAAu88djoSzmf5LEzd/V9cP4D5WC+WcxfldRcRUWlTVtFBqXsNdYqfi5soqBIqsYKtLEMJFFDBRZxWCRRQwVWcRgkVUMF0lioEgTQ0UWMVxkEcNFrcSvq7Lnb9+/Xjebm5qfGh+am5qLyB+f8bu6fph/nZRu9oP5f0GaZ/61GP0HAGilBy+SXUQXAOTp/hFkCDYEHQLwM1J+41/H6dOn38jGXS2NHDnyBSmN/n8i8dE/DLuhKAUAl/nb/wap+SsAWPPHc58ifvM/XspH/rrX7+v6sxi/FhUtLFpUtLBocVFZs0axcQkFqFLxc+URw0RWMUxkEYNEVjFQZBVDRRYxUGQVQ0UWMVSkiWEiixgqsorhIqsYMLKIn8MnPkf7PvUa2bzU3NT8tHmpuYj88Rm/r+tX80dN3VDmnwYA4WilBy9UkvlXs/vveOuttx5Qw6/7XbrnnnvCkH8s2Uf/FgCSOn8FADyWzR+Agdf6qcTH/sdLsvlr1w/zr5eS+acZv6uwcHHRAqNFRoVi4xOKUB7x4/OIISKPGCKyiAEijxgksopBIqsYJPKIgSKLGCbSxCCRVQwUWcVQ0dLi84Hs+9LrYq+pLy9tPmrOJRn/ruIf+bP5f0aymz9kzd81+mfztwCQZP4BAFrx4TJ/HwA0p/v/rNDH/j744INaft3vzeIe/ec1fwsAWcwfr4PX+4n49/yPEb/5HyQF8+euP8n4tdhrcVGjUrOzBUbF5o2i05Li188jhoc8YnjIKgaIvGKIyCqGiDxikMgiBogsYoDII4aJrGKYaCnxeUD2/djrotdU18OVlzYXkRdZjd+O/K35a9ef1fyhbSTd/F0AoB6RBgDhaKUHL5QPAKre/Y8dO/ZSNu1qaerUqa+L/67/vOafFQDU/PFaMH+8Ns7hJImb/9GS3fx9Xb8tOFpkbIFR41Ljs0XGCgWHhQLUXPFzViI+17xicMgqhoa8YnjIIwaHPGJ4yCOGhyxieMgjhog8YohoSfG5QPZ92euj11bXR9dY40TzUeMdecPGn2T+rq4/q/lD20q5+UMfk+qO/gMAtOIji/krAFTS/SMAEYhl3f955533zTVr1rzPxl0N4et+f/jDH8K0fyzu0b/P/Nn0fQDgMn/f6P8kKY3+j5XS3f5HSuGGP5j/YZLN/F1dvxYcW2i4wGiRsYVGiw0LxaclxK+bVwwKecWgkFcMDHnFwJBXDA15xeCQVQwNecTwkEcMD82Vz7yzis+P36teL3vNsW66/hpHiEWNaeSFGn/err+lzd8CgPUNFwCEo5UevFBs/goAWbt/BBUCDIGGgEPwafeP4Fzf/S9ZsuRZNu5qqW/fvg9I/At/7L5/gySbf9ei8gCAr/uH+Z8g8X3/TlK62x/mf7AUzB97/pWYvy02vkJji40WHCsUnw0hPo9KxZCQVwwJlYhBIa8YFCoRw0IeMSjkFQNDHrGJ5hEbcjXFr6Xi84f0Othrquuia6yxgpjT2EUepBl/Ncwf2k6y3fQHbVkUA4D1iCTzDwDQig9eKAYAXWwGAAQIggVBg+BBICGgEFgIMASct/sfPHjwz9m0qyX6ul/fvr+av5o6G79VFgBI6v5h/sdL8ugf5n+QxG/4s2P/LOZvC46r2HDBYWkB2hDic6lUDAWViMGgUjEcVCIGhErEgJBXDAl5xZCQV2yyG1p8fvx+7bXTNdD11NjQWEPMag5Y42fzdxl/tc0f6iCVm78LAMLRig+X+fsAQIMBgYEgQbAgcBBACCYEFQIMwcbd//q9/8MPP3yPVatW1fLrfi+S+Ef+0sy/a4qSAEDH/3m7/8PFP/qH+aP7t3v+WczfFp2kgqPSwmOFItRS4tdujhgEKhXDQHPEQFCpGAoqFYNBXjEYVCI2y7xi820p8Xmo+P3Z66XXXddR40JjTWMXueAzfp/5q/FXav7Q/0h+84d8ABDMvw0dvFhJ5g8hGBAYCBIECwIHQiAhqBBcCgAIPgRhrPufP3/+g2zc1dLAgQP7Sfm+v+umPzX/LkV1Leoch/Tf8HcuAPCN/3EOCgDa/XeW9O6fR/9q/uj+s5i/LTy+omMLjxYfl1CQqiF+3mrInn9zZa9Lc8UA0BwxBDRHDAKVioGgErFhViI24ZYQnwPE781eK3v9dU01TjT2EMuaJ2r81vzV+H3mj9qaZv4KAD7zhz4m7tH/FkabF7WZUZL5BwBo5YfL/H0AgGCAEBgIEgQMAgdBhGBSAEjs/p988smja/V1v0uWLHl7hx120PE77/u7zL9rUecYnVuU/W/4G/w9hMcqALj2//G6CgCu8f9R4t/793X/PPp3mb8WKFuEXIWHiw+LzbslxedSDbHZV0P2WlZDbPzNFZt/c8QAUKnYKCsRm29Li89HZd+nvXZ2TXStNYYQmxr3MH41/zpxd/0+80d99Zm/7f7V/BUA/kfSzR/aoqjNi9rMyHpGAIA2eGQBAA0ABIMGBwIFQYPgQSBl6v47duxYV8uv+73iiiuuEfe+f5r5n5sg/DuEv8Xj8Pg0AOD9/yzjf9/ev3b/AIAs3T8XIlfx0QJkxWbskxYrFv9dLcTnXA3Za1JNsclXQ9ZQqiU2/OaITb9SscFWKs0JNnKf+PE+8fnyddBra9dO40LjTmNajb8S80/q/NPMXwHgY0V1kHTzhzYzCubfhg9eLJf5QxoECAgEBwIFAYPgQRC5un+9+a+s+3/rrbd6sXFXS8Wv++XRv+77N0hp37+LuM3/PJL+d/wNhL/HY8+WOADYGwDx+nb/H92/AsDR4h7/10vy+J/3/mH+UN7u3xoUGyGbrRWbfRbxc1RbfP7VFJt5tcXGXg2xsVdLbG7NFZtnc8XmXE3xa1nx+7LXzK6LrrnGlsav5okaP6TG3xzz531/1OUsN/1BWxW1peQb/UPsJ+Fo5YfL/CFdYF10BAACQoMDgYKgQQApAPi6fwRoU/d/55137lfLr/vdfffdYfY8+veZ/zlFnStx47fCv0P4WzwOjz9b8gOAa///MHEDQNr4XwGgkvG/NSE2PTZYl6zB+8SPqZX4/GshNu5qi0282rKmVE2x+VVDbLDNFZt5FvFzuMTnDdlrY6+/rrPGk8au5gqbf5bO347+1fy5+1fzr3TfH9qiqM2NNjOCV6jY/AMAtIEjCwBoECAgEBwIFASNBpDt/hFstvvX8f+OW2211Rcjk36VjbtaiuDiZnGbPwzaZf7nSsnku3mk/46/xWPwWDzH2VIbAMi6/18rALAFqjWKz7VWYpOuldisayE27mqKTbAaYrNtrjQf2Ojzmr6Kzxey18Ree11njSuNY2v+CgBs/nzDH3f/zdn3T+r+tyxqC6PNi9rMyPqFCwDC0QYOFwDoAuuiIwA0KBAgCBQEDQLIjv+1+0fw2Zv/ELA7Dhw48EQ27Wqp+HW/rtG/Nf+zJW7+3Yo63yP9d/wtHoPH4jm6SOH58NwNUn4PAF5f7wHICwC+CYBrCyDvPQC2OLERsQFywaql+DVbQvz+ay025VqJDboWYvOrlthoK5XGP5t8VvHzsfi8+frY9dD117jTmLcAUFdU1tG/q/tHvQ3dfzhyHbxgaQCgAYJgQeAggBBMtvvn8T8CtWn8/8477zzMxl0NrVy5ctWBBx7YVdzdf4Mkm//5RV3gkP4b/g5/D+HxeJ4uUpoCNEjpewD4JsBK7wFQAEi6B8AHAFkhwBYoLlRtRXz+LSU23lqLTabWYpOrtthUKxWbd7XFr6fi92OvnV03jReN17wAAPNnAEjq/hkA8u79b2m0RVGbF+Uz/wAAbfRwmT8DgAYBAgIBgkBB0CCAbPfvGv8jQJvG/9tvv33HNWvWLGLzrob69et3vxS6/0rMX82+O8kHAXg8ngfP5wIAvDYDAH8KQAGgk2T7DgBMAQAAdhuAAYAhgAtYWqGyxconNt+s4ufZEOL32tJig20psVHVWmyUzRUbcnOluWFzJKv43CD73u1113XX+NNcqAQAfON/mD8DQJbx/9ZFfayoDtK87t8FAOFoA4cLAKz5QxoICAoECIIFQYMAsgDA4/+ym/9eeOGFmoz/zdf9+kb/MOkuUm7+5xdljf9CkgsEuhUfj+fqKuXbAPY+AACA3geAc2MAOEb8HwOsF/fHALNOAVyTAFu8XMXKFiyX2EybK37+DS2+FhtKbKYtLTa3WohNtVJpfLeE+LUhfl/2Oup6anxp3LsgAACgEFAtAKj1+D/N/AMAtIGDFywJABAQGiAIFgQOAgjBhKBKGv8jaGsy/sfX/f7sZz/rIcmjf5f5XyBx48fzqBgE8Pd4XDdJngLwfQAKAHwfgALAkeL+IiDXFEABwE4B0iBAQcBVuLj4sxmx2DSbI37u1iK+JhtabDIbSmx+1RSbbV5pnNdK/HoQvwd7rXTtNKY05l0QAABQCKiT+E2AvnsANgQAqC9kAYBwtIHDZf4MABoECAgEhwYLAgcBhIBCcG2Q8f9LL73UVwrmqt2/y/xh0udK3PzZ+C8yYhjA3+NxeHw3KUEAnhuvgdc6Uyq7D6CTlLYBAAEHSfzLgAABdgqQBAFJIMDFiws9G1AWtXYTTRK//9YmNpoNKTbBaopNN480zmslfj2Iz1+vkV07jTEXCDAEAAAsBCgA8BSAAcB1D0BWAPhYUR2KCgCwkR2VAgCCBgGEQEJAIbi0+9fxvwJA0/i/T58+h7N5N1f4ut8ILGD82v27Rv9J5s/Gf7ERgwD+Ho/D4/E83SQ+BcBrNki2bQA7Begk6VMA11aADwLsNMAFAlzAuNBzIWuL4vfTmsVm0prExldtsdlmlcZ2S4lfH7Lvw14zXVeNxTwQUFcUTwEsADAE+ABAIWA7yQ8AbP4BANrh4QIAa/4KAEqEPgBAgCkA8Pi/CQCGDh16Kht4c1T8ut+ekt79w6Bh/t0kbv5s+pcYuUAAj8Pj8Tzni3sK0CDlUwCcV6VTgHopfSdAVghwgYALBriAcRFjsWnVQvyabUl8LVu72MxaQmyqeaRxnFUa/5WKn0/F56XvzV5bjQmNa4UABoEkCHBtBfimAC4AsFOA7cQNAFA1AIDNPwBAGznyAIAGBwMAAgsBhkCz43+7//+FMWPGdGcTb44mTZo0VAodta/7V/OHQSeZvxr+pSQXCOBxeDye53yJ3xB4tmSfAhwv7nsBskAAbwckgUASDHARs2LDaA/i99hWxevXWsRmWanYjJOkMV5r8eva89X3b9dIYy4JBBQCFARcEJAFAHwQsL1k+xRAAICN8OAFcwGABkFS94+gQoAh2BB0PP5vAoBp06ZdyybeHPXq1evX4u7+YcAwYhiymj/MuruUzP/ioi6RkuFfRnKBwEXFx+N5ABQKAXgdQIBOAXAOSfcC2K2AzuLeCgAEHCzJEOCaBlgQSIIBLmJczILSxdeurYtNrlZic02TxnCaNOarLX4de276nux11PhIAwGFADsNqBQC0gAAygMACgEBANrp4TL/SgEAQYZgQ9AhABGM6/f/I31xzpw5d7CJVyqM/7fbbjuYKTpqGCsMVrt/GLB2/+jOYdIwa2v+l0jc+C8n6X/Xv8Nj8NiLJA4BeB1AAKBDIaBB3J8ISNoKcEGAnQTojYFpIGAnAhYGbDHjImuLWZLYNKopfq2NRbwObU1skJWITdcnjWmfFIKrJX7+tHzSNdWYVhBQGFAQAAQwCDQXAj5V1CeK2kHiUwAFAIUA1HOFgAAAG9GRBAC64FkAAIGFAEOgIeg+KfTxv0gdFyxY8BgbeaVau3btfyZPnvxqpNcmTZo0fMKECa9D48ePf2PcuHEjxo4dOxIaM2bMqOgYHR34H00aOXLk2KLGQSNGjEhV8W+bHhc9B6TPNxqKXgcapa+Lc8C5QHpuEydOHI5zjfQazv3NN9+EXoGmTJkyDJo6derL0LRp0/4FTZ8+fSj01ltvDYFmzpw5GJo1a9YgaPbs2dBAqwi0XnLoRWju3Llevf322y8EtS3xGrYHaaymiOO7pbX+XPj8eY2g+fPnD4CiGtikK6+8EqBvQaASCHABAOouAAA12AcAPAVIAwALAQEA2tHhAgDb/SsAaDCkAQCCDUGHALQAAFrtuGTJkr+zkQcFBQVtbLr//vsxEeStAQsCaRCQNAVA7QUAQBYAXFMA3gYIALARHXkAQAODAUD3/xkAEIhlAFDLXwAMCgoKaivq3bs37ley9wi4IADTAB8EuLYC8kwBXNsA9j6AvADggoBwtOKDFysLAKj5Q9r9KwAgwBBoCDoFgPX7/5G+tHTp0sGcCEFBQUEbm+6++27cG6T3CVgQcEEApgEMAXw/gGsKoPcCMAAwBGTZBlA/sBAQAKANH7xYLgDIsv+f6QbASF+aN29e1b8GOCgoKKit6c4772yQ0o2DCgKuaYAPAuz9AK6tgDxTAN4GcE0BAgC0s4MXqxoAwDcAWgDYadKkSY2cCEFBQUEbm+64444zpfRpAoAATwPyQECWrQAfAPAUwAcArm2AAABt+ODFqgUArN//j7TToEGDzuZECAoKCtrYdNttt50tpY/qKgToNMC3JcAQUCfx+wF4KyDPFMC3DeADAIYA9pRwtOIjzfyzAgB/BND5CYBIO/Xq1etAToSgoKCgjU233HJLF3H/vLdrS4AnAbtJAQJ2lgIE+D4ayFMA1GcfAPAUwAUACgEBANrBkRUAdAyUBgCJnwCQAqnusnz58qmcDEFBQUEbk2688cZzpfwLvHgaUCkE6FYA3xBY6RSgOdsA4WjFRzUAQD8BkAUA6iLtMn78+Os5GYKCgoI2JvXq1es8KXybp36Tp04DAAGYBuiWQBoE7CLu+wF8U4C8AMBTgAAA7eSoNQCUfQJAigDw05/+9Ntr1679iBMiKCgoaGPRDTfccL6U/9S3TgNcWwJ6cyBDQNL9AK4bAvNMAfhmQB8AMAQEAGgjRx4AUBK0AKA3AFoAQIAlAkCk3RcuXPgPToigoKCgjUWNjY3dJf4jX5gG2C0BhgA7CeCbAneWQo31bQVkvRfABwBJEOADgAACrfioJgAgmDIDQJ8+fU7hhAgKCgraWHTttdf2kMKPfB0sBQjQaYDdElAI4O0AfEQQUwCFAGwFKATYrYC0KYAPAPhmwAAA7fDYYAAQaY+JEydW7ZcBg4KCgtqSrr766ouiOni4lP/aJ28JZIEA3QoABKC+1klpK4A/Fpj3XgCeAmQBABcEhKMVHhsUACLtNWvWrL6cGEFBQUHtXT179rxUCj/7DQg4TMohAFsCvkmAfk9A0lZA0hSgGtsADAAMAQEA2sCxwQGgQ4cO31i4cOEgTo6goKCg9qxf/OIXl0U18OhIR0Y6QuIQoJMAvjEQEOCaAuhWgE4B7L0Ark8E8M2ALgDwbQMEAGgHR3MBwPUpgFwAEOlru++++75LliwZzQkSFBQU1F515ZVXXhHVv86SDgF6Y6B+RJBvCuStgLQpQNo2AOo6TwEYABQCAgC04SMPACgEpAFA6scAhQAg0t7777//gTNnznx2dXRwogQFBQW1N11++eVXRbXvOMkPAWlbATwF8H0vQJ5tAB8AWAgIANDGjpYAgNgXAUkhQAEAoNYmAJAC0f6/vffeu37AgAE3LVmy5E1OmKCgoKD2oksvvbRnVPNOkHQIwP0AfFNgnikAfyTQtw2QBgAKAQEA2slRDQBAsPgAwPlNgJIAAFIgXAT6AZdddtlZY8eOffrdd9+dEQHBLGjx4sWzoUWLFs2JNPedd96Zu3DhwnnQggUL3o40X4+33357ATRv3ryFRb0zd+5caNGcOXNUi6HZs2ezlljNmjVrvfjfiuLHNz1vUetfD69dPIcm4ZzM+TVJzxuK3kbpDRUPvMfie12v6P1DTdfBpeg6qZquWZJwXUm41kFBeVQWQxxjKWqKVY5hj8rygNSUKy1xcE7ivBz5Z/NrzhlnnHF5VOdOEj8EHCqljwgqBNitAN8UAADgmgK4bgas1X0AAQDawFFLAABhMgA0/RaAFIIToyoFAARwDACkEPig4MOlkBTHRDpeCklzcqSfRTotUkOksyOdE6lbpAsi9Yh0SSTcaHNlpF9EuibSryJdF+nXka6P9JtIvSLdFOm3kW6OdEukW4u6rajfOaT/pn+Lx+HxeB48H4TnxmvcIIXXw+s2RrpWCufyy0hXR0I3gHPEuWJvEMUB5473cHGkiyJdGKm7FN7f+VJ4r+dFOlcK771rpC5SuBZnFXWmFK4PdEak04v6eVG4fqpTjU4h4Vr79NOgjU4cA1YcOzauII03jUFI4xIxCjUUhfjVWEZcQ4hxxDqEuEf8Iw8g5ARyA0KeIF8g5A5qAoRcgpBXKuRZmvRv9fF4LjyvzUubkzYf8T7wvjTncF1wHVHHfBCAuqcQYLcCvielGwJRN+0UwLcNoFOAHSX+aQALAKjlqOkQajxPAQIAtKMjKwAoBKQBAIIIAICg8gHAzlIOAAhaBQCMtRDY35cC7SLoD5FyAECSMAAgsVAgkHBIvqwAAFOGOd+4+eab/3bLLbeEgav5s/Hf7pAPBhgEbpRyEFAIwHkABAABODeAAM4Te4M4Z4UAfFxIC48WHVfByQMCeWDABQRZ4SCofYpjIIvh5zF9Nn7Esxq/mr4av8v01ZjLDH+HHXYAXKMuIKcg5JcK+ZYk/Tt9rIVzzkuciwUBzcUGKbxnCwE/lnIIQJ07SkofEUQNPEiyTQFQU/eQ7NsAqNV57gNQCFBfCADQhg8XACgE5AEABEweAEBgAgBAqwoACGIXABwshf0wCwAnSiFpkDy5AGCzzTa79owzznj46aeffnXUqFHTZ86c+c5777334Zo1a/67du3a/77//vurZs2atXj06NGznnrqqdFnnnnmUx06dLgzeuwdHjEQpIGAQsD1UgABhQCAiUJATylBAAqWFh0tOK5ikzQN0OKjhbWhKB8IMAy4gCANCoI2DnFMsOH7TD/N+DVu1fSTjB85YI2/x8477/yLm2+++U+vvPLKG1OnTn1rwYIFi1asWLEGe++rV6/+95IlS96fMWPGnKgGTHjsscf6H3LIIchV5JsK+aey/x35qBM6C+iu3NS81JzEe3FBwE+kHAKOlUKtQ807Qsq3Ag6Q8ikAaiaaJwWAvSQ+BUDdxRTgixL/amAFAEwBqgkADAHhaIUHU5oFAIWAvACAQFIAAGUi2BB0CD4EoQIACBWBioD9upQDAIIbQW4BADR8tBSSwwIACg6SiQEASYiEbAKAn//85/cMHTp09AcffLCSb8ZJ07Jly9YOGTJkakNDw9PRcwEGWAwDCgI+COglBRBQCGiUbFsC3HVkgQALArhGCgINRWkRzgoCPhgIUND+xWttxTFSqfGr+XPHr+bvNf6tt976kt69e/eNDH96BPT/x3mcpggSlkSNwdB99tkHuYr8c0kndBbQkyBdcxPn7YIAXDtMVBQCUNuOl9JWAOpe0hQA2wCYAuwt6dsACgBoyhQAsA2gAID6HQBgIzqaAwCQBQAEjgUABJYLAOqkBAB7SAkAEMAIZIy1FAAQ7Ah6EDBIWAEAlPwjKSQNEgiJhAKC5EKRQMI1AUCnTp1uHjNmzCRO9ko1duzYeUcffXTf6Ll/b8QwkAYCrQUCoIaiGAKaCwIusaG0NvH5Vlv8eq1VfN5J4pjIYvw+80d8qvlr3FrjZ/NvMv5NN930ot/+9rePRV39e5yvlWjVqlX/fu6554bV1dUhR5GL0DVFXW1kgcA1rUN+AgR0GuCCAFwjXEdAwMlSqGuob8dJaSvATgHQFGEK8AMp1EnUS7sNAAD4ipRvA9RJ9vsAAgBsREcWAFAIUACwEKBTAAUATAEQSCBKBgAEngLALlL6JAAAAKMrBQAQLcgWAY5Ar5cSACAZQMYgZAUAFCwkURkAfO5zn7ss6vhfW7t2be5OIE0fffTRuiFDhkzfaaedHoxe666iGAYUBHwQcJO47wtwQYCvwNhOY0NBQCUgENQ+xHFQS/NHTMfM/7TTTrt17ty5b3OOVkPLly9fc8899zwvhZzUvNTcVChgEFBQR57aHHVBAN47rgeuG+oYJpq+KcBhUpgC1Evpa4LTtgEUAHYW928DuAAANTwvAFgICADQho68AMBTAAUABIsLADBiAmki4BB4CEAEogIAxlSgVQQtghdB7AIABP7hUtgTUwDAfhmIGeSMYtMghQJyzkEHHfTLBdHBCV1tRS+x/OCDD+4Tvebd4gaBPBBwvcQhwBYYhQC776hTgKwQoAAAVQIAPghgYwjaOMRxkAUAGoqy5q8AkMv8b7vttj9iP5/zstp67bXXJm2//fbI0UYp3LMDaY66QIBhnSEA7wvvEe+5QQrXB9dOtwJ0CoBpJ6YAqHuof4dKfBsAAICaidqp2wAKAKivu0oAgHB4jloAAIIIAKD3AbgAAAGJwESAIlAxtgIAYIyl9wEguBHkP5TkGwGRNEgeFJezLrvssttWrFiRe5+/UkWv9b89evRAlwAIYBBwTQMYAm6UOARogdHi4uow7BQg61YACqxCgBbePADAxZ4NwSUdKwe1PfFausQxUQkAIB4tACBeGQDWm//mm2/eY8CAAS36+yEzZsxYuPfeeyOPkZ9Qo5Ty1Obq1VKeqwwBeA94P3hveL94/7guuF645nYKgDqHhucoKX05EGohaiJq4w8k/s2ADAC7STkAfFHKPwmgAICabQEACgCwERxZAUAhwAcACBgFANCkAoDrPgAFgN0lfiMgAhn7WnwfAIK/k5TfB4BEQcKgEJ3es2fP29asWfMfTt5aC1sCEXgMiM6ht5SDgGsawJMATAEUAm6QAgQ0SqG4aIeBopJ1CpAEAAoBWQGgEvNnEwlqX+L1zgoBeQFAzZ8B4MKXX355OOdgS2jx4sXL99hjD+Sw5qmCAAQIQL4qBGi+KgQA1hXU8T7wvvA+8b5xHXCNcO3Q0GCyiQnn8VKodah5qH2HS2kb4ABx3weAOoqG6iuSfCOgAgBqNAMAmrkAABvJ4QIAHwQwAEAWABA4FgD4PgAFgDrx/CaAlAMAAlwB4FApvw8AALD+PoCjjz76ig8//HAVJ21LKXrtf3fq1OmvUoAABQGeBgACMAWwEIApACAAAPAbid8PoJ2Fb7yohcVuA/gAAAXWAoAW4QbJbv5c/NkgrFDMgtq2eE1ZHA8uEEiCgDQAKOv+H3300ac491pSU6ZMeXvrrbdGzmquWhBgaOdJAHLVtRWAa2CnAHYbAFMAuw2gAIC6uJ+UAACTUwAAJqktDQDqFRYArK8EAGjFRyUA4JoCKAAggAAACCgFANc2AIISwYkgRbACABC82MtKuw8ACQE6BiWfvPPOO5+5aNGi+ZysLa3oHD7cddddH5E4BPAUQCFApwAoKElTAO0qfNsAeQBAzV8BoEH85u8zfjYBNg2fMK1p7eJzrpb4dVq7+PxZHAMMA1kgQAFUISARAC6//PLetbipN69eeumlcRL/ci8FARcE6NROJ3auKUCDFK4Prh2uv90GUABAA3SolO4DAAB8X+I3AioAoLlKAgDU5QAAG/nBC5UGADwFUACoxn0Aug2AYPbdB4BRWNl9AOPHj3+Vk3RDacyYMfOjc7pHskGAbwrgKyY9JR0AUFiyAECS+aeZPpsBm4dL6GraivjcmyN+7rYkfi9WHAN5QIAhQAHABwHnf+1rX7tqxYoVG2zCx/r1r3/9dylBQBZwd00BkKN4j3jPuA64NrhWuJ52GwATT0w+LQCgJqI2ugAAzZQCwO4SACAcCQcvVBIAKAT4AMC1DYAA820DAAAQoAjUvaSC7wPo3r37VR999NF/OUE3pM4999znJRkCXFMAAAAKinYUCgDXSnYAQFGxAJDH/G3Xn2b6WQ0ORSyobYvXNAkQkmAgKwS4AKDb4MGDh3KebUgtXrx4xbbbbov81bxNggDNW81Z5CtgHXmK94f3i/eP68EAgG0A1DoAAJofNEFohgIAhKNqhwsAGAJcAGAhwAKAaxsAAbej+L8PAAGbdRsAyQAqPn7OnDkTOTmzaM2aNetGjBix7qGHHlp33XXX4ac511188cXrrr322nX3338/PvqDLwSJPS6LZs2atXTTTTe9T0oQwACgUwAUEEwBAACYAlQCABgpakFRALDdf1bzt10/m77P8NksIIwug9qneK0ZEJJggKcBOnFKg4DzDj300F9VenPve++9h5H9uttvv33d1Vdfva5Hjx7rrrjiinU33HDDun79+q2bPn167DFZFdWJoRL/hk/N3UYpz91fSGkKgJwFsLu2AXBtcL1wPX8kJQBA05MEAKiXFgDQUFUKAKjjAQA2oiMLACgEKAAoBPAUQAFAtwEAAAgyBJsCgN0GAAB8WfJ9HBCJcMwtt9zSyEmZRSNHjlx3zTXXrDvnnHMSdeWVV64bNmxY7PFZFIHEYHFPAdIAwBYRBgAUEQUAFBIFABQTHv/b7t9l/q6u32X8PsNnc0CxcgldTFDbFK+lFa9/EhC4QICnAQ0Sh4CmKcCYMWNGcX6laeXKleuefPLJdRdccEEsr1l33nnnurlz58aeI034ivCddtoJOW0hAAB/vZRv4ekU4EopgLtO7XQbwAIArkdeAPiuVAYAnxE/AKCWpwGA+gKbfwCANnbwYiUBAE8BGAAQPAoAebYBAAC5tgFmzJgxkpMySfi4HooCF4A0Pfroo00TA36+JE2dOnVJdI73insKoACAbQAAALYBsgIAiogCgGv8r92/mj8Kqc/8XcZvO32X4SeZ+4lB7V685j4osECQBgI+COi62267XZz3e/0XLVqEPfpYHiepe/fuTRNBfq40RfAwSOJf7IX8BQQ0Sil/dXoHALhUSgAAYAesI0/x3nEtcG1wvXAdcc2Pk9JPBGcFAExUswDApyQAwEZ/8GLZhbQQ4AIAhQALAJgCWABAkCkA6BRAAQDBiSkAghVBm2kbYJdddjkhKgwfcUImCSM/TvysevDBB2PPl6a99trrj+IGAHsfAAMAOggLALaDUADQImLH/9r9w/xRUNT8UUjTzJ+7fZfh+4weHQrr+KB2KV5nHxgwENjJgAWBNAjo0rt374c5r5IUdeWZpnsunXvuuevGjRsXe84kjR8/fo7EP82jOdwohRy2AA9419zV+wBaAwCgVm8v6QCA2h8AoJ0dvFg+AFAI0CDwTQHybgPsKjk/DRAZ8g2cjEnCnj4nfF4NGDAg9rxJuummm16WbADAxeN6cQMAOgjb/aOIaPfPo3+f+WcxfjZ9NntrCihOLIwsg9qXeI0hFxwwEFgYSAMBhoCzJ06cOJbzKkkY53Pe5tFFF13UNEHg5/Vp9erV//eFL3wBea0Qb6cAnMMKAMjfvABwjPgBADXSBwBorvIAwHaSDgDaCPoAgP0ECkcrP6oJAJVuAyBgM20DTJ48+SVORp+wH4gbfzjZ8+rCCy9c9/7778ee36dRo0bNEzcA3CHxewBQOCwANIp7/I/uXwHgIil1/zB/Hf27zD+p67fGb02fDd9n8J1JKFZB7Uu8xhwDDAUWCCwMWBBwQQDitAkCPv3pT5+7ahU++RfPLZfGjBkTy9lKhJuA+bmT1LNnz39I+ad5AAA2j/k+AM3fHlK6ERATu7Ok8N4rAYBvS/x7ANBUWQBA04XmC01YtQBA/SEAQBs/eMF8EKCLbwHAtw0ACEBg6RRAAcBOAeqkgi8Fevfdd2dyIvo0aNCgWJJXqmeffTb2/D699957qyUfAGjnkAYAl0q8+7ejf5g/ikmDlJt/mvGz6bPhuwweo0mro4LarXitXYDgAgKGAR8IlEHA6aeffi3nVJJ69eoVy9dKtXDhwtjz+9S3b98R4p/kNUohj5sLALjenaQyANhZkn8MCPUZdRr12gLA1kWhtqPWVwIA4WhDRxYAyDoFUAAAVSLAdApQlW2AqKtfxono0x133BFL8EqFm4v4+X1au3btf7fYYov7xP0pgN9J6XsA0kaHKBw8/ufuP8n8uev3GT+bPhu+y+TRlahQoJJ0RCsXn28txK/Z2sTny7Lr7YIDFxDwZMAFAnYa0AQBUa79jnPKJ3zcD3v4nK+VCh8d5NfwafDgwZPFfS8Pg7wCACC+FgCAepkVAFCHUY/TAAB1vYNUvv8fjjZ05AEAngIwAOgUwG4D2CkAbwPsIv7fBiibAnziE584NM+X/2BfjxO8Ocrz/QBf+cpXHpXk/f+0ouHr/tn8z5HSHf8NEjd/2/X7jJ9N3xq+y+StcRzuEQpWUNsUr6XKBwwWDCwQuGDAgoCdBigEnPrwww8/xPnk06hRo2J52hzl2QYYN27cXInnci+J53IWAHDdA4Dr5gKA/aSwPWoBAI0TAGBPSf45YAUA1GUAAOq0AgDqN+p4AICN7LALlwQBCAAIwYDAcEGAAgCCCgCAIFMA8E0BQKsIWtArghg0i7FW2RTgpJNO+jEnoU8wa07u5irPTUKdO3d+QvKN/38tyd0/zB+Fo7uURv/nSDbzt12/y/jV9LWrs4bPRm+N4lDSIUHtTrzGLlBgKPDBAIOAnQbolsAp/fv3f5LzyachQ4bE8rQ5uummm2Kv4dOcOXPek/JpngLADVLI56wAcKaUAwCuCa6PBQBc+4Mk/mNAaJQUANBAAQB2lxIA8A2APgDQ7j8AwEZ6ZAEAhQANCBcA6BQAQYXgQpAh2HQbgKcACFIEK4IWwYsgRjAjqBHcCHIE+35dunQ5hZPQp+XLl8eSu7maP39+7HV8Ovnkk5+W+LcAovu3BcMFAK7uH0XjIol3/ygeZ0uhgLjMX0f+tuv3GT+bvjV7l8GjG1GhMPlU30bE510t1bch8blbHWzkAgQLBT4YYBBwTQN+OnDgwOc4n3x68cUXY3naHF1//fWx1/Bp4cKFy8QNANeLewIAkLcAgBzuIuUAABCyAIBrh+uZBACYmCoA7CElAKiTOACgEVMAQINWLQDYhBSONnbwAurC6kIrBCAIFAKSAABTgDzbALtJ+XcCIKgxBVi/DfDVr371cE7CJJ1//vmxBG+OABX8Gj595zvf+ZPEu38AgHb/WjB+I+6bhrT719G/7f6TzN/u97u6fp/xW9Nnw0fRt2ZQb4SRpBUKVFD7EK9tvZHGAmIDskDgggEXCOg0oAwC+vXr9wjnk0/Dhw+P5WlzdNddd8Vew6fJkycvkPQtAM1nBQDkMkBe89gCAMDdAgCukQWAeincEI0tUdRE1EbUSNRK1EzUTtRQ1FLU1DpxAwBqsQUA1Oo0ANC67zJ/KJh/Gz98AABZAFAISJoCKADYKQCCTqcArm0AEOuXJeVmwNWrV2f+ZbC83wqWpMsuuyz2/En6+Mc/fq/k7/4x/rfdv3YM2v2jaJwnpdE/CkeS+XPXn8X42fDri2KDRyGywo1JPqFjac3i8622+PVao/icrew6uwChvigGAoUBHwjoNKBsS+DOO++8jfPJp1mzZsVytTnCN4bya/j0yiuvTJM4ALiA3uazCwAapJDDCgC4DrgmuD64Xrh+uJ714gaAb4gbAFBbUWO/IKX9fwUA1GQAAGq0AgBqN6TmD2Xp/gMAtJPDBwEuAMgyBVAA0CkAACBpCrC7uG8GXL8NsGzZsnmciD499dRTsQSvVI888kjs+X1avnz5R5L9B4C4WLi6fxSMC6T8Z0TPkkLhQOdwmpSP/dX8ueu3xp9m+i6zdxkaihELsBbUtsVrCrmAgcFAgcAFAwwCOg0o2xK49NJLr+acShJ+u4PztVJNmTIl9vw+PfPMM2Mk+fs8APQKADafMclDLgPkz5YSAPxMCvmrAIBrYwEA1xbXHOuDpgjNEZokAACaJgAAmigAwM7iBgDUYAUA1GYFgKTuPwDARnL4AMAHARYALAQoAOgUAACgUwAAgGsKAABA4CKAEcgIaAS2bgM0TQHefvvt4ZyIPi1YsGBdt27dYkleifL8etiMGTOWSLn5o/u3nYKr+/+luLt/3+i/QdLNH4UV5q9dv+342fjrpWT61vDZ6K1JAMpU6Eh8wtq1ZvH5Vlv8eq1RfM5Wdp1dkMBA4IMBFwjYaUDTlsB+++13FudUkp577rlYvlYi/CLo2rVrY8/v0x133DFY4l8EZHMaAICcvkpKAIBpngWAs6QwxUMeAwCwDYL8xbUAAOAaAdRx/XwAgGkp6uWeUtknAFCrkwBAGz4fALBvhKONHryQFgJ8AGAhgKcAvA2gUwAEIgLy85LzZsDBgwffwYmYpL/85S+xRM+re++9N/a8SYpec6SUmz+6fy4U2iloobDd/+VS/vvh6P7Pk1LHcKaUikaS+aOAoLhy159k/Gr61vDZ5K1xYF1YALagti1eU8gFCxYKGAgUBhgEAAGIQ8SjnQYAApq2BBYuXJj5C7/wjZ/VmALk/T2A/fff/yGJ7/8rAGCip1CvOa1Ar/kMmFcAOFVKHwHEJATXAddEAQDXDtcS1xbXHOuBuogpKeok6iWmp6ifqKN14t7/VwDQ/f+8AMDmzwAQjjZ++ABAIcACgEKADwB0CmC3AT4lydsAmAIgkDEF+JrQzYCnnXbaiZyISUJxwG+Ac7JnFX5L/IMPPog9b5JOOOGEvlJu/uj+Yf5aKNT8GyVeKK6Q+G+Ha7fQRUoFAyNDLRo+80d3heKKbgtFBIXXZfw+07eG7zJ4dCAqFCOfsH6tWXy+tRC/ZmsTn6/KrjHEgMBQoECQBgI8DVAIQNwe++KLL/6Z8ypJGN03Z9rXt2/f2HMmad68eUulBPW+vFaov1LiOY1pHvIZMI9JHnL5J5L8CQBcR1xXXGesAdYH9RF10gIA6miduAEA9dcCAOqzAgBqN4RaHgBgIz3SAIAhQAHABQG+bQBQqE4B7DbAzhK/GfAbQjcDLl269C1OyCTh28IaGxtjSZ+mnj17Nm0j8PMlKXqtlZJs/rZLsGPCX0j8xj+MCs+X0ugf5t8g5Tf9JZk/d/3W+Lnbt6ZvDd8avcvMsDYqFKOg9iO7tpALGCwYWCjwwYAFAcAo4hLxCaNDvCJujznjjDPO59xK0/DhwyuCgAceeCDX6B/q16/fG5I9rwH1l0ppoqdAf7aU8vkUSd7/r5cSAOD64npjHVAfUSfRMKFuooFCHfWN/1F/UYe1+0d9Tur+FQC05jMABPNvh4cPAnTxFQKyTgEQaHYKgED0TQEAAKBY0CyoVqcAKDYoLt8bNmzY3ZyQafrwww+bvuWLk98nfI1wnh8AUj3xxBOjpGD8bP43ibtIJI3+Yf7nSXzfX81fO4Yk80f3oOZvR/1Jxq+mbw3fZfIoPiqMIVlYu7YkPv9qiF+jNYvPXWXX2QUIDAQKAz4Q0IlAvcSnAeshYMmSJbM5v9I0derUzD8L3L1793X9+/ePPUeaPvroo3VHHXXUo1LKa1f3j6mezWtAPbr/7lIAAAV63cpDPv9Yqrv/r92/BQDUXwsA20oyAITufyM9XABgISDLFACBhQBzTQEAAK4pwC6ScjPgrrvuWr9ixYolnJhZNG3atKY9ffzCHxeECy64oOlzwBMmTIg9Lotw939dXd09Urrhj83fVSSyjv7PlPJ9f5i/Fowk80fxqJfyrp+NP8n02exdxoY1sgK4BbVt8Zq6QIGhwMKAgkBTzko5CNitAcQlIABxWgYBd9999/WcY1m0Zs2apm8IxLf6uX4nAPcLYOSPySA/NouGDh36psTN3wX2dqqHvL5QSvv/mtMK9NjKA8yfIKX9f0xFcE1wfQBMuG64hshXXGNcc6wD1gsNExonAECd5B//JwGA1voAABvRYRfWQoAPAJKmAAoACDoAgE4BFADsFGBnyXAz4PPPP38TJ2YeoUjMnTt33aRJk5oMf/bs2bm+69+lhx56aJgUjB/i8aDP/NNG/ygUZ0lp3x/mj2IB88e4UAtGkvlz1287fmv81vSt4bPRW6MApKmwXi6hOLVm8fnWQvyarUl8rlZ2fV2AYKEgDQYsCNhpgN0SKIOA+fPnT+I8yyNM8WbMmNF0gx/uE8i7pcdavXr1f/bdd9/7pGT+dqrXKG6wv1TK8xpQf7aUj/8B9Dr+7yyl/X9MR+olvv+Pa4vrjGuPtcE67ibl+/86/rcAgPoLAEA9tgDA5g+lAQB7RDja2eECAIYAHRElAYBOAQAAug2gUwDXNgCCGMGMoEZwI8jtFOC722yzzf5RcuceEdZK2Pvffvvtb5fyrt9l/jz6h/ljRKhFAl0CisR5Uj76R6HQTkH3CmH+x0m6+eteP7ovO+r3GT+bPpu9y9S+7BAgrq2J30NzxM/dFsTvAXLBAkOBDwYsCNitAZ4G6JZAGQT07Nnz0jw/AFZrPfvssyMlbv6a2zB/5LYL7HuI++5/Hf8jpzHN03w+UgrXANfDNf7HNcU1xnXHOmCdUDPRQGGS2tL7/wEA2unhgoC8UwAFADsFQDDaKYDdBkAQYwqAoEaxQZDrFADBjyT4fmNjY5eok/+Ik7SlFZ3Df88555x+4jZ+WyDY/G2HgBGhFoluUv6RP4wJbaHQUSGKhXYLSeZvu34d9ycZv5q+NXw2emsaKDwsrF9Q2xSvJeQCBAsFFggUBlwgwNMAmBri0wsBw4cPz/zjQLXU3Llz391xxx1/J/Hc/rUk57YF+3PFPf7HRE+neUdL+sf/cD1xfXG9cf2xNlg71E4e/ysAoPGyAKDdvw8AUNcZANQDGADC0U4PFwAwBGig+ABApwAKADoFQFAmTQEQ1CgwCHIUFBQS7SRQPH7w9NNPV7RPWE317t37JSmYvhq/LRAoDo3iLxC2Q+gu5d/2hyLB+/4wf+0UYP5aLNLMn7v+NONX02fDV0OwhoG1skIRCmrb4jV1AYKFAoYBHwjYbQHEo90ScELAFltscdTMmTNHcN61pJYtW7Zmv/32u1cKeW3Nv1FKue3b1nOBfYO47/5XoD9C3ON/BQBcS1xbXGdcd6wD1qlO4gCAGpu2/6/mzwBgzd8CwCakcLTTwy6yLj6UBgAWAhQAdAqAINQpAILTNQVAMKPIoLigoKCYoIiUTQEi7T969OjHOWFbSi+99NJYKRUFLQxaHH4t5aNBn/mjQ4D5a4fQVco/8ocioV2CLRQw/yMlm/kDmnR0iGvoMn4Ub2v8LsPHukBqFHUkrF1Q+1AdSddcY8ACAcOADwR4GmC3BHwQcMRee+110rvvvpv5a8CrKUz4zj333L+IO7evE7f5u7b1krp/Hv8fJu7xP/LYN/7HmmDdePyvAICai9qLGqwA4Ov+AwCEo+nghdYAsAAAKQBYCEiaAiAYdQqAIOUpAAoNiguKCooJCokWEBAwCgeKxn5bbrnlD8eNG/cEJ26tNXTo0PFbb711LykVBS0MtjjA/FEcksxfC8R54v7IH4qEdgl2TIhCgU4hi/nryF+7flfHb7t9NX0t9lr864pSk8BaWaH4BLUP8doyGGhMaIxYGPCBAE8DAAG6JeCDAJjhEccdd9wZS5YsmcV5WEutXLnyf3v27Pmk+HP7V1Ju/shvNX+7rYfcdnX/OtXTvNbuHzl9kMTH/7hePP7Htca1x1q4AKCS8b8FADZ/BoBwtPPDLrYNAgsBrimACwBAnnYbQKcAAACdAqDY1ElpCoBCYqcAKBxaNJqmAJF++Mwzz9wS0fq/OYmrrbVr1/73wQcffFEKhYCFwuAqDknmzwXiTEne99cuAYVCO4V6STZ/Hflr12+Nnzt+NX4UlLqi2PDVJABsVli/oPYhXlsGAwsEiBUoDQR4GoBc1m09HwQcIkUI2HnnnU+cPn36a5yTtdC777674oQTTnhAknP7Gik3/yzbesjtU8Xf/R8u7vG/5jKuWzXH/y4A0HoeACAcZYsNuQBAISBtCqDbADoFQHDqFIC3AVBQUExQROwUAGZWNgWQQrE46De/+c1FH3744VJO5mpp+fLlqy+55JI/S6EIuITCYIsDjN9VHKz5o0DA/LVAnCEl83ft+2uXgKKohSLN/HXkr11/FuO3ps+Gb40CxcYK6xjUtsVr6gIDCwQMAz4Q4GkAzEzz2QcBB0kJAjptuummR7/88sv9IhD/P87PamnatGlzv/71r98iyblt8xtjf1d+28neWZLc/WOq10n843/dwqvl+N8CgNZ1BoBg/hvh4QIAhQALAAoBPgBA4CkAuKYAKDYoLigqdRKfAoB8vVOASAfvuuuunYcMGfLHVatWrebErlTRc/372Wef/VfHjh2vl1LyoxCwtCPQwgDjR3G4XOLFgc0fBQLmbwuEdgi67w/z1yKBoojimMf8bdefZPxs+mz21iywbiwUn6C2KV5LyAUGFggYBurEDQI6DbAQgPhMggDktUIAumPE/9ENDQ3d3nrrrTc4V5ujRYsWLb3hhhv6RZChucy5nTe/XZO9UyV797+flN/9r1M8hXhcU1xfXGsFAM1PrKVr/A8ASOr+LQCo+QcA2MgPu+gWAjQ4eAqgNMkQAADQKQAAoNpTgHopFor999//pyNGjPjbypUrV3CiZ9WKFSvWDB069I199923lxSSHUmP5IdQCKz0v9vCgK4AxeFSKewJZjV/LRDY94f52w5BiwSKonYJSeav+/1q/tr1Jxk/iroaP5u+y+QBcC5hXduC+LyrKX6t1io+b5ULDhgIFAQUBlwgYKcBiEPEYxYIgBEqBBwqhfiHWSIfjv1FdMyePXv82rVr/8P5m1XvvPPOu/fee++zW2+9NfLY5rhLvvxm80+a7J0s2bv/70r5zX/IZ1w7wJR2/3USxv/hqPGRBwAUAhgAeAoAAECAagFC4CKAEch2CqDdQ6YpgBTHhZGO6tChw3GNjY2/fOONN55///333+XkZ33wwQfLhw0b9toVV1xx37bbbqvJjf+LZEfSQygALum/a2HQrgDm30NKd/trZ6Dm3yD+L/vRAqEdAoqgmj+KY1bz15G/7frrJG78ttu3pu8ye2sgKDZB7UdJgGCBwMKADwQUAhB3CgGaz2kQALhXCEBuI/6PkEI+oHNGfpzwta99reGRRx65Z+rUqaNXrVqV+P0g+HKhuXPnzvvrX//a/5hjjvmtFPL0cknPcVd+K9wjv635nytuuP+JpHf/aGZs94/xP66NTvIU5HE9cW21+8f1x1pgbTQnUWPD+D8czT5cAMAQoPSYBgAIRACAnQJoYUEAJ00BtGDwFEC7hXopjQvXdwpSMNMfdezY8fTjjz/+ksjgb7jrrrvuiXT/5Zdffmvnzp1/udNOO4HgkbxIYiQzkhrJDRNHomuh0GJhpf9di4Iav3YFlZq/FggUPRQ/FEE1fxQJwI/P/DExUfNH4VXzxzWtE7f5q/Frt2dN32X2ADgW1jSobYrXEnJBgYUBjRUGAdc0APGHOGQIULC3EPBdKX1joOa2Aj7yAVtiyA8YaVN+Rzp5k002OWWfffY577TTTrvmuuuu+91999330I033nhP165db9p///2vjsBe8xH/F/mZJcdtftscx+MV7q35d5Xk/D5e4tt6mtuu7h/jf81pzWdcyzqJd/8KAJqLqLV5x/8BAMJRdtjFtxBgASDrFACB6JoCaDFpzhQA9HyQlDoFWyROlEKRAIWDxjGSw77cmVLYp0PSInkVAlxFQguFS/rvavyuwmDNXzsDFAceDWp3gPPH+9ACUS/l5q9FAkUzzfxxHVGE04wf66DGz6bvM3rAnE9Y59YqPtdaiF+zNYnP1cqubxIQZAWBOinfEmAIsJOAb0vpy4IUAuw23/opnxSMlPMb+YS8Qn43SCHfkHfIP0C4zXHkaZYc13/D32l+a9fvg3u8viu/AfdoTgD3tvvX3E7r/jWfufvH9cd6aK5q/KHmovlKAgBt4FzmHwAgHIkAoBBQyRRAiwoCVwtI3ikACoXdM4RZcpE4XgpF4seSDAGuIqETASS+CoVApf9Ni4IavxYG7QrwGnitNPPn7kALhI4H1fxtkajE/H0dv8v0XWbPhgIB7oLapngt04DABwI+CLBbAohLC/aa13tL+ZcFKQRYwM8DAcgz5BuDPvIS+ZmW4/b/x7/bHMfjXXDfIOUf58X54LxwfjhPC/doVvCe8nb/ms8K8bjmuP6au5qrWFcFAJf5WwDQRo4BwNb+AAAb6cFBwBCgwWMBwAUBCgBacLSgVDoFQKHAFADUzJ0C6BpFArQN6gYEnCQFCMBIzkJAg5Q6BVskkOC2UGixsNL/rqaPx6jxc2Gw5q9jQVscXOaPAoH3ZQuEmj+uAa4FiieKqMv866Rk/r6u32X8bPpJRo81DWof4rV1QUElIFApBCC3AfgMATa/kTfIb4UA5JUPApCPyEsLApXmOJ5H4d5n/qg3OC+cH+c3mpV6Kb+nB+95Hynv/nF9bPdfJ/Hxv+aw7f6xfqi524gbAFCr8wBAODbiIw8A1HIKABrWQoFEAS3bTgE0jSIBukaROFLcEMCTgAbxFwkkvMKAS/rvbPx4Ljxng5QKA17Tmv8JEjd/nDebPwoEmz+ugcv8cb2s+fPIn41fzZ+N32X6bBhYT5ew1q1ZfL61EL9maxKfqxWvMcOABQGFAQWBakOAAr5CAOd3EgT4QL/SHLf5DeNXuEeO82TPZf44T1d+62QP7zVr92/H/2ndP9bbBwCo2QoAbP4BAMKx/rCBYAPEQoAGkwUACwFaeLSoaBHR4pE0BUCxsIXiG1K+Z6hFwm4FoEgcIXTnsJRDgO0UXEUCiY6E12Lhkv67FgU8Fs/RIPHCgKKE18Y5pJm/jgZtd5Bm/rhOPvP3df0+42fTZ6NgU9FC05bE518N8Wu0ZvG5q3xA4IIB10SAQSAJAgD3PgiAIVoI0Pz2QQDyyQcBOg1okMpyHH9ncxzG3yCFupFk/qg7OD/UIZwvzpvzW+Geu380Pbg+Nq+Tun+sheYu1kvjkc0fUgBA7XYBgK35AQDC4YQACwAKAQgsCwEKAFpwUFS0iOSZAsDgdArwNfFvBaBI1Iv7zmEkI5KSIcBVJJDgtlD4hH9X09eioMavXb8tDFnN344G8f4qNX8UijTzz2L8aSaHNQ5qm+K11FxlIHCBAGLHgkAaBNi8thCA3LYQACOEIVoI0Py2kO+CAB/o6zSgFjkO2AB0AD6s+aPuwPxRh3C+OG/Ob4V7vGfUNdQ3m9uof7hemte2+8d1tt0/1kTz1gcAav5ZASAc4XACgEKABpFrCuACAC0itnBkmQJoodAiATO0RQKjNBQJjNbqpXTTkAsCuFOwRQKJzYXCSguBFgMIf6vdAJ7Ddv2+woBzymL+eH94ny7z5w4hyfzZ+G3RsMafZvpsIFpggtqmeC0ZCnwwwCCguaz5XAkE7CXujwdmgQDkk4WASnPc5ndSjlu49+X4keL/RI/Nbwv3uAbN7f6xRi7zdwEAm38AgHDEDhsQDAAMAQoASRBgC4edAqBgJE0BYHpfkfKtABQJUDRGaYAAjNZcEIBkVAjgTsEWCSQ2FworLQQqa/paFNT4bdfvMn+cWxbzt92Br0D4zF8LRVLX7zJ+n+GzgWiBCWqb4rVkKHDBAIOAxpJrGuCCAJhZJRCgkK8QgLxhCNAcV9C304AsOc75nSfHUVcAIUeL2/xRl3D+eB+oVza/Ge5R76z5I7dd3T+udZ7uXwEgS/cfACAc6w8XBLgAoJpTAIYAV5EAPWOEphAAA02CACSnq1NQEHAViiTZgqDdgBYF7Qh8haEa5o9rU4n5q/HbouEyfjYHNhAtLkFtU7yWDAUuGLAgoLnsmgZkhQDkdnMgoJo5rkZfrRy35o+6pOaPeoW6xfm9h/hH/1m7f6yNzV0LALb7TwOAcIRj/eECAB8EVGsKoIWiTtydAqh5b0n++FC9lN8T0EnKOwVbJJDQrkLhE/7dFgQ8VouC7QjwWnhNvDa6FWv+Whg2hPlrJ5dm/FnMXruLtiI+/2qIX6M1i8/dKg0GLAhoDNlpgAsCEI8tCQHVynHN86Qcx2twjmMyweaPHLfmj7qVlN91Uj761+5f89rmtDX/0P2HoyaHCwJ8AKBFxgcAtmBosXAVCp4CgI73EPedw0gqFAgYqQsCkJRITiSp7RS0SIDktUjYQuET/p0LgnYDWhRsR5BUGPKYv+0OuEDkMX+shS0Y1viTTJ/NxEo7jNYqPt9aiF+zNYnPlcVr7YIBCwIaQ5zTLgjIMgnYXbJBQJ4ctyCA/HTBgE95cjzN/HHO+0r6Tb2u7p9zW/PaldNYF5vHmrMaA1kAIBzhiB0uAGAIsIXGFhEfBNhiwYUCpuYrEj4ISCoQB0l5p4CEBbW7ioQWCi0W/79dc8mZG8nBoM4xq5rFYDC3MND3v9OAcBP+OkxmMlNSvUwC3LhKj19iBJlZjtI/VyH4ip9SsGvate0ebNVCMZxp/pEgtPnbM85EweafNX42CjaWzs9PvuNoEHjWEGB87w4BI8Y58K8ybqmM27ntGnYtu2bGOFf+1ebvw709s93VfzQAsPn3ANAxjcoAEA0BOgBYRrJQUVgTq/4UwCHABWGwGXTRdqFJwlcKmSRcFC6LKP1zCsEbv0tBVwR2D3Yvdk/6e+Cdzd+e8aj562qB0pg1fX/nnZ+bfKfObjQMRIOA11LE9coQ8Dj2h4CMcePPGTcuyfkq45Yjxr35R4xXmr/57XH8vrNnz8z4dra9+SvX0TAfNX/LHgA6lkMLRIcALyYfAlQiKg4VBmWhojBJZD8FPI7fhwAVhMFlkBlsHAKi3YBMEi4Kl0WU/jmFYINFJAVdEWRiuKr5UxBs/hSFNn5t/mwMbB5MrYV3TN7vHclrvlvyfpl85xwClGcd7COu7xwCVhk3Lsn5KuPOuTJu17Br/Th+MV5p/mRcm/9s69+eaTTUs/lHA4DWQtT8LTs6wogGAB0CVCIqDgrDZUFRRJLwnwL0/wNkQ4DvBHAI0O1CXyn8OHJJuChcFlH652z6dj5v/D+On1LQFYFu+VMMVzR/Xfm7ICJJRM2/2vjZVDo/P/mOWQMcBLx27h4CyHg06Ee7AToIGI9/Hb8Y12FghXHlXBnXVb/+rLfS/J1xb/6zrX/nO+OaPJNd9Xc3/45SaKHoEECJqDRUGC6LTBTZTwHREGCCMHhUEAYXhwDfLvSVQjYIuCQMbksDXYWh6Z+5DOw4CkEbP1f9uuU/EoP9jaPmr3LImr8950wSFIXLQoVBcWSpQnn35L1fkbzGOyfvnanvPRoCnGsdAmZsj4YA49t3+mZDABnXnwQixqNBwFIZn3HuTrDj7BzOuTPOnT0f8O3eVpv/aOs/47u6+leOvRbo9I6OYUQDgEpFxZHJIhIFJWGCyP4/QHUIiLYLbTrXLUOXhA4DLgsVhqZ/pjKw43Wrn42fq367N9/yt3v+33G++XNrMBJEJAkVBZu/v1dNfe+d35F8x5azQYDDfcb2yhAQ7QQo48aJMx79JOC7AdEg4IxbKuOWZNzSP3Mn2HE63DvnurPnq34f8O0evflXGGfzt2eU8U22o6F+1Pwt1ecdHdPQgrGkQCgMDgFVSbggDIJoqzAbAlwQvl1oEOpuAAcB3zZUUbgsVBia/pnKQIXAxq9SiLb87Z7/e8Srgmc2/1HjV2lkydp4t+T93pG85rsl7zdKvvtoEHjGEBAxbpyQce4GRIOAMq4DQYVzd0LEuF2DO3vOOAd8ZTxq/sq4/rTnfFdX/xnXZJm10dFRikwoFIbKgqKYSSISRGUIcEFYYzX4ot0AlUQ0DLgsVBia/pnKgELwxq9S4IrAtwPtnv9zvGfzZ3PI5NH5ucl3S57vHgJ8p2/EuHFhfBgnxotxozt+OuxzEJgxPuPcvz9iXHf2zg742vztGVWbvw4A5DriWWugo6McmUAojEgUVUlkq4QzgpgNAioKT2/uTP/cvp8JIWr8KgW7R5OC3bMNMfY3PI5//h5Yaf72vOzZZXKoNv9Z4+d77/y+5DuPuM7YXuGbQ8CM8cfxkw/jxHgxbrjjp8O+DwIR587sLuPkXBu/rvqvGvBnzV/5jtjOuNb33tFRjpE0RqKgJFwQlEQkiNkq4XHkgtDdAB0EIkm4KHQoiFJFoDIYNX5KwVcEds8mhcfxz+b/r2MshsrKIGr+/k6qzZ/vm/mJwb/hTH5i8G9gsgZeOQQYD2TcuDF+OOyPBoFVzv1zbfjRcO+N367rjJt3nHHzkd2z3fvjWGv+9owivrn6j/gm2yOmOzqWIpNFJgqVhBUsh4CKILIhQAXx7+OXIAw8F8RoEFBRUBajZMOPhKCNP5OC3bNLwf4W+7u0+dvfHYnhTPP3dzNq/pREy+I7g+834nrENvm+cggwDpxx4+Nx/L7jx2FfB4Fo4N9lnE0/a/xc9Rvnds+PY293b8S4u9T5dsZX2O7oWI6RLCqS2BXEaAigIAw8FwQHgUgSHAhm6d+lDGaN36Vg9/g4fl8RePO3v/NZzZ+y5/ttUfwZwXeesT3j+wzjVu9W9zoEGBfOeLQbYFyNGL+KcztHNtx7448G/Mfxa8C/Y3dPm380AIzY7ujYChZSJIpIEhSEFfSqILhKiARh4KkgskEgEoWnC0NTP9eGPxOCNv5ICt78XQpZ87fnUhVDN/+O1eC7J9szviPGd4cA40AZj3b8jKcK585ohXP9jJw74yPOlfFX7e7psJbx3dGxHSNJUBAuiUwQO0NAtEoY7QZQEJSEDgQqjCz9e5RBJAQ2/pEU2PwjKayIweUwa/58ny2IPztYC1orEeN3DgHZTwLVQSDjnEwz1QfOOJt+xrkyftXunnOeMR4NACPGOzpOBQtqVRBWyDoEWKGfEQSHgEwQlARFoenSUAGoCFwG2vQjITyOsRRWtgMpBhcsxUApVMXQcuiwYE1ozVQZrw4BEecR49Gwn3HuLK5wzn/378+afsZ5xPhq81fO3Znd/DteHiyqSA4zQVw9BMwEQUlQFCqLUaoIXAYVIWSNvyqFavPfFUPLoUODtZFxPmLcOc+GgDs4dwbPcO7fI+d2TufcGbe8kvOzzX/GeUfHJcHCGsmBghjJoTIE7AgiGwY8XRYqDE39nDJQIfi1RkLYkUI3/45nB2skYlw5V8ZnnJ8dAjLOH3+nM66ck+EdxpVzu+aI8xnjEeej5u+ck/Eq5x0dlwWLSwtPBbEjh2wIqAoiGgSiYcDSoXbIK6kisGTTpxCqUnhG87fku+voyIK1onV0xRAQce6MzzjPBoErOPfvWz7+TnJu18wa/4hzZ5ycV5p/lXO+N8uOjkuDBXalHDgERIJwOWSC0EEgGgZUFCqLUer3dQWgTV+FkDX+XSmsNv+ZGDo6ZsGauZLzaAjIODd2Zpx7U34257OdPXLuTss4X23+zXnH04NFZnmlHHQIiFYJFUFEq4VIFCqLUer3dQUQrfYpBEohW/VnUujm3/GqYO3cxXk27D+Tc/1uxjmHezZ+ch5t+Svn9izuav7NesdtwULTQjwrh5VVwkgQlEQkCpXFKPX72vDZ9EeNn6sBrvqfIYWOjtVgDd3BeTTsczfgbs71uzPO7dqjxs8B/9mcN+sdtwaLjWJQOXjxzuTggqAcslVCNgjoTwORJFQUKotR6vf1PNr0MyFkq4FsK/AuKXR07AZrKeK8OgS8K+f6XTZ8Mj7jnAN+xLnu7p3hvFnveEmw6CpiqMoh2yqMdgMiQXC1EImCspilHjeSQSSEqPHfKQW+l46Os8GamrH+iZzrMVXOdcUfcZ6t+lc4V9Znzb9573hasPAqYliVQ7RKGAkik0QmipXU4yMZZEKIVgMjKWRC2Gn+LYSOK4I1VWH9HThfZT1ivMr5bMCfcT5r/s16x9sFC5ATaiSGkRwoCJXDriBUEioKTUqDAqAIIhlUhEApVFcD3fw7Xh2srQrrWr9kPRoEdjiPhoGMc+Wd/xYxHnEeDfcZ51Hjr3LerHe8fbAIq2KIhoCZHGaCqEoiksUseSxlUBXCjhRaCB3vEqyxCuurQ8AO51ewzmOiwf5OzrMhv1nveOtgMVbFUJXDjiAySVAUqxmJQGVwhRBWm38khY6Ou4K1xlqcsU7OzwwCyjlZJ7vVpC8izv0+djiPmn/GeYX15r3j5cGC3BGDyiEaBByokSAySVAUlMUseWzU8FUGFSFEzT9aDVAKfK587h0ddwdrjjU5Y33EeWUQUM7JOlkly1nyuArnfl93cF5hvXnveItgUVbEkMmhukqIBFGVBJPgE/5MBLOmXxVCVQp8nnzeLYSOZwRrbsb6jPNoENjlfMZ6NXnOV3LerHe8fbA4K2JYlcNMECNJRKJYTZ5Pr7UihF4NdHx6sPauYD3iXFnPOL+adZ5rxvgZzsk6n2Gz3vExwSLNxEA5EIhIDhVBUBIVUVST56EMVoUwkkILoeMTgjUYsb46BFzF+S7rPAc513u4kvOIdT7bZr3j7YPFmolhRQ5VQVASkSgyWcyS51iRQQuh41uDtVhhXWuerGeck3WyRzZ3WOexq5zrvY84b9Y7vjpYtFUxzOSwIohIEjNZZMnjIxFQBi2Ejj8lWJMZ76xxMpBx/gzWedyrOG/WO74iWLwjMazKoSKISBIzWYyS59iRQQuh41uDtflM1snkLus8NmP8Ls6b9Y6vChbxqhgqcogEEUmiIotZ8lyZDHaEkEmBz62F0PGuwRq9mnUyNuJ8l3WeY4XxOzhv1js+PljQV8ghEkQmiYosqslzrsighdDx7cFafQXrZHY1eb7mvKPjZLC4Z2LI5LAiiJEkziavM5LBihBGUujo+IRg3e6yToaezTrPP+Oc97/LebPe8ZXBImcSkJEcRoIYSeLq5HVbCB0dP4M1/Mms85p3cd6sJ/F/tAb02kj2nYYAAAAASUVORK5CYII=;labelBorderColor=none;fontFamily=Lucida Console;fontStyle=1" parent="1" vertex="1">
          <mxGeometry x="50" y="281.5" width="40" height="40" as="geometry" />
        </mxCell>
        <mxCell id="kyHv9WxEyEAn_q-l7HWX-7" value="" style="dashed=0;outlineConnect=0;html=1;align=center;labelPosition=center;verticalLabelPosition=bottom;verticalAlign=top;shape=mxgraph.weblogos.gmail" vertex="1" parent="1">
          <mxGeometry x="40" y="160" width="40" height="31" as="geometry" />
        </mxCell>
        <mxCell id="kyHv9WxEyEAn_q-l7HWX-10" style="edgeStyle=orthogonalEdgeStyle;rounded=1;orthogonalLoop=1;jettySize=auto;html=1;curved=0;dashed=1;dashPattern=1 4;endArrow=blockThin;endFill=0;" edge="1" parent="1" source="6ND3VzIesLsBvpKnC6EB-26" target="kyHv9WxEyEAn_q-l7HWX-7">
          <mxGeometry relative="1" as="geometry" />
        </mxCell>
      </root>
    </mxGraphModel>
  </diagram>
</mxfile>
